<svg xmlns="http://www.w3.org/2000/svg" width="67.965" height="74.904" viewBox="0 0 67.965 74.904">
  <path id="Path_316" data-name="Path 316" d="M43.532,287.416A8.207,8.207,0,0,1,37,284.329a1.473,1.473,0,0,1-.289-.686l-1.251.329a1.489,1.489,0,0,1-.756-2.881l17.972-4.716a1.491,1.491,0,1,1,.759,2.883l-2.092.549a1.5,1.5,0,0,1,.1.535c0,3.9-3.546,7.074-7.9,7.074m-3.871-4.548a5.317,5.317,0,0,0,3.871,1.569c2.626,0,4.781-1.718,4.921-3.873Zm-4.583-5.624a1.489,1.489,0,0,1-.378-2.93L52.672,269.6a1.478,1.478,0,0,1,1.821,1.062,1.494,1.494,0,0,1-1.062,1.819L35.457,277.2a1.511,1.511,0,0,1-.378.047m0-6.77a1.492,1.492,0,0,1-1.44-1.111,1.429,1.429,0,0,1-.047-.294,1.456,1.456,0,0,1-.3-.8c-.32-4.9-2.089-6.268-4.328-8-2.925-2.269-6.243-4.837-6.861-14.316a17.754,17.754,0,0,1,4.968-13.363,22.918,22.918,0,0,1,32.983.051,17.614,17.614,0,0,1,4.905,13.319c-.656,9.2-3.861,11.755-6.691,14.01a10.067,10.067,0,0,0-3.74,4.508,1.478,1.478,0,0,1-.738,1.09,1.506,1.506,0,0,1-.614.212l-17.717,4.651a1.516,1.516,0,0,1-.378.049m8.449-41.892a19.84,19.84,0,0,0-14.285,6.037,14.811,14.811,0,0,0-4.17,11.131c.535,8.141,3.049,10.09,5.713,12.156,2.367,1.833,4.809,3.726,5.4,9.247L51.9,263.028a13.148,13.148,0,0,1,4.513-5.4c2.575-2.054,5.01-3.995,5.575-11.892a14.678,14.678,0,0,0-4.111-11.078,19.872,19.872,0,0,0-14.346-6.082M20.992,269.894a1.49,1.49,0,0,1-1.053-2.542l4.27-4.268a1.489,1.489,0,1,1,2.106,2.106l-4.27,4.268a1.483,1.483,0,0,1-1.053.437m44.2,0a1.483,1.483,0,0,1-1.053-.437l-4.27-4.268a1.49,1.49,0,0,1,2.108-2.106l4.268,4.268a1.49,1.49,0,0,1-1.053,2.542m-22.153-9.11-7.917-10.9a1.489,1.489,0,1,1,2.409-1.751l5.2,7.156,8.729-15.413a1.488,1.488,0,0,1,2.589,1.468Zm32.986-13.429h-6.04a1.488,1.488,0,0,1,0-2.977h6.04a1.488,1.488,0,1,1,0,2.977m-58.949-1.233h-6.04a1.488,1.488,0,0,1,0-2.977h6.04a1.488,1.488,0,1,1,0,2.977M61.794,228.1a1.488,1.488,0,0,1-1.055-2.542l4.27-4.268a1.49,1.49,0,1,1,2.106,2.108l-4.268,4.268a1.481,1.481,0,0,1-1.053.434m-35.661,0a1.481,1.481,0,0,1-1.053-.434l-4.27-4.268a1.49,1.49,0,1,1,2.106-2.108l4.27,4.268a1.488,1.488,0,0,1-1.053,2.542m18.012-6.579a1.488,1.488,0,0,1-1.489-1.489V214a1.489,1.489,0,0,1,2.979,0v6.037a1.488,1.488,0,0,1-1.489,1.489" transform="translate(-9.545 -212.512)" fill="#fff"/>
</svg>
