<svg xmlns="http://www.w3.org/2000/svg" width="50" height="47.52" viewBox="0 0 50 47.52">
  <g id="Icon" transform="translate(7.65 6.511)">
    <rect id="base" width="50" height="47.519" transform="translate(-7.65 -6.511)" fill="none"/>
    <g id="icon-2" data-name="icon" transform="translate(2581.014 137.489)">
      <g id="Ellipse_27" data-name="Ellipse 27" transform="translate(-2586.665 -144)" fill="none" stroke="#243c96" stroke-width="2">
        <circle cx="23.5" cy="23.5" r="23.5" stroke="none"/>
        <circle cx="23.5" cy="23.5" r="22.5" fill="none"/>
      </g>
      <g id="Group_21759" data-name="Group 21759" transform="translate(-2611.763 -551.859)">
        <path id="Path_5922" data-name="Path 5922" d="M57.088,418.161q1.791,0,3.588,0c0,1.205,0,2.413,0,3.618h-1.1c0-.6,0-1.207-.006-1.81-1.521,1.524-3,3.077-4.557,4.567a1.822,1.822,0,0,1-.228,1.676c-.441.594-1.249.491-1.891.4-.657,1.044-1.79,1.632-2.528,2.6-.528.484-.05,1.352-.645,1.823a1.422,1.422,0,0,1-2.471-.172,1.93,1.93,0,0,1-.158-1.136c-.7-1.2-2.029-1.813-2.77-2.974a4.532,4.532,0,0,1-1.6-.014c-.659,1.061-1.782,1.684-2.548,2.647.4.879-.094,2.242-1.166,2.258-1.158.2-1.941-1.293-1.415-2.237.229-.773,1.144-.861,1.82-.766.913-.882,1.777-1.816,2.7-2.689a2.908,2.908,0,0,1,.135-1.276,1.509,1.509,0,0,1,2.5-.139,2.7,2.7,0,0,1,.228,1.527c1.122.725,1.76,1.974,2.873,2.716a2.654,2.654,0,0,1,1.4-.037c1.164-.787,1.895-2.027,3.025-2.845a1.79,1.79,0,0,1,.4-1.769c.439-.453,1.093-.309,1.65-.273a16.784,16.784,0,0,1,2.2-2.248A14.5,14.5,0,0,1,58.89,419.3c-.6,0-1.2,0-1.8,0,0-.382,0-.758,0-1.138m-3.861,6.5a.722.722,0,0,0-.085,1.084c.334.446,1.277.122,1.225-.44.129-.591-.717-.971-1.14-.644m-10.035.117c-.4.126-.423.725-.274,1.055.36.41,1.257.363,1.313-.274a.707.707,0,0,0-1.038-.78m-4.641,4.758c-.833.345-.16,1.586.6,1.169.909-.288.18-1.558-.6-1.169m9.7.088c-.685.361-.083,1.487.6,1.124.821-.34.109-1.611-.6-1.124" transform="translate(0.318 0)" fill="#243c96"/>
        <path id="Path_5927" data-name="Path 5927" d="M51.65,428.63q3.9,0,7.789,0v14.717h-7.8q-.029-7.357.006-14.717m2.724,1.066c0,.415,0,.83,0,1.241h.689c0-.411,0-.826,0-1.239-.23,0-.461,0-.689,0m1.651,0c0,.413,0,.827,0,1.239h.825V429.7c-.277,0-.551,0-.827,0m1.794,0c0,.413,0,.827,0,1.239h.655V429.7c-.218,0-.437,0-.655,0m-5.034,2.356c0,.37,0,.742,0,1.114.118,0,.355.017.476.023,0-.39,0-.779,0-1.167-.118.009-.357.023-.476.03m1.586-.013c0,.379,0,.757,0,1.137.228,0,.459,0,.687,0,0-.378,0-.756,0-1.133-.23,0-.463,0-.691,0m1.654,0c0,.377,0,.755,0,1.133l.825,0v-1.137c-.277,0-.551,0-.827,0m1.8-.008c0,.379,0,.763,0,1.146.164,0,.492,0,.655,0,0-.378,0-.756,0-1.129l-.653-.012m-5.037,2.258v1.15c.121.006.361.017.479.025v-1.2c-.121.006-.358.018-.479.027m1.586-.012v1.17h.691c0-.392,0-.78,0-1.17Zm1.654,0v1.17c.277,0,.551,0,.827,0V434.28l-.827,0m1.794-.006v1.181l.655-.008v-1.164c-.162,0-.489-.006-.655-.009m-5.03,2.3c0,.369,0,.739,0,1.109.119.007.358.024.479.032,0-.394,0-.786-.006-1.18-.119.01-.355.028-.47.039m1.585-.017c0,.38,0,.758,0,1.139l.691,0c0-.378,0-.756,0-1.134-.228,0-.459,0-.687,0m1.654,0c0,.378,0,.756,0,1.134l.827,0v-1.139c-.277,0-.551,0-.825,0m1.792-.006c0,.384,0,.765,0,1.148l.653-.011c0-.377,0-.753,0-1.131-.162,0-.491,0-.655-.006m-3.446,2.281c0,.376,0,.754,0,1.133l.689,0v-1.134l-.687,0m1.654,0c0,.377,0,.754,0,1.131.277,0,.551,0,.831,0,0-.38,0-.757,0-1.136-.277,0-.551,0-.825,0m1.792,0c0,.377,0,.757,0,1.134l.657,0c0-.377,0-.754,0-1.133-.221,0-.439,0-.655,0m-5.052,1.114c.126.006.377.022.5.029,0-.4,0-.789-.006-1.184-.734-.123-.408.723-.5,1.155m.022,2.284.47.024c.006-.394.008-.789.012-1.186h-.482c0,.387,0,.772,0,1.162m1.582-1.158c0,.39,0,.778,0,1.171.228,0,.459,0,.687,0v-1.171l-.689,0m1.634.024q.016.572.028,1.143c.273,0,.546,0,.819,0,0-.4,0-.791,0-1.186-.286.012-.569.027-.851.039m1.812-.028q0,.584.006,1.177c.163,0,.489,0,.651-.006,0-.39,0-.778,0-1.167l-.659,0" transform="translate(2.484 1.596)" fill="#243c96"/>
        <path id="Path_5929" data-name="Path 5929" d="M43.453,432.578q3.876,0,7.754,0c.016,3.389.024,6.778,0,10.17-2.586-.006-5.17,0-7.756,0Zm.977,1.091c-.01.364-.022.727-.032,1.1.213,0,.428.013.64.024,0-.37,0-.736.006-1.1-.152-.006-.458-.014-.613-.016m1.567.01c0,.368.006.734.009,1.1.25,0,.5,0,.753,0,0-.37,0-.739,0-1.106-.257,0-.513,0-.766,0m1.83,0c0,.37,0,.736,0,1.106h.651c0-.37,0-.739,0-1.106Zm-3.392,2.215c-.01.394-.013.789-.013,1.182.154-.008.463-.022.618-.031,0-.368,0-.741,0-1.11-.149-.012-.452-.03-.6-.041M46,435.92v1.135h.758v-1.137c-.255,0-.508,0-.758,0m1.828,0c0,.378,0,.758,0,1.135.167,0,.492,0,.657,0,0-.38,0-.761,0-1.141l-.651,0m1.79.008v1.119l.481.022c0-.385,0-.774,0-1.159-.119.006-.36.013-.481.018m-5.2,3.23h.621v-.965h-.621ZM46,438.194v.965h.758c0-.322,0-.644,0-.965Zm1.828,0v.967h.651c0-.318,0-.641,0-.961-.218,0-.434,0-.653-.006m-3.392,2.041c-.014.469-.022.937-.028,1.409.207,0,.417,0,.626,0,0-.453,0-.9,0-1.356-.15-.014-.452-.038-.6-.05m1.564.032v1.374c.25,0,.5,0,.756,0,0-.462,0-.921,0-1.379-.255,0-.508,0-.758,0m1.824,0c0,.459,0,.915,0,1.377h.651c0-.462,0-.921,0-1.383-.165,0-.49,0-.657.006m1.793.009c0,.449,0,.9,0,1.348.116.014.351.038.467.05.008-.475.014-.951.012-1.426-.119.007-.36.022-.481.028" transform="translate(1.237 2.198)" fill="#243c96"/>
        <path id="Path_5931" data-name="Path 5931" d="M35.347,436.107q3.81,0,7.618,0c0,2.032.037,4.067.006,6.1H35.344c-.018-2.033,0-4.068,0-6.1m.974,1.095c-.006.477-.009.954-.015,1.43.169-.012.337-.022.5-.029q-.016-.7-.024-1.4l-.466,0m1.56.032c.01.463.02.925.022,1.386h.685c0-.473,0-.947,0-1.422l-.709.036m1.808-.022c0,.469,0,.941,0,1.408h.686V437.2l-.689.008m1.76,0V438.6l.535.05c.012-.486.017-.973.014-1.458l-.549.021m-5.128,2.5c-.006.459-.009.915-.017,1.374.166,0,.334,0,.5.008-.009-.467-.014-.929-.023-1.394-.115,0-.347.01-.462.013m1.577.006c0,.46,0,.915,0,1.374l.687,0c0-.461,0-.916,0-1.378-.233,0-.461,0-.693,0m1.792,0c0,.46,0,.919,0,1.376h.686v-1.382c-.173,0-.515.006-.689.006m1.76.006v1.373c.188,0,.372-.01.56-.013-.006-.461-.012-.919-.016-1.38l-.544.02" transform="translate(0 2.736)" fill="#243c96"/>
      </g>
    </g>
  </g>
</svg>
