<svg xmlns="http://www.w3.org/2000/svg" width="47" height="47" viewBox="0 0 47 47">
  <g id="icon" transform="translate(2586.665 144)">
    <g id="Ellipse_27" data-name="Ellipse 27" transform="translate(-2586.665 -144)" fill="none" stroke="#243c96" stroke-width="2">
      <circle cx="23.5" cy="23.5" r="23.5" stroke="none"/>
      <circle cx="23.5" cy="23.5" r="22.5" fill="none"/>
    </g>
    <g id="Group_21757" data-name="Group 21757" transform="translate(-2576.859 -134.922)">
      <path id="Path_6002" data-name="Path 6002" d="M183.855,415.493h3.091c0,1.081,0,2.161,0,3.24h-.868c0-.529,0-1.06.007-1.587-1,.784-1.76,1.818-2.7,2.675-1.246,1.078-2.251,2.4-3.528,3.448-1.073,1.314-2.448,2.329-3.531,3.633a13.014,13.014,0,0,0-1.793-1.83c-.986-.8-1.636-1.938-2.693-2.65a14.174,14.174,0,0,0-1.15,1.232c-.641.81-1.542,1.355-2.213,2.14a12.132,12.132,0,0,1-1.6,1.661l-.643-.645c1.86-1.9,3.753-3.759,5.631-5.638a20.963,20.963,0,0,1,2.7,2.659c.607.531,1.2,1.086,1.752,1.671.638-.739,1.486-1.256,2.084-2.026.969-1.185,2.257-2.05,3.2-3.26,1.309-1.162,2.464-2.465,3.705-3.7h-1.454Z" transform="translate(-163.453 -415.493)" fill="#243c96"/>
      <path id="Path_6005" data-name="Path 6005" d="M185.673,421.726c1.459,0,2.922,0,4.38,0v19.441c.32,0,.641,0,.961,0v.869H163.47v-.871c.319,0,.641,0,.96,0,0-2.052,0-4.1,0-6.15q2.19,0,4.379,0v6.148c.309,0,.619,0,.929,0q0-6.646,0-13.292h4.381v13.29h.929V430.548q2.189,0,4.381,0,0,5.311,0,10.621l.931,0V424.4h4.377v16.77l.93,0q.011-9.72,0-19.443m.87.9q0,9.272,0,18.542,1.319,0,2.639,0,0-9.271,0-18.539-1.319,0-2.639,0m-5.31,2.64v15.9q1.319,0,2.639,0v-15.9ZM170.611,428.9v12.27q1.321,0,2.639,0V428.9Zm5.312,2.521q0,4.874,0,9.75c.877,0,1.759,0,2.637,0q0-4.875,0-9.75Zm-10.593,4.472v5.278q1.306,0,2.611,0,0-2.638,0-5.278c-.87,0-1.743,0-2.611,0" transform="translate(-163.47 -415.454)" fill="#243c96"/>
    </g>
  </g>
</svg>
