<svg xmlns="http://www.w3.org/2000/svg" width="50" height="47.519" viewBox="0 0 50 47.519">
  <g id="Icon" transform="translate(7.65 6.511)">
    <rect id="base" width="50" height="47.519" transform="translate(-7.65 -6.511)" fill="none"/>
    <g id="Group_22387" data-name="Group 22387" transform="translate(-4.392 -4.839)">
      <path id="Path_10602" data-name="Path 10602" d="M42.543,24.744H36.611V21.693a.847.847,0,0,0-.649-.824l-3.371-.812A11.016,11.016,0,0,0,22.543,10.71V8.474h9.322a.847.847,0,0,0,.6-1.447l-2.791-2.79,2.791-2.79A.847.847,0,0,0,31.865,0H21.7a.847.847,0,0,0-.847.847V10.71A11.016,11.016,0,0,0,10.8,20.057l-3.371.812a.847.847,0,0,0-.649.824v3.051H.848A.847.847,0,0,0,0,25.591V42.539a.847.847,0,0,0,.847.847H17.882a.847.847,0,1,0,0-1.695H8.475V40H34.916v1.695H25.509a.847.847,0,1,0,0,1.695H42.543a.847.847,0,0,0,.847-.847V25.591A.847.847,0,0,0,42.543,24.744Zm-20-23.049h7.276L27.876,3.638a.847.847,0,0,0,0,1.2l1.943,1.943H22.543ZM21.7,12.372a9.27,9.27,0,0,1,9.093,7.251L21.894,17.48a.848.848,0,0,0-.4,0L12.6,19.623A9.27,9.27,0,0,1,21.7,12.372ZM8.475,22.361,21.7,19.175l13.221,3.185v2.383H8.475Zm5.085,4.078V38.3H11.865V26.439Zm1.695,0h3.9V38.3h-3.9Zm5.593,0h1.695V38.3H20.848Zm3.39,0h3.9V38.3h-3.9Zm5.593,0h1.695V38.3H29.831ZM1.695,41.692V26.439H10.17V38.3H8.475V35.76a.847.847,0,0,0-.847-.847H4.237a.847.847,0,0,0-.847.847v3.39A.847.847,0,0,0,4.237,40H6.78v1.695ZM6.78,38.3H5.085V36.607H6.78ZM41.7,41.692H36.611V40h2.542A.847.847,0,0,0,40,39.15V35.76a.847.847,0,0,0-.847-.847h-3.39a.847.847,0,0,0-.847.847V38.3H33.221V26.439H41.7ZM36.611,38.3V36.607h1.695V38.3Z" transform="translate(0 0)" fill="#243c96"/>
      <path id="Path_10603" data-name="Path 10603" d="M412,332.846v3.383a.846.846,0,0,0,.846.846h3.383a.846.846,0,0,0,.846-.846v-3.383a.846.846,0,0,0-.846-.846h-3.383A.846.846,0,0,0,412,332.846Zm1.691.846h1.692v1.692h-1.692Z" transform="translate(-377.067 -303.859)" fill="#243c96"/>
      <path id="Path_10604" data-name="Path 10604" d="M40.846,337.074h3.383a.846.846,0,0,0,.846-.846v-3.383a.846.846,0,0,0-.846-.846H40.846a.846.846,0,0,0-.846.846v3.383A.846.846,0,0,0,40.846,337.074Zm.846-3.383h1.691v1.692H41.691Z" transform="translate(-36.617 -303.859)" fill="#243c96"/>
      <ellipse id="Ellipse_45" data-name="Ellipse 45" cx="1.062" cy="0.531" rx="1.062" ry="0.531" transform="translate(20.633 41.781)" fill="#243c96"/>
    </g>
  </g>
</svg>
