<svg xmlns="http://www.w3.org/2000/svg" width="50" height="47.52" viewBox="0 0 50 47.52">
  <g id="Icon" transform="translate(7.65 6.511)">
    <rect id="base" width="50" height="47.519" transform="translate(-7.65 -6.511)" fill="none"/>
    <g id="icon-2" data-name="icon" transform="translate(2581.162 137.489)">
      <g id="Ellipse_27" data-name="Ellipse 27" transform="translate(-2586.813 -144)" fill="none" stroke="#243c96" stroke-width="2">
        <circle cx="23.5" cy="23.5" r="23.5" stroke="none"/>
        <circle cx="23.5" cy="23.5" r="22.5" fill="none"/>
      </g>
      <g id="Group_21758" data-name="Group 21758" transform="translate(-2575.71 -134.455)">
        <path id="Path_5948" data-name="Path 5948" d="M431.253,417.98a5.77,5.77,0,0,1,5.067-3.5c1.459.013,2.923-.04,4.384.026.451.484.1,1.34.208,1.966a3.331,3.331,0,0,1,2.777,3.486c-.176,2.664.545,5.6-.929,8.009a6.248,6.248,0,0,1-2.234,2.172v1.639c.916,0,1.835-.022,2.748.039,0-1.146-.007-2.293,0-3.437-.022-.259.038-.623.375-.628.5-.057.534.523.726.848.928.033,1.856.011,2.782.023a5.384,5.384,0,0,0,.872-.775c.144-.3.117-.72.459-.881.552.042.42.682.64,1.041a4.508,4.508,0,0,0,.719.616c.957-.008,1.914,0,2.872,0,.138-.423.468-1.263.974-.666.072,2.36.016,4.728.028,7.093a5.159,5.159,0,0,1-1.453,3.55,5.262,5.262,0,0,1-3.224,1.235q-.151.248-.319.48c-.358.092-.5-.2-.642-.467a9.184,9.184,0,0,1-2.87-.768c-5.341-.026-10.681.011-16.018-.019a.766.766,0,0,1-.722-.893,25.038,25.038,0,0,1,.1-3.574,3.642,3.642,0,0,1,1.911-2.464c1.131-.569,2.432-.282,3.645-.35,0-.551,0-1.1,0-1.653a5.008,5.008,0,0,1-2.174-2.017c-1.208-1.46-1.117-3.481-1.1-5.264.066-1.62-.219-3.317.4-4.861m2.046-1.48a5.924,5.924,0,0,0-1.641,4.714c.359-.392.728-.78,1.112-1.153,1.439.538,2.833,1.356,4.418,1.294a9.824,9.824,0,0,0,4.447-1.247c.587.061.9.66,1.271,1.049-.082-1,.187-2.181-.56-2.994a4.414,4.414,0,0,0-2.164-.934,14.917,14.917,0,0,1-.042-1.867c-1.272.008-2.544-.015-3.814.008A5.232,5.232,0,0,0,433.3,416.5m-1.631,5.849c-.023.9-.036,1.8.009,2.7A5.984,5.984,0,0,0,434.3,429.3a5.78,5.78,0,0,0,6.662-.47,6.772,6.772,0,0,0,1.6-2.353c.5-1.349.258-2.8.316-4.208a12.418,12.418,0,0,0-1.289-1.155,9.775,9.775,0,0,1-8.66,0c-.412.419-.852.814-1.267,1.232m12.485,7.048c.033,1.968-.036,3.936.03,5.9a3.962,3.962,0,0,0,3.181,3.671,5.941,5.941,0,0,0,3.383-.34,4.212,4.212,0,0,0,2.138-3.041c.084-2.063,0-4.129.039-6.194-1.031.022-2.064.048-3.094,0a2.223,2.223,0,0,1-1.263-.653c-1.22,1.077-2.945.571-4.414.655m-9.261,1.238c0,.435,0,.872.008,1.307.271.19.54.382.812.579.5-.283,1.005-.535,1.518-.784a8.409,8.409,0,0,1,1.65.75c.25-.184.506-.366.76-.545v-1.318a7.131,7.131,0,0,1-4.747.011m-3.561,2.123a2.81,2.81,0,0,0-2.043,2.289c-.113,1.049,0,2.107-.013,3.16q7.635,0,15.27,0a5.37,5.37,0,0,1-1-1.486,13.925,13.925,0,0,1-.275-3.983,19.18,19.18,0,0,0-2.948-.054,8.976,8.976,0,0,0-1.379.755c-.585-.174-1.116-.491-1.683-.712a7.4,7.4,0,0,1-1.574.7c-.59-.091-.961-.763-1.582-.763a16.1,16.1,0,0,0-2.775.091" transform="translate(-428.455 -414.469)" fill="#243c96"/>
        <path id="Path_5956" data-name="Path 5956" d="M449.553,432.545a.428.428,0,0,1,.661.467c-.007,1.628.04,3.255-.024,4.881a.391.391,0,0,1-.756-.076c-.052-1.45,0-2.9-.021-4.353.035-.3-.08-.668.14-.919" transform="translate(-429.719 -415.554)" fill="#243c96"/>
        <path id="Path_5957" data-name="Path 5957" d="M437.609,435.507c.459-.377.92.628.366.813-.519.137-.708-.509-.366-.813" transform="translate(-428.997 -415.733)" fill="#243c96"/>
        <path id="Path_5960" data-name="Path 5960" d="M437.55,438.369c-.32-.334.042-.717.327-.909.144.2.287.408.429.614-.19.239-.424.532-.756.3" transform="translate(-428.996 -415.856)" fill="#243c96"/>
      </g>
    </g>
  </g>
</svg>
