<svg xmlns="http://www.w3.org/2000/svg" width="50" height="47.52" viewBox="0 0 50 47.52">
  <g id="accord-icon-1" transform="translate(7.65 6.511)">
    <rect id="base" width="50" height="47.519" transform="translate(-7.65 -6.511)" fill="none"/>
    <g id="Group_22951" data-name="Group 22951" transform="translate(3.922 3.954)">
      <g id="Ellipse_58" data-name="Ellipse 58" transform="translate(-9.572 -10.465)" fill="none" stroke="#243c96" stroke-width="2">
        <circle cx="23.5" cy="23.5" r="23.5" stroke="none"/>
        <circle cx="23.5" cy="23.5" r="22.5" fill="none"/>
      </g>
      <g id="Group_22952" data-name="Group 22952" transform="translate(-0.738 -3.302)">
        <path id="Path_10602" data-name="Path 10602" d="M29.223,17H25.148V14.9a.582.582,0,0,0-.446-.566l-2.316-.558a7.567,7.567,0,0,0-6.9-6.42V5.821h6.4a.582.582,0,0,0,.412-.994L20.383,2.91,22.3.994A.582.582,0,0,0,21.888,0H14.9a.582.582,0,0,0-.582.582V7.357a7.567,7.567,0,0,0-6.9,6.42L5.1,14.335a.582.582,0,0,0-.446.566V17H.582A.582.582,0,0,0,0,17.578V29.22a.582.582,0,0,0,.582.582h11.7a.582.582,0,1,0,0-1.164H5.821V27.473H23.984v1.164H17.522a.582.582,0,1,0,0,1.164h11.7a.582.582,0,0,0,.582-.582V17.578A.582.582,0,0,0,29.223,17ZM15.485,1.164h5L19.148,2.5a.582.582,0,0,0,0,.823l1.335,1.335h-5ZM14.9,8.5a6.367,6.367,0,0,1,6.246,4.981l-6.109-1.472a.582.582,0,0,0-.273,0L8.657,13.479A6.367,6.367,0,0,1,14.9,8.5ZM5.821,15.359,14.9,13.171l9.081,2.188V17H5.821Zm3.493,2.8v8.149H8.15V18.16Zm1.164,0h2.678v8.149H10.478Zm3.842,0h1.164v8.149H14.32Zm2.329,0h2.678v8.149H16.649Zm3.842,0h1.164v8.149H20.491ZM1.164,28.638V18.16H6.986v8.149H5.821V24.563a.582.582,0,0,0-.582-.582H2.911a.582.582,0,0,0-.582.582v2.328a.582.582,0,0,0,.582.582H4.657v1.164Zm3.493-2.328H3.493V25.145H4.657Zm23.984,2.328H25.148V27.473h1.746a.582.582,0,0,0,.582-.582V24.563a.582.582,0,0,0-.582-.582H24.566a.582.582,0,0,0-.582.582v1.746H22.819V18.16h5.821Zm-3.493-2.328V25.145h1.164v1.164Z" transform="translate(0 0)" fill="#243c96"/>
        <path id="Path_10603" data-name="Path 10603" d="M412,332.581V334.9a.581.581,0,0,0,.581.581H414.9a.581.581,0,0,0,.581-.581v-2.324A.581.581,0,0,0,414.9,332h-2.324A.581.581,0,0,0,412,332.581Zm1.162.581h1.162v1.162h-1.162Z" transform="translate(-388.005 -312.671)" fill="#243c96"/>
        <path id="Path_10604" data-name="Path 10604" d="M40.581,335.486H42.9a.581.581,0,0,0,.581-.581v-2.324A.581.581,0,0,0,42.9,332H40.581a.581.581,0,0,0-.581.581V334.9A.581.581,0,0,0,40.581,335.486Zm.581-2.324h1.162v1.162H41.162Z" transform="translate(-37.677 -312.671)" fill="#243c96"/>
        <ellipse id="Ellipse_45" data-name="Ellipse 45" cx="0.729" cy="0.365" rx="0.729" ry="0.365" transform="translate(14.173 28.699)" fill="#243c96"/>
      </g>
    </g>
  </g>
</svg>
