<svg xmlns="http://www.w3.org/2000/svg" width="46.5" height="42" viewBox="0 0 46.5 42">
  <g id="Group_22974" data-name="Group 22974" transform="translate(-1280.5 -11.5)">
    <line id="Line_73" data-name="Line 73" y2="42" transform="translate(1281.5 11.5)" fill="none" stroke="#5091cd" stroke-width="2"/>
    <path id="question-circle" d="M12.219,16.619a1.738,1.738,0,0,0-.132.165.836.836,0,0,0-.1.2.7.7,0,0,0-.066.2,1.5,1.5,0,0,0,0,.22.924.924,0,0,0,.088.418.99.99,0,0,0,.594.594,1.034,1.034,0,0,0,.836,0,.99.99,0,0,0,.594-.594,1.11,1.11,0,0,0-1.815-1.2ZM13,2A11,11,0,1,0,24,13,11,11,0,0,0,13,2Zm0,19.8A8.8,8.8,0,1,1,21.8,13,8.8,8.8,0,0,1,13,21.8ZM13,7.5a3.3,3.3,0,0,0-2.86,1.65,1.1,1.1,0,1,0,1.9,1.1A1.1,1.1,0,1,1,13,11.9,1.1,1.1,0,0,0,11.9,13v1.1a1.1,1.1,0,1,0,2.2,0v-.2A3.3,3.3,0,0,0,13,7.5Z" transform="translate(1303 20)" fill="#5091cd"/>
  </g>
</svg>
