<?xml version="1.0" encoding="utf-8"?>
<!-- Generator: Adobe Illustrator 25.0.1, SVG Export Plug-In . SVG Version: 6.00 Build 0)  -->
<svg version="1.1" id="Layer_1" xmlns="http://www.w3.org/2000/svg" xmlns:xlink="http://www.w3.org/1999/xlink" x="0px" y="0px"
	 viewBox="0 0 405 305.1" style="enable-background:new 0 0 405 305.1;" xml:space="preserve">
<style type="text/css">
	.st0{fill:none;stroke:#D1D3D4;stroke-width:1.002;stroke-miterlimit:10;}
	.st1{fill:#D1D3D4;}
	.st2{fill:none;stroke:#00B8BB;stroke-width:25.042;stroke-miterlimit:10;}
	.st3{fill:none;stroke:#E39846;stroke-width:25.042;stroke-miterlimit:10;}
	.st4{fill:none;stroke:#8567A8;stroke-width:25.042;stroke-miterlimit:10;}
	.st5{fill:none;stroke:#4CB374;stroke-width:25.042;stroke-miterlimit:10;}
	.st6{fill:#FFFFFF;}
</style>
<g id="Group_22349" transform="translate(-285.5 -167.658)">
	<g id="chart" transform="translate(10372.323 18738.658)">
		<g id="main" transform="translate(-9512.378 -18570.498)">
			<path id="Path_6237" class="st0" d="M-471.9,202.1c0.1,55.2,44.8,99.9,100,100v-0.6c-54.9-0.1-99.4-44.5-99.4-99.4"/>
			<path id="Path_6238" class="st0" d="M-271.9,202.1c-0.1,55.2-44.8,99.9-100,100v-0.6c54.9-0.1,99.4-44.5,99.4-99.4"/>
			<path id="Path_6239" class="st0" d="M-471.9,202.1c0.1-55.2,44.8-99.9,100-100v0.6c-54.9,0.1-99.4,44.5-99.4,99.4"/>
			<path id="Path_6240" class="st0" d="M-271.9,202.1c-0.1-55.2-44.8-99.9-100-100v0.6c54.9,0.1,99.4,44.5,99.4,99.4"/>
			<path id="Path_6241" class="st1" d="M-447.3,270.9c2.1,0,3.8-1.7,3.8-3.8c0-2.1-1.7-3.8-3.8-3.8c-2.1,0-3.8,1.7-3.8,3.8
				c0,0,0,0,0,0C-451.1,269.2-449.4,270.9-447.3,270.9"/>
			<path id="Path_6242" class="st1" d="M-296.2,270.9c2.1,0,3.8-1.7,3.8-3.8c0-2.1-1.7-3.8-3.8-3.8s-3.8,1.7-3.8,3.8c0,0,0,0,0,0
				C-300,269.2-298.3,270.9-296.2,270.9"/>
			<path id="Path_6243" class="st1" d="M-439.1,132.7c2.1,0,3.8-1.7,3.8-3.8c0-2.1-1.7-3.8-3.8-3.8c-2.1,0-3.8,1.7-3.8,3.8
				c0,0,0,0,0,0C-443,130.9-441.3,132.7-439.1,132.7L-439.1,132.7"/>
			<path id="Path_6244" class="st1" d="M-303.8,132.7c2.1,0,3.8-1.7,3.8-3.8c0-2.1-1.7-3.8-3.8-3.8s-3.8,1.7-3.8,3.8c0,0,0,0,0,0
				C-307.6,130.9-305.9,132.7-303.8,132.7"/>
			<path id="Path_6247" class="st2" d="M-295.7,202.5c0-42-34.1-76.1-76.1-76.1"/>
			<path id="Path_6248" class="st3" d="M-371.8,126.4c-42,0-76.1,34.1-76.1,76.1l0,0"/>
			<path id="Path_6249" class="st4" d="M-371.8,278.6c42,0,76.1-34.1,76.1-76.1"/>
			<path id="Path_6250" class="st5" d="M-447.9,202.5c0,42,34.1,76.1,76.1,76.1"/>
			<g id="Group_21805" transform="translate(44.428 44.674)">
				<path id="Path_6021" class="st6" d="M-471.9,157.3c0,30.5,24.7,55.2,55.2,55.2s55.2-24.7,55.2-55.2s-24.7-55.2-55.2-55.2l0,0
					C-447.2,102.1-471.9,126.8-471.9,157.3"/>
			</g>
		</g>
	</g>
</g>
</svg>
