<svg xmlns="http://www.w3.org/2000/svg" width="154" height="155.881" viewBox="0 0 154 155.881">
  <g id="circle" transform="translate(-2 0.001)">
    <g id="Ellipse_28" data-name="Ellipse 28" transform="translate(2 2)" fill="#fff" stroke="#e5e6e8" stroke-width="2">
      <circle cx="76" cy="76" r="76" stroke="none"/>
      <circle cx="76" cy="76" r="75" fill="none"/>
    </g>
    <path id="Path_6231" data-name="Path 6231" d="M0,152.874a2.991,2.991,0,0,1,2.871-2.99A72.089,72.089,0,0,0,72,77.94,72.088,72.088,0,0,0,2.871,6a3,3,0,1,1,.261-6A78.1,78.1,0,0,1,78,77.94,78.1,78.1,0,0,1,3.132,155.878a3.011,3.011,0,0,1-3.132-3" transform="translate(78 -0.001)" fill="#5091cd"/>
  </g>
</svg>
