<svg xmlns="http://www.w3.org/2000/svg" width="34" height="34" viewBox="0 0 34 34">
  <g id="globe" transform="translate(-1833 -246)">
    <rect id="base" width="34" height="34" transform="translate(1833 246)" fill="none"/>
    <g id="Group_22350" data-name="Group 22350" transform="translate(-0.734 0.545)">
      <path id="format-font-size-decrease" d="M22.857,20.429l6.429-6.519-1.813-1.839-3.33,3.343V7.571H21.571v7.843l-3.33-3.343L16.429,13.91Z" transform="translate(1834.5 249)" fill="#777b81"/>
      <path id="Path_10460" data-name="Path 10460" d="M-.141,2.133-4.57,4.875l-1.2.023a7.524,7.524,0,0,1-4.939-1.4,5.057,5.057,0,0,1-1.67-4.107,9.512,9.512,0,0,1,.457-3.082A6.708,6.708,0,0,1-10.27-6.328,7.409,7.409,0,0,1-11.3-7.875a3.389,3.389,0,0,1-.445-1.43,6.269,6.269,0,0,1,.5-1.992,6.272,6.272,0,0,1,1-1.875,2.675,2.675,0,0,1,1.2-.8,4.915,4.915,0,0,1,1.729-.3,4.905,4.905,0,0,1,2.379.592,5.2,5.2,0,0,1,1.84,1.7q-.352,0-.668-.012t-.668-.035a16.14,16.14,0,0,0-3.92.387q-1.494.387-1.494,1.02a1.394,1.394,0,0,0,.516.984,6.756,6.756,0,0,0,1.972,1.17q1.617-.7,2.484-.979t2.7-.686q-.328,1.02-.5,1.488-.22.538-.625,1.4A15.827,15.827,0,0,0-8.953-4.887q-2.086,1.512-2.086,3.223A2.677,2.677,0,0,0-9.246.8a15.712,15.712,0,0,0,6.434.984h.281q.691,0,1.014-.018t1.166-.1Z" transform="translate(1850.5 267)" fill="#777b81"/>
    </g>
  </g>
</svg>
