<svg xmlns="http://www.w3.org/2000/svg" width="34" height="34" viewBox="0 0 34 34">
  <g id="Group_22349" data-name="Group 22349" transform="translate(-5.5 -45)">
    <g id="Rectangle_11223" data-name="Rectangle 11223" transform="translate(5.5 45)" fill="#fff" stroke="#eee" stroke-width="2">
      <rect width="34" height="34" stroke="none"/>
      <rect x="1" y="1" width="32" height="32" fill="none"/>
    </g>
    <g id="logo-twitter" transform="translate(12.939 52.44)">
      <rect id="base" width="20" height="20" transform="translate(-0.439 -0.44)" fill="none"/>
      <path id="Path_95" data-name="Path 95" d="M33.565,65.665a7.385,7.385,0,0,1-2.069.56,3.568,3.568,0,0,0,1.586-1.961,7.237,7.237,0,0,1-2.289.86A3.628,3.628,0,0,0,28.161,64a3.574,3.574,0,0,0-3.6,3.546,3.411,3.411,0,0,0,.093.809,10.272,10.272,0,0,1-7.429-3.707,3.5,3.5,0,0,0-.49,1.782,3.537,3.537,0,0,0,1.61,2.953A3.568,3.568,0,0,1,16.7,68.94v.044a3.563,3.563,0,0,0,2.891,3.476,3.686,3.686,0,0,1-.949.124,3.454,3.454,0,0,1-.677-.066,3.6,3.6,0,0,0,3.368,2.463A7.3,7.3,0,0,1,16.86,76.5a7.428,7.428,0,0,1-.86-.051,10.271,10.271,0,0,0,15.779-8.49c0-.154,0-.307-.011-.457A7.263,7.263,0,0,0,33.565,65.665Z" transform="translate(-15.439 -61.44)" fill="#5ba3e5"/>
    </g>
  </g>
</svg>
