<svg xmlns="http://www.w3.org/2000/svg" width="34" height="34" viewBox="0 0 34 34">
  <g id="download" transform="translate(-38.994 70.038)">
    <g id="Layer_2" data-name="Layer 2" transform="translate(43.994 -29.038)">
      <rect id="base" width="34" height="34" transform="translate(-5 -41)" fill="none"/>
      <g id="Page-1" transform="translate(0.5 -36)">
        <g id="Icon-Set">
          <path id="share" d="M329.539,748.154a2.77,2.77,0,1,1,2.769-2.77,2.769,2.769,0,0,1-2.769,2.77Zm-12.923-7.385a2.769,2.769,0,1,1,2.77-2.77,2.769,2.769,0,0,1-2.77,2.77Zm12.923-12.923a2.769,2.769,0,1,1-2.769,2.769,2.769,2.769,0,0,1,2.769-2.769Zm0,12.923a4.6,4.6,0,0,0-3.881,2.134l-4.943-2.824a4.335,4.335,0,0,0,.3-3.405l5.142-2.937a4.843,4.843,0,1,0-1.016-1.793L320,734.881a4.619,4.619,0,1,0-.595,6.777l-.018.035,5.589,3.193a4.5,4.5,0,0,0-.05.5,4.615,4.615,0,1,0,4.615-4.615Z" transform="translate(-312 -726)" fill="#777b81" fill-rule="evenodd"/>
        </g>
      </g>
    </g>
  </g>
</svg>
