<svg xmlns="http://www.w3.org/2000/svg" width="90" height="90" viewBox="0 0 90 90">
  <g id="icon" transform="translate(2586.813 144)">
    <g id="Ellipse_27" data-name="Ellipse 27" transform="translate(-2586.813 -144)" fill="none" stroke="#9062aa" stroke-width="3">
      <circle cx="45" cy="45" r="45" stroke="none"/>
      <circle cx="45" cy="45" r="43.5" fill="none"/>
    </g>
    <path id="Path_6143" data-name="Path 6143" d="M329.005,417.522a47.356,47.356,0,0,1-4.6-2.336c-.756-.446-1.51.21-2.118.6-8.221,4.165-16.333,8.527-24.52,12.77a1.9,1.9,0,0,0,.972,1.434c.025.857-.006,1.712.074,2.571a6.179,6.179,0,0,0,1.432,1.753c.094,1.383-.255,2.87.366,4.163.245.639,1.04.639,1.572.914-.01,6.037,0,12.068-.01,18.1-.581.29-1.443.362-1.681,1.073a14.24,14.24,0,0,0-.234,4.042c-.462.5-.96.98-1.379,1.533a12.033,12.033,0,0,0,.014,3.586c14.406.183,28.828.029,43.239.08,2.227-.019,4.448.055,6.668-.058.1-1.816.555-4.157-1.393-5.2-.113-1.771.61-4.481-1.716-5.088-.014-6.014,0-12.033,0-18.047,2.379-.6,1.594-3.413,1.7-5.2.218-.082.664-.245.884-.327.746-1.206.62-2.624.623-3.984a2.6,2.6,0,0,0,1.1-1.231c-6.894-3.912-14.046-7.35-21-11.155m-5.047-.869c7.054,3.713,14.2,7.264,21.146,11.162-14.186-.008-28.372-.029-42.562.014,7.1-3.785,14.2-7.6,21.415-11.176m23.4,14.077c-.074.682.327,2.094-.8,2.008-14.673.027-29.356,0-44.034.016a18.737,18.737,0,0,1-2.141-.121c.158-1.151-.7-3.631,1.235-3.4q22.284.009,44.558.01c.966-.259,1.305.719,1.183,1.486m-1.27,3.614c0,.232-.014.7-.018.925h-8.309v-.929c2.776,0,5.55-.01,8.326,0m-9.863,0c.008,1.149-.06,2.3.047,3.448.251.883,1.112,1.286,1.876,1.642-.008,6.014.006,12.027-.008,18.041-.674.409-1.673.692-1.841,1.578a28.4,28.4,0,0,0-.074,3.551h-6.781c-.062-1.819.625-4.761-1.921-5.125-.01-6.014,0-12.027-.01-18.041.547-.271,1.313-.306,1.586-.931.618-1.3.261-2.786.345-4.163,2.26,0,4.522-.006,6.781,0m-8.1,0c0,.232,0,.7,0,.929h-8.316v-.929c2.772-.006,5.542,0,8.32,0m-9.914,0c.056,1.28-.2,2.63.245,3.865.195.791,1.124.867,1.738,1.206q-.006,9.056,0,18.113c-.54.226-1.077.456-1.619.69a13.38,13.38,0,0,0-.364,4.387h-6.721c-.06-1.366.224-2.8-.294-4.093-.251-.7-1.1-.725-1.681-.992q-.009-9.055,0-18.117c2.568-.261,1.923-3.263,1.971-5.059q3.366-.009,6.725,0m-8.314,0c0,.232,0,.7,0,.929H301.8c0-.23,0-.7,0-.929,2.7,0,5.4-.006,8.1,0m36.367,2.494c-.107.214-.318.635-.429.851-2.61.092-5.244.109-7.857-.014-.091-.21-.278-.635-.372-.845,2.885-.027,5.774-.041,8.657.008m-17.94,0c-.129.2-.382.606-.5.809-2.431.212-4.89.049-7.331.086-.579.168-.608-.581-.855-.894q4.342-.073,8.69,0m-18.277,0c-.084.21-.255.635-.339.851-2.548.1-5.108.084-7.654.01-.088-.214-.267-.647-.36-.861q4.176-.067,8.353,0m34.1,20.774q-2.2-.012-4.4,0-.015-9.143,0-18.277h4.4Zm-18.016,0q-2.2-.017-4.4,0V439.331h4.407c-.006,6.094.012,12.187-.006,18.281m-18,0q-2.2-.012-4.4,0V439.331h4.4Zm38.124,2.476c-2.866.092-5.745.039-8.616.031.078-.207.236-.627.312-.836,2.572-.162,5.166-.093,7.746-.037.14.207.423.627.559.842m-17.985.018c-2.891.025-5.78.082-8.663-.035.119-.21.368-.623.491-.83,2.353-.084,4.718-.039,7.075-.029a.982.982,0,0,1,1.1.894m-18.18-.035c-2.682.09-5.375.121-8.053,0l-.378-.255.44-.555c2.476-.121,4.966-.08,7.442-.027.138.206.409.621.549.834m35.983,1.6c0,.236,0,.7,0,.937h-8.316v-.931q4.155,0,8.312-.006m-17.951.006c0,.23,0,.7,0,.931-2.778,0-5.552,0-8.328,0,0-.234.012-.7.018-.933q4.149.009,8.307.006m-18.214,0c-.01.232-.023.7-.027.931q-4.038-.012-8.077,0l-.012-.935q4.056-.009,8.116,0m37.255,2.523c.121.684.185,1.37.238,2.065q-23.532.044-47.071,0c.154-.7-.335-2.2.845-2.059q22.994-.05,45.988-.01" transform="translate(-2865.584 -543.037)" fill="#9062aa"/>
  </g>
</svg>
