<?xml version="1.0" encoding="utf-8"?>
<!-- Generator: Adobe Illustrator 25.0.0, SVG Export Plug-In . SVG Version: 6.00 Build 0)  -->
<svg version="1.1" id="Layer_1" xmlns="http://www.w3.org/2000/svg" xmlns:xlink="http://www.w3.org/1999/xlink" x="0px" y="0px"
	 viewBox="0 0 52 48" style="enable-background:new 0 0 52 48;" xml:space="preserve">
<style type="text/css">
	.st0{fill:none;}
	.st1{fill:#FFFFFF;}
</style>
<g id="Icon" transform="translate(0 0)">
	<rect id="base" x="1.6" class="st0" width="48.7" height="48"/>
	<path id="Path_5882" class="st1" d="M37.2,20.2c-0.4-1.8-0.7-3.7-1.1-5.5c-0.3-0.7-0.6-1.3-1-1.9L34.6,13c0.1,2.9,0.2,5.8,0.4,8.7
		c0,2.9,1,5.6,2.7,7.9c0.4,0.6,0.8,1.2,1.2,1.9c0.6,1.1,0.5,2-0.3,2.4c-0.9,0.5-1.8,0.2-2.4-0.9c-1-1.7-2-3.3-3-5
		c-0.3-0.6-0.5-1.3-0.7-2c-0.3-1.7-0.5-3.4-0.8-5.1h-7.4c0.8,2.1,1.5,4,2.2,6c0.4,1.1,0.1,2-0.8,2.3c-0.9,0.3-1.7-0.1-2.1-1.3
		c-1-2.5-1.9-5.1-2.9-7.7c-0.6-1.5,0.1-2.4,1.8-2.4c1.2,0,2.5,0,3.7,0v-6.8c-1,0.4-1.9,0.7-2.8,1c-0.7,0.3-1.6,0.1-2.1-0.5
		C19.7,10,18,8.3,16.4,6.6c-0.8-0.9-0.9-1.8-0.1-2.4c0.7-0.7,1.6-0.5,2.5,0.4c1.2,1.2,2.4,2.4,3.5,3.7c0.4,0.6,1.2,0.8,1.9,0.5
		c1.5-0.7,3-1.1,4.6-1.3c5.3-0.2,5.3-0.1,8.9,3.8c0.5,0.4,0.9,1,1.2,1.6c0.5,2.3,0.9,4.7,1.3,7c0,0.5-0.2,1-0.6,1.4
		c-0.6,0.5-1.6,0.5-2.1-0.1C37.3,20.8,37.2,20.5,37.2,20.2"/>
	<path id="Path_5883" class="st1" d="M3.5,42.6c0.6-0.6,1.2-1.1,2-1.9v2.3h39.4V6.6l-2-0.1l3.5-3.5l3.9,3.5h-2.2V46H5.5
		c0,0.7-0.1,1.4-0.1,2c-1.2-1.2-2.5-2.4-3.7-3.7C2.2,43.7,2.9,43.2,3.5,42.6"/>
	<rect id="Rectangle_10966" x="8.5" y="22.1" class="st1" width="10.3" height="19.7"/>
	<rect id="Rectangle_10967" x="21.2" y="30.3" class="st1" width="9.2" height="11.4"/>
	<rect id="Rectangle_10968" x="32.7" y="35.1" class="st1" width="10.4" height="6.6"/>
	<path id="Path_5884" class="st1" d="M30.5,6.3c-1.7-0.1-3.1-1.5-3.1-3.2c0-1.8,1.4-3.2,3.2-3.2c1.8,0,3.2,1.4,3.2,3.2
		C33.7,4.9,32.3,6.3,30.5,6.3"/>
</g>
</svg>
