<?xml version="1.0" encoding="utf-8"?>
<!-- Generator: Adobe Illustrator 25.0.0, SVG Export Plug-In . SVG Version: 6.00 Build 0)  -->
<svg version="1.1" id="Layer_1" xmlns="http://www.w3.org/2000/svg" xmlns:xlink="http://www.w3.org/1999/xlink" x="0px" y="0px"
	 viewBox="0 0 52 48" style="enable-background:new 0 0 52 48;" xml:space="preserve">
<style type="text/css">
	.st0{fill:none;}
	.st1{fill:#FFFFFF;}
</style>
<g id="Icon" transform="translate(-1317 -697)">
	<rect id="base" x="1317.8" y="697" class="st0" width="50.5" height="48"/>
	<path id="Path_5874" class="st1" d="M1366,734.3c0,1.5,0,2.9,0,4.4c-3.7,0-7.3,0-11,0c0-1.5,0-2.9,0-4.4
		C1358.7,734.3,1362.4,734.3,1366,734.3 M1357.3,716.7c0,1.5,0,2.9,0,4.4c-3.7,0-7.3,0-11,0c0-1.5,0-2.9,0-4.4
		C1350,716.8,1353.6,716.8,1357.3,716.7 M1348.5,699.2c0,1.5,0,2.9,0,4.4c-3.7,0-7.3,0-11,0c0-1.5,0-2.9,0-4.4
		C1341.2,699.2,1344.8,699.2,1348.5,699.2 M1350.7,697h-15.4c0,2.9,0,5.9,0,8.8c2.2,0,4.4,0,6.6,0v3.3c-3.3,0-6.6,0-9.9,0
		c0,1.8,0,3.7,0,5.5c-2.2,0-4.4,0-6.6,0c0,1.1,0,2.2,0,3.3c0.7,0,1.4,0,2.2,0c0-0.4,0-0.7,0-1.1c3.7,0,7.3,0,11,0c0,1.5,0,2.9,0,4.4
		c-0.4,0-0.7,0-1.1,0c0,0.7,0,1.5,0,2.2c1.1,0,2.2,0,3.3,0c0-2.9,0-5.9,0-8.8c-2.2,0-4.4,0-6.6,0c0-1.1,0-2.2,0-3.3
		c5.5,0,11,0,16.5,0c0,1.1,0,2.2,0,3.3c-2.2,0-4.4,0-6.6,0v8.8c2.2,0,4.4,0,6.6,0c0,1.1,0,2.2,0,3.3h-8.8v5.5c-1.1,0-2.2,0-3.3,0
		c0,0.7,0,1.5,0,2.2c3.3,0,6.6,0,9.9,0c0,1.5,0,2.9,0,4.4c-2.2,0-4.4,0-6.6,0c0,0.7,0,1.5,0,2.2c2.9,0,5.9,0,8.8,0
		c0-2.9,0-5.8,0-8.8c-2.2,0-4.4,0-6.6,0v-3.3c5.1,0,10.2,0,15.4,0c0,1.1,0,2.2,0,3.3c-2.2,0-4.4,0-6.6,0c0,2.9,0,5.8,0,8.8
		c5.1,0,10.2,0,15.3,0c0-2.9,0-5.8,0-8.8c-2.2,0-4.4,0-6.6,0c0-1.8,0-3.7,0-5.5h-8.8c0-1.1,0-2.2,0-3.3c2.2,0,4.4,0,6.6,0
		c0-2.9,0-5.8,0-8.8c-2.2,0-4.4,0-6.6,0c0-1.8,0-3.7,0-5.5c-2.9,0-5.8,0-8.8,0c0-1.1,0-2.2,0-3.3c2.2,0,4.4,0,6.6,0
		C1350.7,702.9,1350.7,699.9,1350.7,697"/>
	<path id="Path_5875" class="st1" d="M1328.6,721.2c4.2,0.5,7.2,4.4,6.7,8.6c-0.2,2-1.3,3.8-2.9,5.1c-2.4,1.9-5.7,2.2-8.4,0.8
		c-3.8-2-5.2-6.7-3.2-10.4C1322.4,722.4,1325.4,720.8,1328.6,721.2 M1333.6,721c-4.3-3.3-10.5-2.5-13.8,1.9
		c-3.3,4.3-2.5,10.5,1.9,13.8c1.1,0.8,2.3,1.4,3.6,1.7c2.7,0.6,5.6,0.1,7.9-1.4c2.6,2.7,5.3,5.3,7.9,8h0.1c0.5-0.5,1-1.1,1.5-1.6
		c-2.6-2.6-5.2-5.2-7.8-7.8c1.7-1.8,2.6-4.1,2.7-6.6C1337.6,725.9,1336.1,722.9,1333.6,721"/>
</g>
</svg>
