<?xml version="1.0" encoding="utf-8"?>
<!-- Generator: Adobe Illustrator 25.0.0, SVG Export Plug-In . SVG Version: 6.00 Build 0)  -->
<svg version="1.1" id="Layer_1" xmlns="http://www.w3.org/2000/svg" xmlns:xlink="http://www.w3.org/1999/xlink" x="0px" y="0px"
	 viewBox="0 0 52 48" style="enable-background:new 0 0 52 48;" xml:space="preserve">
<style type="text/css">
	.st0{fill:none;}
	.st1{fill:#FFFFFF;}
</style>
<g id="Icon" transform="translate(0 0)">
	<rect id="base" x="0.4" y="6" class="st0" width="51.2" height="35.9"/>
	<path id="Path_5876" class="st1" d="M9.2,27.7c-2,2.1-4.1,4.2-6.3,6.1c-0.2-0.2-0.7-0.7-1-1c1.8-2.3,4.1-4.1,6-6.2
		C8.3,26.9,8.9,27.4,9.2,27.7 M18.6,13c4.1,1.7,5.9,6.4,4.2,10.5s-6.4,5.9-10.5,4.2C8.4,26,6.5,21.6,7.9,17.6
		c1.5-4.2,6.1-6.3,10.3-4.8C18.4,12.9,18.5,13,18.6,13 M49.9,9.9c0,9.6,0,19.1,0,28.7c-6.4,0-12.8,0-19.3,0
		c-0.6,0.6-1.2,1.2-1.8,1.7c-1.2,0-2.4,0-3.6,0c-0.5-0.6-1.1-1.1-1.6-1.7c-6.4,0-12.9,0-19.3,0V35c0.9-0.9,1.9-1.8,2.8-2.7v3.8
		c4.6,0,9.1,0,13.6,0c2.2,0.1,4.4,0.7,6.4,1.9c2-1.2,4.2-1.8,6.5-1.9c4.5,0,9,0,13.5,0c0-8.8,0-17.5,0-26.3L49.9,9.9z M7.1,9.8
		c-0.1,2.3,0.4,4.8-0.6,7c-1.1,2.7-0.9,5.8,0.5,8.4c-0.9,0.9-1.8,1.8-2.6,2.7c-0.1-6,0-12,0-18C5.3,9.8,6.2,9.8,7.1,9.8 M26.7,9.3
		c0.1,8.9,0,17.7,0,26.5c-5.6-2.5-12-1.1-17.9-1.4c0-1.3,0-2.6,0-3.9c0.6-0.6,1.2-1.2,1.9-1.8c4.6,2.6,10.6,1,13.2-3.6
		c2.4-4.2,1.3-9.5-2.5-12.5c-3.8-2.8-9.1-2.6-12.6,0.6c0-1.8,0-3.7,0-5.5c4,0,8,0,11.9,0C22.8,7.8,24.8,8.3,26.7,9.3 M45.4,7.7
		c0,8.9,0,17.8,0,26.7c-6,0.4-12.3-1.1-17.9,1.4c0-8.8,0-17.6,0-26.4c1.7-1,3.5-1.6,5.5-1.7C37.1,7.7,41.3,7.8,45.4,7.7 M47.1,6
		c-4.9,0-9.7-0.1-14.6,0c-2,0-3.7,1-5.5,1.5c-1.8-0.8-3.7-1.3-5.7-1.5c-4.7-0.1-9.5,0-14.2,0c0,0.7,0,1.4,0,2.1H2.6
		c0,7.1,0,14.3,0,21.4c-0.9,1-2.2,1.9-2.2,3.3c0,1.3,1.3,2,2.2,2.7c0,1.6,0,3.1,0,4.7c6.8,0,13.6,0,20.4,0c0.5,0.6,1.1,1.1,1.6,1.7
		c1.7,0,3.4,0,5,0c0.5-0.6,1.1-1.1,1.6-1.7h20.3c0-10.7,0-21.4,0-32.1h-4.5C47.1,7.4,47.1,6.7,47.1,6"/>
	<path id="Union_2" class="st1" d="M35.2,29.9c-1.4,0-2.8,0-4.2,0L31,29.1c1.4,0,2.8,0,4.2,0c2.3,0,4.5,0,6.8,0
		c0,0.2,0.2,0.5,0.2,0.7c-1.4,0.1-2.9,0.1-4.3,0.1C37,29.9,36.1,29.9,35.2,29.9z M35.1,24.4c-1.4,0-2.8,0-4.1,0v-0.8
		c1.4,0,2.8,0,4.1,0c2.4,0,4.9,0,7.3,0.1c-0.2,0.2-0.5,0.5-0.7,0.7c-1.4,0.1-2.7,0.1-4.1,0.1C36.8,24.4,35.9,24.4,35.1,24.4z
		 M35.1,18.8c-1.4,0-2.7,0-4.1,0l0-0.8c1.4,0,2.7,0,4.1,0c2.5,0,4.9,0,7.4,0.1c-0.2,0.2-0.6,0.5-0.8,0.6c-1.4,0.1-2.7,0.1-4.1,0.1
		C36.8,18.9,35.9,18.8,35.1,18.8z M34.9,13.3c-1.3,0-2.6,0-3.9,0l0-0.8c1.4,0,2.8,0,4.2,0c2.2,0,4.4,0,6.6,0.1
		c0.1,0.2,0.4,0.5,0.5,0.7c-1.6,0-3.2,0.1-4.8,0.1C36.6,13.3,35.7,13.3,34.9,13.3z"/>
	<path id="Path_5878" class="st1" d="M15.4,17.6l1.1,3c-0.7,0-1.5,0-2.2,0C14.7,19.6,15.1,18.6,15.4,17.6 M16.3,14.8
		c-0.4,0-1.2,0-1.6,0c-1.2,3.4-2.5,6.7-3.6,10.2c1.9,0.4,2.2-1.3,2.7-2.6c1.1,0,2.2,0,3.4,0c0.3,0.8,0.6,1.6,0.9,2.5l1.8,0
		C18.7,21.5,17.4,18.2,16.3,14.8"/>
</g>
</svg>
