<svg xmlns="http://www.w3.org/2000/svg" width="90" height="90" viewBox="0 0 90 90">
  <g id="icon" transform="translate(2586.813 144)">
    <g id="Ellipse_27" data-name="Ellipse 27" transform="translate(-2586.813 -144)" fill="none" stroke="#00b8bb" stroke-width="3">
      <circle cx="45" cy="45" r="45" stroke="none"/>
      <circle cx="45" cy="45" r="43.5" fill="none"/>
    </g>
    <g id="Group_21758" data-name="Group 21758" transform="translate(-2994.267 -540.425)">
      <path id="Path_5948" data-name="Path 5948" d="M433.87,421.262c1.718-3.773,5.522-6.82,9.8-6.778,2.824.025,5.656-.078,8.484.051.873.936.2,2.593.4,3.8a6.445,6.445,0,0,1,5.373,6.746c-.34,5.155,1.055,10.837-1.8,15.5-.916,1.855-2.669,3.051-4.322,4.2v3.171c1.773.009,3.551-.042,5.316.076,0-2.218-.013-4.436-.007-6.651-.042-.5.073-1.206.725-1.215.971-.111,1.033,1.013,1.406,1.64,1.8.064,3.591.022,5.384.044a10.42,10.42,0,0,0,1.687-1.5c.278-.573.227-1.393.889-1.705,1.067.082.813,1.32,1.238,2.015a8.721,8.721,0,0,0,1.391,1.191c1.851-.016,3.7-.009,5.556,0,.267-.818.905-2.444,1.885-1.289.14,4.566.031,9.149.055,13.724a9.982,9.982,0,0,1-2.811,6.869,10.182,10.182,0,0,1-6.238,2.389q-.292.48-.618.929c-.693.178-.975-.389-1.242-.9-1.987.067-3.724-.949-5.553-1.485-10.335-.051-20.668.022-31-.036a1.482,1.482,0,0,1-1.4-1.727,48.454,48.454,0,0,1,.189-6.915,7.047,7.047,0,0,1,3.7-4.767c2.189-1.1,4.705-.545,7.053-.678,0-1.066,0-2.133-.006-3.2a9.691,9.691,0,0,1-4.207-3.9c-2.338-2.826-2.162-6.737-2.12-10.186.127-3.135-.424-6.418.778-9.406m3.958-2.864a11.462,11.462,0,0,0-3.175,9.122c.694-.758,1.409-1.509,2.151-2.231,2.784,1.042,5.482,2.624,8.549,2.5,3.077.205,5.866-1.238,8.6-2.413,1.136.118,1.742,1.276,2.46,2.029-.158-1.931.362-4.22-1.084-5.793-1.071-1.227-2.765-1.329-4.187-1.807a28.862,28.862,0,0,1-.082-3.613c-2.462.016-4.922-.029-7.38.016a10.123,10.123,0,0,0-5.856,2.185m-3.156,11.318c-.045,1.74-.069,3.482.018,5.222.635,3.2,2.093,6.586,5.084,8.229a11.184,11.184,0,0,0,12.891-.909c1.129-1.442,2.642-2.713,3.1-4.553.976-2.611.5-5.424.611-8.142a24.027,24.027,0,0,0-2.495-2.235,18.914,18.914,0,0,1-16.757,0c-.8.811-1.649,1.575-2.451,2.384m24.159,13.637c.064,3.807-.069,7.617.058,11.424a7.667,7.667,0,0,0,6.155,7.1,11.5,11.5,0,0,0,6.546-.658c2-1.395,4-3.267,4.136-5.884.162-3.993,0-7.989.076-11.986-1.995.042-3.995.093-5.987,0a4.3,4.3,0,0,1-2.444-1.264c-2.36,2.084-5.7,1.106-8.54,1.267m-17.92,2.395c.009.842.009,1.687.015,2.529.524.367,1.045.74,1.571,1.12.958-.547,1.946-1.035,2.936-1.516a16.267,16.267,0,0,1,3.193,1.451c.484-.356.978-.709,1.471-1.055v-2.551a13.8,13.8,0,0,1-9.186.022m-6.891,4.107a5.437,5.437,0,0,0-3.953,4.429c-.218,2.029,0,4.076-.025,6.115q14.774-.006,29.546,0a10.389,10.389,0,0,1-1.933-2.875c-.822-2.484-.449-5.138-.533-7.707a37.1,37.1,0,0,0-5.7-.1,17.367,17.367,0,0,0-2.667,1.46c-1.133-.336-2.16-.951-3.256-1.378a14.323,14.323,0,0,1-3.046,1.36c-1.142-.176-1.86-1.476-3.06-1.476a31.14,31.14,0,0,0-5.369.176" transform="translate(0 0)" fill="#00b8bb"/>
      <path id="Path_5956" data-name="Path 5956" d="M449.686,432.628a.829.829,0,0,1,1.278.9c-.013,3.149.078,6.3-.046,9.444a.757.757,0,0,1-1.464-.147c-.1-2.805,0-5.616-.04-8.422.067-.587-.155-1.293.271-1.778" transform="translate(17.146 14.719)" fill="#00b8bb"/>
      <path id="Path_5957" data-name="Path 5957" d="M437.77,435.585c.887-.729,1.78,1.215.709,1.573-1,.265-1.371-.985-.709-1.573" transform="translate(7.349 17.145)" fill="#00b8bb"/>
      <path id="Path_5960" data-name="Path 5960" d="M437.667,439.218c-.62-.647.082-1.387.633-1.758.278.395.555.789.831,1.187-.367.462-.82,1.029-1.464.571" transform="translate(7.34 18.812)" fill="#00b8bb"/>
    </g>
  </g>
</svg>
