<svg id="icon" xmlns="http://www.w3.org/2000/svg" xmlns:xlink="http://www.w3.org/1999/xlink" width="23.225" height="24" viewBox="0 0 23.225 24">
  <defs>
    <clipPath id="clip-path">
      <rect id="Rectangle_11003" data-name="Rectangle 11003" width="23.225" height="24" fill="#878a8f"/>
    </clipPath>
  </defs>
  <g id="Group_21787" data-name="Group 21787" transform="translate(0 0)" clip-path="url(#clip-path)">
    <path id="Path_6209" data-name="Path 6209" d="M16.66,23.093H6.828l.891-1.282H16.66Zm2.1-14.422a.454.454,0,0,0-.492.411,7.464,7.464,0,0,1-2.525,4.962.462.462,0,0,0-.154.342V20.9H8.99V19.686a.454.454,0,0,0-.453-.454H4.9a1.344,1.344,0,0,1-1.343-1.343V15.424a.454.454,0,0,0-.454-.453H1.106L3.292,9.087A.445.445,0,0,0,3.319,8.9c-.01-.165-.016-.33-.016-.493a7.506,7.506,0,0,1,10.07-7.049.452.452,0,1,0,.31-.85A8.412,8.412,0,0,0,2.4,8.407c0,.151,0,.3.012.454L.028,15.267a.461.461,0,0,0,.052.418.458.458,0,0,0,.373.195H2.647v2.009a2.251,2.251,0,0,0,2.25,2.25H8.083V20.9h-.6a.449.449,0,0,0-.372.195l-1.52,2.19A.455.455,0,0,0,5.962,24H17.113a.455.455,0,0,0,.454-.456v-2.19a.454.454,0,0,0-.454-.453H16.5V14.586a8.354,8.354,0,0,0,2.674-5.424.454.454,0,0,0-.411-.492" transform="translate(0 0)" fill="#878a8f"/>
    <path id="Path_6210" data-name="Path 6210" d="M19.9,3.936l-3.568,2.73a.12.12,0,0,1-.193-.1V5.5a.452.452,0,0,0-.453-.453H14.466V4.335A1.176,1.176,0,0,0,13.29,3.16H12.04V2.9a.269.269,0,0,1,.268-.268h3.381a.454.454,0,0,0,.453-.454V1.11A.116.116,0,0,1,16.209,1a.113.113,0,0,1,.126.012L19.9,3.746a.114.114,0,0,1,.048.094.119.119,0,0,1-.048.1M13.29,6.485H9.911a.455.455,0,0,0-.454.454V8.006a.119.119,0,0,1-.193.1L5.7,5.371a.112.112,0,0,1-.046-.094.117.117,0,0,1,.046-.1l3.568-2.73a.117.117,0,0,1,.127-.013.115.115,0,0,1,.066.108V3.614a.454.454,0,0,0,.454.453h1.222v.715a1.177,1.177,0,0,0,1.175,1.175h1.25v.259a.267.267,0,0,1-.268.268m.268-1.435h-1.25a.269.269,0,0,1-.268-.268V4.067h1.25a.268.268,0,0,1,.268.268Zm6.9-2.025L16.887.295a1.028,1.028,0,0,0-1.652.816v.615H12.308A1.176,1.176,0,0,0,11.133,2.9V3.16h-.769V2.545a1.027,1.027,0,0,0-1.651-.816L5.145,4.459a1.028,1.028,0,0,0,0,1.633l3.568,2.73a1.018,1.018,0,0,0,.622.213,1.053,1.053,0,0,0,.457-.106,1.023,1.023,0,0,0,.571-.922V7.392H13.29a1.176,1.176,0,0,0,1.175-1.175V5.957h.769V6.57A1.028,1.028,0,0,0,16.263,7.6a1.033,1.033,0,0,0,.624-.211l3.568-2.731a1.026,1.026,0,0,0,0-1.631" transform="translate(2.367 0.041)" fill="#878a8f"/>
    <path id="Path_6211" data-name="Path 6211" d="M8.539,10.794H7.93a.453.453,0,1,0,0,.905h.609a1.538,1.538,0,0,0,1.538-1.537V8.586a1.541,1.541,0,0,0-1.538-1.54H7.93a.453.453,0,1,0,0,.905h.609a.634.634,0,0,1,.631.634v1.577a.632.632,0,0,1-.631.631" transform="translate(3.732 3.517)" fill="#878a8f"/>
  </g>
</svg>
