<svg xmlns="http://www.w3.org/2000/svg" xmlns:xlink="http://www.w3.org/1999/xlink" width="21.856" height="31.059" viewBox="0 0 21.856 31.059">
  <defs>
    <clipPath id="clip-path">
      <rect id="Rectangle_11002" data-name="Rectangle 11002" width="21.856" height="31.059" fill="#878a8f"/>
    </clipPath>
  </defs>
  <g id="icon" transform="translate(0 0)">
    <g id="Group_21785" data-name="Group 21785" transform="translate(0 0)" clip-path="url(#clip-path)">
      <path id="Path_6204" data-name="Path 6204" d="M2.857,2.29l1.133.832a.454.454,0,0,0,.49.031,5.592,5.592,0,0,1,1.182-.489.453.453,0,0,0,.325-.37L6.2.91H8.207L8.42,2.295a.452.452,0,0,0,.325.368,5.6,5.6,0,0,1,1.182.49.454.454,0,0,0,.49-.031l1.13-.829,1.42,1.42-.829,1.128a.454.454,0,0,0-.031.491,5.543,5.543,0,0,1,.489,1.183.454.454,0,0,0,.368.323l1.355.207a.378.378,0,0,0,.069.006.455.455,0,0,0,.069-.9l-1.072-.164a6.643,6.643,0,0,0-.344-.833l.892-1.214a.455.455,0,0,0-.045-.591L11.912,1.373a.454.454,0,0,0-.591-.045l-1.215.892a6.262,6.262,0,0,0-.832-.344L9.047.386A.454.454,0,0,0,8.6,0H5.809a.454.454,0,0,0-.449.386l-.228,1.49A6.262,6.262,0,0,0,4.3,2.22L3.084,1.329a.454.454,0,0,0-.591.045l-.232.232a.455.455,0,0,0,.6.685" transform="translate(0.851 0)" fill="#878a8f"/>
      <path id="Path_6205" data-name="Path 6205" d="M3.666,14.063a.462.462,0,0,0,.269-.087l.382-.281a.455.455,0,1,0-.539-.732l-.067.048-1.42-1.42.829-1.128a.454.454,0,0,0,.031-.491,5.561,5.561,0,0,1-.489-1.182.454.454,0,0,0-.368-.323L.91,8.253V6.244l1.385-.21a.461.461,0,0,0,.368-.326,5.531,5.531,0,0,1,.489-1.182.451.451,0,0,0-.031-.49l-.829-1.13.115-.115a.455.455,0,0,0-.644-.644l-.391.392a.454.454,0,0,0-.045.589l.892,1.217a6.355,6.355,0,0,0-.344.83L.385,5.4A.456.456,0,0,0,0,5.855V8.644a.455.455,0,0,0,.385.449l1.49.227a6.474,6.474,0,0,0,.344.833l-.892,1.214a.455.455,0,0,0,.045.591L3.344,13.93a.448.448,0,0,0,.322.133" transform="translate(0 0.806)" fill="#878a8f"/>
      <path id="Path_6206" data-name="Path 6206" d="M6.811,4.018A2.781,2.781,0,0,1,9,5.078a.455.455,0,1,0,.714-.564,3.7,3.7,0,0,0-6,4.33.455.455,0,0,0,.76-.5A2.8,2.8,0,0,1,6.811,4.018" transform="translate(1.243 1.243)" fill="#878a8f"/>
      <path id="Path_6207" data-name="Path 6207" d="M18.58,28.153H8.718l.895-1.287H18.58Zm2.114-14.466a.456.456,0,0,0-.5.413,7.485,7.485,0,0,1-2.53,4.977.459.459,0,0,0-.157.342v6.538H10.887V24.737a.453.453,0,0,0-.454-.455H6.781a1.348,1.348,0,0,1-1.345-1.35v-2.47a.455.455,0,0,0-.455-.455h-2l2.192-5.9a.456.456,0,0,0,.027-.189c-.011-.165-.017-.332-.017-.494a7.53,7.53,0,0,1,10.1-7.071.455.455,0,0,0,.312-.854A8.437,8.437,0,0,0,4.273,13.422c0,.15,0,.3.011.456L1.9,20.3a.455.455,0,0,0,.424.615h2.2v2.015a2.26,2.26,0,0,0,2.255,2.26h3.2v.764h-.6a.446.446,0,0,0-.374.2l-1.525,2.2a.456.456,0,0,0,.374.715H19.036a.456.456,0,0,0,.455-.455v-2.2a.455.455,0,0,0-.455-.455h-.615V19.621a8.393,8.393,0,0,0,2.684-5.44.453.453,0,0,0-.412-.494" transform="translate(0.748 1.995)" fill="#878a8f"/>
      <path id="Path_6208" data-name="Path 6208" d="M10.966,16.318h-.61a.454.454,0,1,0,0,.909h.61a1.546,1.546,0,0,0,1.544-1.543V14.1a1.546,1.546,0,0,0-1.544-1.544h-.61a.456.456,0,0,0,0,.911h.61a.634.634,0,0,1,.634.633v1.582a.635.635,0,0,1-.634.634" transform="translate(3.96 5.023)" fill="#878a8f"/>
    </g>
  </g>
</svg>
