<svg xmlns="http://www.w3.org/2000/svg" width="90" height="90" viewBox="0 0 90 90">
  <g id="icon" transform="translate(2586.813 144)">
    <g id="Ellipse_27" data-name="Ellipse 27" transform="translate(-2586.813 -144)" fill="none" stroke="#e39846" stroke-width="3">
      <circle cx="45" cy="45" r="45" stroke="none"/>
      <circle cx="45" cy="45" r="43.5" fill="none"/>
    </g>
    <g id="Group_21759" data-name="Group 21759" transform="translate(-2602.149 -544.116)">
      <path id="Path_5922" data-name="Path 5922" d="M73.746,418.163q3.308-.006,6.626,0c-.006,2.226,0,4.457-.006,6.681H78.338c-.006-1.111-.006-2.229-.011-3.344-2.81,2.814-5.547,5.683-8.416,8.435.189,1.028.4,2.252-.421,3.095-.815,1.1-2.307.907-3.493.741-1.213,1.928-3.306,3.014-4.67,4.811-.975.894-.092,2.5-1.192,3.367-.928,1.767-3.851,1.471-4.564-.317a3.565,3.565,0,0,1-.292-2.1c-1.288-2.224-3.748-3.348-5.117-5.494a8.373,8.373,0,0,1-2.959-.026c-1.218,1.96-3.291,3.11-4.706,4.889.734,1.624-.175,4.14-2.154,4.17-2.139.366-3.584-2.388-2.614-4.132.424-1.428,2.114-1.59,3.361-1.415,1.686-1.628,3.282-3.355,4.987-4.966a5.371,5.371,0,0,1,.249-2.356,2.787,2.787,0,0,1,4.625-.258c.594.813.37,1.884.421,2.82,2.073,1.339,3.25,3.646,5.306,5.017a4.9,4.9,0,0,1,2.582-.068c2.15-1.454,3.5-3.744,5.587-5.255-.172-1.126-.249-2.486.747-3.267.811-.836,2.018-.57,3.048-.5a31,31,0,0,1,4.068-4.153,26.774,26.774,0,0,1,4.361-4.268c-1.1,0-2.216,0-3.321,0-.006-.7-.006-1.4-.006-2.1m-7.131,12.009a1.334,1.334,0,0,0-.158,2c.617.824,2.358.226,2.263-.813.238-1.092-1.324-1.794-2.105-1.19m-18.535.217c-.739.232-.781,1.339-.507,1.948.664.758,2.322.67,2.424-.507a1.306,1.306,0,0,0-1.918-1.441m-8.572,8.789c-1.539.637-.3,2.929,1.1,2.158,1.679-.532.332-2.878-1.1-2.158m17.916.162c-1.264.666-.153,2.746,1.111,2.075,1.516-.628.2-2.976-1.111-2.075" transform="translate(2.353)" fill="#e39846"/>
      <path id="Path_5927" data-name="Path 5927" d="M51.666,428.632q7.2-.006,14.387,0v27.181h-14.4q-.054-13.588.011-27.181M56.7,430.6c0,.766,0,1.533,0,2.292h1.273c0-.76,0-1.526,0-2.288-.426,0-.851,0-1.273,0m3.05,0c0,.762,0,1.528,0,2.288h1.524V430.6c-.511,0-1.017,0-1.528,0m3.314,0c0,.762,0,1.528,0,2.288h1.209V430.6c-.4,0-.807,0-1.209,0m-9.3,4.351c0,.683,0,1.371.006,2.058.217.008.656.032.879.043,0-.719,0-1.439-.006-2.156-.217.017-.66.042-.879.055m2.929-.023c0,.7,0,1.4,0,2.1.421,0,.847,0,1.269,0,0-.7,0-1.4,0-2.092-.426,0-.856,0-1.277,0m3.054,0c0,.7,0,1.394,0,2.092.507,0,1.013,0,1.524,0v-2.1c-.511,0-1.017,0-1.528,0m3.321-.015c-.006.7-.006,1.409-.006,2.116.3,0,.909,0,1.209-.008,0-.7,0-1.4,0-2.086-.3-.006-.907-.017-1.207-.021m-9.3,4.17v2.124c.223.011.666.032.885.047v-2.22c-.223.011-.662.034-.885.049m2.929-.021v2.16h1.277c0-.724,0-1.441,0-2.16Zm3.054,0v2.16c.511,0,1.017,0,1.528.006v-2.171c-.511,0-1.017,0-1.528,0m3.314-.011v2.182l1.209-.015v-2.15c-.3-.006-.9-.011-1.209-.017m-9.291,4.24c-.006.681-.006,1.364-.006,2.048.219.013.662.045.885.06,0-.728-.006-1.452-.011-2.18-.219.019-.656.051-.868.072m2.927-.032c0,.7,0,1.4,0,2.1.421,0,.851,0,1.277,0,0-.7,0-1.4,0-2.095-.421,0-.847,0-1.269,0m3.054,0c0,.7,0,1.4,0,2.095.511,0,1.017,0,1.528,0v-2.1c-.511,0-1.017,0-1.524,0m3.31-.011c0,.709,0,1.413.006,2.12.3-.006.907-.015,1.207-.021,0-.7,0-1.39,0-2.088-.3,0-.907,0-1.209-.011M56.7,447.474c0,.694,0,1.392,0,2.092.315,0,.956.006,1.273.006v-2.094c-.421,0-.847,0-1.269,0m3.054,0c0,.7,0,1.392,0,2.088.511,0,1.017.006,1.535.006-.006-.7-.006-1.4-.006-2.1-.511,0-1.017,0-1.524,0m3.31,0c0,.7,0,1.4,0,2.094.3,0,.909-.006,1.213-.006,0-.7,0-1.392,0-2.092-.409,0-.811,0-1.209,0m-9.332,2.058c.232.011.7.04.93.053,0-.73-.006-1.458-.011-2.186-1.356-.228-.754,1.335-.92,2.133m.04,4.219c.217.013.649.034.868.045.011-.728.015-1.458.021-2.19h-.89c-.006.715-.006,1.426,0,2.146m2.922-2.139c0,.719,0,1.437,0,2.163.421,0,.847-.006,1.269-.006v-2.163c-.317,0-.958.006-1.273.006m3.018.045q.029,1.057.051,2.112c.5,0,1.009.006,1.513.006,0-.73,0-1.46.006-2.19-.528.021-1.051.049-1.571.072m3.346-.051q0,1.079.011,2.173c.3,0,.9,0,1.2-.011,0-.719,0-1.437,0-2.156-.3,0-.911-.006-1.218-.006" transform="translate(18.388 11.815)" fill="#e39846"/>
      <path id="Path_5929" data-name="Path 5929" d="M43.453,432.579q7.158-.006,14.321,0c.03,6.26.045,12.518,0,18.784-4.776-.011-9.549,0-14.325-.006Zm1.805,2.016c-.019.673-.04,1.343-.06,2.024.394.008.79.023,1.181.045,0-.683.006-1.36.011-2.039-.281-.011-.845-.026-1.132-.03m2.895.019c.006.679.011,1.356.017,2.033.462,0,.924.006,1.39.006,0-.683,0-1.364.009-2.043-.475,0-.947,0-1.415,0m3.38,0c0,.683.006,1.36.006,2.043h1.2c0-.683,0-1.364,0-2.043ZM45.269,438.7c-.019.728-.023,1.458-.023,2.184.285-.015.856-.04,1.141-.057-.006-.679-.006-1.369-.006-2.05-.275-.021-.834-.055-1.111-.077m2.895.051v2.1h1.4v-2.1c-.47,0-.939,0-1.4,0m3.376,0c0,.7-.006,1.4-.006,2.1.309.006.909.006,1.213.006,0-.7,0-1.4,0-2.107-.3,0-.9,0-1.2,0m3.306.015v2.067c.223.011.668.032.888.04,0-.711,0-1.43,0-2.141-.219.011-.664.023-.888.034m-9.61,5.966h1.147v-1.782H45.235Zm2.929-1.782v1.782h1.4c0-.594,0-1.19,0-1.782Zm3.376,0v1.786h1.2c0-.588,0-1.184,0-1.775-.4-.006-.8-.006-1.207-.011m-6.264,3.77c-.026.866-.04,1.73-.051,2.6.383,0,.771-.006,1.156-.006,0-.837,0-1.671.006-2.505-.277-.025-.834-.07-1.111-.092m2.888.06v2.537c.462,0,.93,0,1.4.006,0-.854,0-1.7,0-2.548-.47,0-.939,0-1.4,0m3.369,0c.006.847.006,1.69.006,2.544h1.2c0-.854,0-1.7,0-2.554-.3.006-.9.006-1.213.011m3.312.017c0,.83,0,1.658,0,2.49.215.026.649.07.862.092.015-.877.026-1.756.021-2.633-.219.013-.664.04-.888.051" transform="translate(9.16 16.271)" fill="#e39846"/>
      <path id="Path_5931" data-name="Path 5931" d="M35.357,436.108q7.037,0,14.07,0c.006,3.753.068,7.512.011,11.266H35.35c-.034-3.755.006-7.514.006-11.266m1.8,2.022c-.011.881-.017,1.762-.028,2.641.313-.021.622-.04.932-.053q-.029-1.3-.045-2.595c-.219,0-.647.006-.86.006m2.882.06c.019.856.036,1.709.04,2.561h1.264c0-.873,0-1.75,0-2.627l-1.309.066m3.34-.04c0,.866.006,1.739.006,2.6H44.65v-2.616l-1.273.015m3.25.008v2.563c.249.021.739.068.988.092.021-.9.032-1.8.026-2.693-.253.011-.76.03-1.013.038m-9.472,4.625c-.011.847-.017,1.69-.032,2.537.307,0,.617.009.928.015-.017-.862-.026-1.716-.043-2.576-.213.009-.641.019-.854.023m2.912.011c0,.849.006,1.69.006,2.537.421,0,.843,0,1.269,0,0-.851,0-1.692,0-2.546-.43,0-.851,0-1.279,0m3.31,0c.006.849.006,1.7.006,2.542H44.65v-2.552c-.319,0-.951.011-1.273.011m3.25.011v2.535c.347-.008.688-.019,1.034-.023-.011-.851-.021-1.7-.03-2.548-.249.011-.756.025-1,.036" transform="translate(0 20.253)" fill="#e39846"/>
    </g>
  </g>
</svg>
