<svg xmlns="http://www.w3.org/2000/svg" xmlns:xlink="http://www.w3.org/1999/xlink" width="26.529" height="31.289" viewBox="0 0 26.529 31.289">
  <defs>
    <clipPath id="clip-path">
      <rect id="Rectangle_11006" data-name="Rectangle 11006" width="26.529" height="31.289" transform="translate(0 0)" fill="#878a8f"/>
    </clipPath>
  </defs>
  <g id="Group_21790" data-name="Group 21790" transform="translate(0 0)" clip-path="url(#clip-path)">
    <path id="Path_6213" data-name="Path 6213" d="M6.729,26.4H24.7a1.834,1.834,0,0,0,1.833-1.833V13.22a.611.611,0,0,0-1.222,0V24.567a.612.612,0,0,1-.611.611H6.729a.612.612,0,0,1-.611-.611V1.833a.612.612,0,0,1,.611-.611H24.7a.612.612,0,0,1,.611.611V8.067a.611.611,0,0,0,1.222,0V1.833A1.834,1.834,0,0,0,24.7,0H6.729A1.835,1.835,0,0,0,4.9,1.833V24.567A1.835,1.835,0,0,0,6.729,26.4" fill="#878a8f"/>
    <path id="Path_6214" data-name="Path 6214" d="M25.428,11.806a1.1,1.1,0,1,0-.78-.323,1.11,1.11,0,0,0,.78.323" fill="#878a8f"/>
    <path id="Path_6215" data-name="Path 6215" d="M23.455,30.132a.628.628,0,1,0-.443-.184.63.63,0,0,0,.443.184" fill="#878a8f"/>
    <path id="Path_6216" data-name="Path 6216" d="M4.281,28.848H21.026a.611.611,0,0,0,0-1.222H4.281a.612.612,0,0,1-.611-.611V3.059a.611.611,0,0,0-1.222,0V27.015a1.835,1.835,0,0,0,1.833,1.833" fill="#878a8f"/>
    <path id="Path_6217" data-name="Path 6217" d="M1.833,31.289H21.022a.611.611,0,0,0,0-1.222H1.833a.612.612,0,0,1-.611-.611V5.5A.611.611,0,1,0,0,5.5V29.456a1.835,1.835,0,0,0,1.833,1.833" fill="#878a8f"/>
    <path id="Path_6218" data-name="Path 6218" d="M21.886,10.389H17.242V5.745h4.644ZM16.63,11.611H22.5A.612.612,0,0,0,23.108,11V5.133a.612.612,0,0,0-.611-.611H16.63a.612.612,0,0,0-.611.611V11a.612.612,0,0,0,.611.611" fill="#878a8f"/>
    <path id="Path_6219" data-name="Path 6219" d="M20.216,17.486h0a.61.61,0,0,1-.432-.179L18.6,16.12a.612.612,0,0,1,.865-.865l.755.756,1.625-1.625a.611.611,0,0,1,.864.864l-2.057,2.057a.608.608,0,0,1-.432.179" fill="#878a8f"/>
    <path id="Path_6220" data-name="Path 6220" d="M8.583,16.877h7.13c.338,0,.611-.372.611-.83s-.273-.831-.611-.831H8.583c-.337,0-.61.372-.61.831s.273.83.61.83" fill="#878a8f"/>
    <path id="Path_6221" data-name="Path 6221" d="M8.929,12.9h4.278c.337,0,.611-.425.611-.95s-.274-.951-.611-.951H8.929c-.337,0-.611.426-.611.951s.274.95.611.95" fill="#878a8f"/>
    <path id="Path_6222" data-name="Path 6222" d="M8.929,6.423h4.278c.337,0,.611-.425.611-.95s-.274-.951-.611-.951H8.929c-.337,0-.611.426-.611.951s.274.95.611.95" fill="#878a8f"/>
    <path id="Path_6223" data-name="Path 6223" d="M8.929,9.823h4.278c.337,0,.611-.425.611-.95s-.274-.951-.611-.951H8.929c-.337,0-.611.426-.611.951s.274.95.611.95" fill="#878a8f"/>
    <path id="Path_6224" data-name="Path 6224" d="M20.216,22.152h0a.61.61,0,0,1-.432-.179L18.6,20.785a.611.611,0,0,1,.865-.864l.755.756,1.625-1.625a.611.611,0,0,1,.864.864l-2.057,2.057a.608.608,0,0,1-.432.179" fill="#878a8f"/>
    <path id="Path_6225" data-name="Path 6225" d="M8.583,22.367h7.13a.8.8,0,0,0,0-1.558H8.583a.8.8,0,0,0,0,1.558" fill="#878a8f"/>
  </g>
</svg>
