<svg xmlns="http://www.w3.org/2000/svg" xmlns:xlink="http://www.w3.org/1999/xlink" width="18.274" height="25.969" viewBox="0 0 18.274 25.969">
  <defs>
    <clipPath id="clip-path">
      <rect id="Rectangle_11002" data-name="Rectangle 11002" width="18.274" height="25.969" fill="#878a8f"/>
    </clipPath>
  </defs>
  <g id="Group_21786" data-name="Group 21786" transform="translate(0 0)">
    <g id="Group_21785" data-name="Group 21785" transform="translate(0 0)" clip-path="url(#clip-path)">
      <path id="Path_6204" data-name="Path 6204" d="M2.738,1.915l.947.7a.38.38,0,0,0,.41.026,4.675,4.675,0,0,1,.988-.409.379.379,0,0,0,.272-.309L5.532.761H7.21l.178,1.158a.378.378,0,0,0,.272.308,4.679,4.679,0,0,1,.988.41.38.38,0,0,0,.41-.026L10,1.917,11.189,3.1l-.693.943a.38.38,0,0,0-.026.411,4.634,4.634,0,0,1,.409.989.38.38,0,0,0,.308.27l1.133.173a.316.316,0,0,0,.057,0,.38.38,0,0,0,.057-.756L11.538,5a5.554,5.554,0,0,0-.288-.7L12,3.292a.381.381,0,0,0-.037-.494L10.309,1.148a.38.38,0,0,0-.494-.037L8.8,1.856a5.236,5.236,0,0,0-.7-.288L7.913.323A.379.379,0,0,0,7.537,0H5.205A.379.379,0,0,0,4.83.323L4.639,1.569a5.236,5.236,0,0,0-.7.288L2.928,1.111a.38.38,0,0,0-.494.037l-.194.194a.381.381,0,0,0,.5.572" transform="translate(0.363 0)" fill="#878a8f"/>
      <path id="Path_6205" data-name="Path 6205" d="M3.066,12.088a.387.387,0,0,0,.225-.073l.32-.235a.38.38,0,1,0-.451-.612l-.056.04L1.916,10.021l.693-.943a.379.379,0,0,0,.026-.411,4.65,4.65,0,0,1-.409-.988.38.38,0,0,0-.308-.27L.761,7.231V5.551l1.158-.176A.386.386,0,0,0,2.226,5.1a4.625,4.625,0,0,1,.409-.988.377.377,0,0,0-.026-.41l-.693-.945.1-.1a.381.381,0,1,0-.538-.538l-.327.328a.379.379,0,0,0-.037.493l.746,1.017a5.313,5.313,0,0,0-.288.694L.322,4.849A.381.381,0,0,0,0,5.226V7.557a.38.38,0,0,0,.322.376l1.245.19a5.413,5.413,0,0,0,.288.7L1.11,9.834a.381.381,0,0,0,.037.494L2.8,11.977a.374.374,0,0,0,.269.111" transform="translate(0 0.344)" fill="#878a8f"/>
      <path id="Path_6206" data-name="Path 6206" d="M6.2,3.869a2.325,2.325,0,0,1,1.832.886.38.38,0,1,0,.6-.472A3.1,3.1,0,0,0,3.614,7.9a.38.38,0,0,0,.636-.418A2.337,2.337,0,0,1,6.2,3.869" transform="translate(0.53 0.53)" fill="#878a8f"/>
      <path id="Path_6207" data-name="Path 6207" d="M15.841,24.357H7.6l.748-1.076h7.5Zm1.767-12.1a.381.381,0,0,0-.414.345,6.258,6.258,0,0,1-2.115,4.161.384.384,0,0,0-.131.286V22.52H9.409V21.5a.379.379,0,0,0-.379-.38H5.976a1.127,1.127,0,0,1-1.125-1.128V17.927a.38.38,0,0,0-.38-.38H2.8l1.833-4.935a.381.381,0,0,0,.022-.158c-.009-.138-.014-.277-.014-.413a6.3,6.3,0,0,1,8.445-5.912.38.38,0,0,0,.261-.714A7.055,7.055,0,0,0,3.88,12.04c0,.125,0,.254.009.382L1.894,17.793a.38.38,0,0,0,.355.514H4.09v1.684a1.89,1.89,0,0,0,1.886,1.889H8.65v.639h-.5a.373.373,0,0,0-.313.164L6.558,24.52a.381.381,0,0,0,.313.6h9.352a.381.381,0,0,0,.38-.38V22.9a.38.38,0,0,0-.38-.38h-.514v-5.3a7.017,7.017,0,0,0,2.244-4.549.379.379,0,0,0-.344-.413" transform="translate(0.319 0.851)" fill="#878a8f"/>
      <path id="Path_6208" data-name="Path 6208" d="M10.792,15.7h-.51a.38.38,0,1,0,0,.76h.51a1.293,1.293,0,0,0,1.291-1.29V13.849a1.293,1.293,0,0,0-1.291-1.291h-.51a.381.381,0,0,0,0,.762h.51a.53.53,0,0,1,.53.529v1.323a.531.531,0,0,1-.53.53" transform="translate(1.688 2.141)" fill="#878a8f"/>
    </g>
  </g>
</svg>
