<svg xmlns="http://www.w3.org/2000/svg" xmlns:xlink="http://www.w3.org/1999/xlink" width="24" height="24" viewBox="0 0 24 24">
  <defs>
    <clipPath id="clip-path">
      <rect id="Rectangle_11001" data-name="Rectangle 11001" width="24" height="24" fill="#878a8f"/>
    </clipPath>
  </defs>
  <g id="icon" transform="translate(0 0)">
    <g id="Group_21783" data-name="Group 21783" transform="translate(0 0)" clip-path="url(#clip-path)">
      <path id="Union_7" data-name="Union 7" d="M-16760.908-435.982a1.906,1.906,0,0,1,1.912-1.9,1.908,1.908,0,0,1,1.91,1.9,1.907,1.907,0,0,1-1.91,1.9A1.905,1.905,0,0,1-16760.908-435.982Zm.6,0a1.31,1.31,0,0,0,1.314,1.3,1.309,1.309,0,0,0,1.309-1.3,1.31,1.31,0,0,0-1.309-1.3A1.311,1.311,0,0,0-16760.311-435.982Zm3.764-.37a.3.3,0,0,1,.205-.37,9.575,9.575,0,0,0,1.979-.8.3.3,0,0,1,.408.122.307.307,0,0,1-.121.408,10.483,10.483,0,0,1-2.1.85.283.283,0,0,1-.078.013A.3.3,0,0,1-16756.547-436.352Zm-5.426.164a10.486,10.486,0,0,1-2.088-.884.3.3,0,0,1-.113-.408.3.3,0,0,1,.408-.114,9.834,9.834,0,0,0,1.965.829.3.3,0,0,1,.2.375.3.3,0,0,1-.291.215A.671.671,0,0,1-16761.973-436.188Zm10.105-.846a1.881,1.881,0,0,1-1.342-.556,1.9,1.9,0,0,1-.557-1.347,1.888,1.888,0,0,1,.564-1.347,1.885,1.885,0,0,1,1.348-.564h0a1.881,1.881,0,0,1,1.342.556,1.9,1.9,0,0,1,.557,1.347,1.888,1.888,0,0,1-.564,1.347,1.9,1.9,0,0,1-1.348.564Zm-.908-2.828a1.305,1.305,0,0,0-.389.926,1.279,1.279,0,0,0,.379.922,1.286,1.286,0,0,0,.918.379h0a1.306,1.306,0,0,0,.922-.383,1.305,1.305,0,0,0,.389-.926,1.279,1.279,0,0,0-.379-.922,1.286,1.286,0,0,0-.918-.379h0A1.288,1.288,0,0,0-16752.775-439.862Zm-13.363,2.828a1.916,1.916,0,0,1-1.348-.564,1.908,1.908,0,0,1-.561-1.347,1.88,1.88,0,0,1,.557-1.347,1.936,1.936,0,0,1,1.346-.556,1.892,1.892,0,0,1,1.348.564,1.9,1.9,0,0,1,.561,1.347,1.864,1.864,0,0,1-.557,1.347,1.879,1.879,0,0,1-1.338.556Zm-.932-2.833a1.263,1.263,0,0,0-.373.918,1.293,1.293,0,0,0,.383.926,1.3,1.3,0,0,0,.926.387h0a1.293,1.293,0,0,0,.918-.379,1.3,1.3,0,0,0,.379-.922,1.3,1.3,0,0,0-.389-.926,1.319,1.319,0,0,0-.926-.387h0A1.307,1.307,0,0,0-16767.07-439.866Zm4.205.471a.3.3,0,0,1-.109-.408l1.074-1.852-2.383-4.129H-16766a.3.3,0,0,1-.3-.3.3.3,0,0,1,.3-.3h1.721l2.383-4.129-1.074-1.852a.307.307,0,0,1,.109-.412.306.306,0,0,1,.412.114l1.07,1.852h4.764l1.074-1.852a.3.3,0,0,1,.408-.114.3.3,0,0,1,.109.412l-1.07,1.852,2.379,4.129h1.727a.3.3,0,0,1,.3.3.3.3,0,0,1-.3.3h-1.727l-2.379,4.129,1.07,1.852a.3.3,0,0,1-.109.408.293.293,0,0,1-.408-.109l-1.074-1.852h-4.764l-1.07,1.852a.3.3,0,0,1-.26.152A.3.3,0,0,1-16762.865-439.4Zm-.9-6.688,2.383,4.125h4.764l2.383-4.125-2.383-4.125h-4.764Zm13.406,5.139a.3.3,0,0,1-.115-.408,10.1,10.1,0,0,0,.83-1.966.3.3,0,0,1,.375-.206.3.3,0,0,1,.2.375,10.289,10.289,0,0,1-.879,2.088.3.3,0,0,1-.262.156A.3.3,0,0,1-16750.359-440.944Zm-17.762-.257a10.169,10.169,0,0,1-.855-2.1.3.3,0,0,1,.207-.375.3.3,0,0,1,.369.21,9.862,9.862,0,0,0,.8,1.974.3.3,0,0,1-.123.408.285.285,0,0,1-.143.038A.3.3,0,0,1-16768.121-441.2Zm17.318-4.882a1.911,1.911,0,0,1,1.9-1.911,1.906,1.906,0,0,1,1.9,1.911,1.906,1.906,0,0,1-1.9,1.911A1.911,1.911,0,0,1-16750.8-446.083Zm.6,0a1.3,1.3,0,0,0,1.3,1.309,1.305,1.305,0,0,0,1.3-1.309,1.305,1.305,0,0,0-1.3-1.309A1.3,1.3,0,0,0-16750.2-446.083Zm-20.8,0a1.91,1.91,0,0,1,1.9-1.911,1.908,1.908,0,0,1,1.9,1.911,1.905,1.905,0,0,1-1.9,1.911A1.907,1.907,0,0,1-16771-446.083Zm.6,0a1.306,1.306,0,0,0,1.3,1.313,1.31,1.31,0,0,0,1.3-1.313,1.307,1.307,0,0,0-1.3-1.309A1.3,1.3,0,0,0-16770.4-446.083Zm20.8-2.694a9.8,9.8,0,0,0-.809-1.978.307.307,0,0,1,.121-.408.305.305,0,0,1,.41.122,10.536,10.536,0,0,1,.854,2.1.3.3,0,0,1-.207.37.671.671,0,0,1-.084.013A.3.3,0,0,1-16749.6-448.777Zm-19.131.059a.294.294,0,0,1-.2-.37,10.226,10.226,0,0,1,.879-2.092.3.3,0,0,1,.408-.114.3.3,0,0,1,.119.408,9.881,9.881,0,0,0-.834,1.966.3.3,0,0,1-.287.215A.271.271,0,0,1-16768.729-448.718Zm16.875-2.6a1.9,1.9,0,0,1-1.348-.56,1.9,1.9,0,0,1-.564-1.351,1.866,1.866,0,0,1,.561-1.343,1.85,1.85,0,0,1,1.334-.56h.008a1.909,1.909,0,0,1,1.348.564,1.911,1.911,0,0,1,.564,1.347,1.9,1.9,0,0,1-.557,1.347,1.9,1.9,0,0,1-1.338.556Zm-.932-2.833a1.264,1.264,0,0,0-.379.922,1.294,1.294,0,0,0,.385.926,1.319,1.319,0,0,0,.926.387h.008a1.3,1.3,0,0,0,.914-.383,1.286,1.286,0,0,0,.379-.918,1.305,1.305,0,0,0-.389-.926,1.319,1.319,0,0,0-.926-.387h0A1.284,1.284,0,0,0-16752.785-454.152Zm-13.367,2.833a1.9,1.9,0,0,1-1.338-.551,1.874,1.874,0,0,1-.557-1.351,1.915,1.915,0,0,1,.561-1.347,1.9,1.9,0,0,1,1.352-.56h0a1.879,1.879,0,0,1,1.338.556,1.876,1.876,0,0,1,.561,1.347,1.911,1.911,0,0,1-.564,1.347,1.894,1.894,0,0,1-1.348.56Zm-.908-2.824a1.33,1.33,0,0,0-.389.926,1.31,1.31,0,0,0,.379.922,1.293,1.293,0,0,0,.918.379h0a1.3,1.3,0,0,0,.926-.387,1.3,1.3,0,0,0,.389-.926,1.31,1.31,0,0,0-.379-.922,1.289,1.289,0,0,0-.918-.375h0A1.3,1.3,0,0,0-16767.061-454.143Zm6.152-2.037a1.9,1.9,0,0,1,1.906-1.9,1.909,1.909,0,0,1,1.916,1.9,1.908,1.908,0,0,1-1.916,1.9A1.9,1.9,0,0,1-16760.908-456.18Zm.6,0a1.309,1.309,0,0,0,1.309,1.3,1.31,1.31,0,0,0,1.314-1.3,1.311,1.311,0,0,0-1.314-1.3A1.31,1.31,0,0,0-16760.311-456.18Zm6.078,1.536a9.849,9.849,0,0,0-1.965-.833.293.293,0,0,1-.2-.37.3.3,0,0,1,.375-.2,10.437,10.437,0,0,1,2.084.88.3.3,0,0,1,.113.408.289.289,0,0,1-.256.156A.312.312,0,0,1-16754.232-454.644Zm-9.811-.194a.3.3,0,0,1,.121-.4,10.255,10.255,0,0,1,2.1-.854.3.3,0,0,1,.369.206.3.3,0,0,1-.205.37,9.575,9.575,0,0,0-1.979.8.308.308,0,0,1-.143.038A.305.305,0,0,1-16764.043-454.838Z" transform="translate(16771 458.082)" fill="#878a8f" stroke="#878a8f" stroke-miterlimit="10" stroke-width="0.3"/>
    </g>
  </g>
</svg>
