<svg xmlns="http://www.w3.org/2000/svg" width="90" height="90" viewBox="0 0 90 90">
  <g id="icon" transform="translate(2586.813 144)">
    <g id="Ellipse_27" data-name="Ellipse 27" transform="translate(-2586.813 -144)" fill="none" stroke="#4cb374" stroke-width="3">
      <circle cx="45" cy="45" r="45" stroke="none"/>
      <circle cx="45" cy="45" r="43.5" fill="none"/>
    </g>
    <g id="Group_21757" data-name="Group 21757" transform="translate(-2731.282 -542.163)">
      <path id="Path_6002" data-name="Path 6002" d="M199.872,415.493h5.9c0,2.063,0,4.126,0,6.185h-1.658c0-1.01,0-2.023.013-3.029-1.915,1.5-3.36,3.471-5.152,5.106-2.378,2.057-4.3,4.583-6.734,6.583-2.048,2.509-4.673,4.447-6.74,6.934a24.839,24.839,0,0,0-3.423-3.494c-1.882-1.525-3.123-3.7-5.14-5.059a27.06,27.06,0,0,0-2.2,2.351c-1.224,1.546-2.943,2.587-4.224,4.086a23.161,23.161,0,0,1-3.056,3.171c-.413-.413-.82-.822-1.227-1.231,3.55-3.621,7.165-7.176,10.749-10.762a40.017,40.017,0,0,1,5.163,5.075c1.158,1.014,2.282,2.073,3.344,3.19,1.218-1.41,2.837-2.4,3.978-3.867,1.85-2.263,4.308-3.913,6.108-6.223,2.5-2.219,4.7-4.706,7.072-7.063h-2.776Z" transform="translate(2.544 0)" fill="#4cb374"/>
      <path id="Path_6005" data-name="Path 6005" d="M205.853,421.727c2.785,0,5.578,0,8.361,0v37.11c.611,0,1.224,0,1.834,0v1.66H163.47v-1.663c.609,0,1.224,0,1.832,0,0-3.917-.006-7.829,0-11.74q4.181.006,8.359,0v11.736c.59,0,1.181,0,1.773,0q.006-12.686,0-25.372h8.363v25.368h1.773v-20.27q4.178-.006,8.363,0,0,10.139,0,20.274l1.777,0V426.825h8.356v32.012l1.775,0q.02-18.555,0-37.114m1.661,1.715q0,17.7,0,35.395,2.518.006,5.038,0,.006-17.7,0-35.389-2.518-.009-5.038-.006m-10.136,5.04v30.358q2.518-.006,5.038,0V428.482ZM177.1,435.414v23.422q2.521.006,5.038,0V435.414Zm10.14,4.812q-.006,9.3,0,18.611c1.675,0,3.358,0,5.034,0q.006-9.306,0-18.611Zm-20.22,8.536v10.075q2.492.006,4.985,0-.009-5.036,0-10.075c-1.661-.006-3.327-.006-4.985,0" transform="translate(0 5.739)" fill="#4cb374"/>
    </g>
  </g>
</svg>
