<svg xmlns="http://www.w3.org/2000/svg" xmlns:xlink="http://www.w3.org/1999/xlink" width="27.793" height="27.793" viewBox="0 0 27.793 27.793">
  <defs>
    <clipPath id="clip-path">
      <rect id="Rectangle_10983" data-name="Rectangle 10983" width="27.793" height="27.793" fill="#777b81"/>
    </clipPath>
  </defs>
  <g id="icon" transform="translate(0 0)">
    <g id="Group_21762" data-name="Group 21762" transform="translate(0 0)" clip-path="url(#clip-path)">
      <path id="Path_6165" data-name="Path 6165" d="M21.813,10.912h2.714V9.392H21.813Zm-.543-2.605h3.8a.543.543,0,0,1,.543.543v2.606a.543.543,0,0,1-.543.543h-3.8a.542.542,0,0,1-.543-.543V8.85a.542.542,0,0,1,.543-.543" transform="translate(-0.426 -0.171)" fill="#777b81"/>
      <path id="Path_6166" data-name="Path 6166" d="M12.847,8.307h5.646a.543.543,0,0,1,0,1.085H12.847a.543.543,0,1,1,0-1.085" transform="translate(-0.253 -0.171)" fill="#777b81"/>
      <path id="Path_6167" data-name="Path 6167" d="M12.847,10.967h5.646a.543.543,0,0,1,0,1.085H12.847a.543.543,0,1,1,0-1.085" transform="translate(-0.253 -0.225)" fill="#777b81"/>
      <path id="Path_6168" data-name="Path 6168" d="M12.17,21.566h2.714v-1.52H12.17Zm-.543-2.605h3.8a.543.543,0,0,1,.543.543V22.11a.543.543,0,0,1-.543.543h-3.8a.543.543,0,0,1-.544-.543V19.5a.543.543,0,0,1,.544-.543" transform="translate(-0.228 -0.39)" fill="#777b81"/>
      <path id="Path_6169" data-name="Path 6169" d="M9.391,19.5a.543.543,0,0,1-.543.543H3.2a.543.543,0,1,1,0-1.085H8.848a.543.543,0,0,1,.543.543" transform="translate(-0.055 -0.39)" fill="#777b81"/>
      <path id="Path_6170" data-name="Path 6170" d="M3.2,21.622H8.849a.543.543,0,0,1,0,1.085H3.2a.543.543,0,1,1,0-1.085" transform="translate(-0.055 -0.444)" fill="#777b81"/>
      <path id="Path_6171" data-name="Path 6171" d="M1.085,23.79H17.263V17.051H1.085ZM26.708,6.615H10.531v6.738H26.708ZM9.716,2.932H22.365V1.086H9.716Zm-4.288,0h3.2V1.086h-3.2ZM.543,15.966h3.8V12.434a.543.543,0,1,1,1.085,0v3.532H17.8a.543.543,0,0,1,.544.543v7.824a.543.543,0,0,1-.544.543H5.428v1.833H22.365V14.439H9.989a.544.544,0,0,1-.545-.543V6.073a.544.544,0,0,1,.545-.543H22.365V4.017H5.428V7.549a.543.543,0,1,1-1.085,0V.543A.543.543,0,0,1,4.886,0H22.907a.543.543,0,0,1,.544.543V5.53h3.8a.542.542,0,0,1,.542.543V13.9a.542.542,0,0,1-.542.543h-3.8V27.25a.543.543,0,0,1-.544.543H4.886a.543.543,0,0,1-.544-.543V24.875H.543A.543.543,0,0,1,0,24.333V16.509a.543.543,0,0,1,.543-.543" transform="translate(0 0)" fill="#777b81"/>
      <path id="Path_6172" data-name="Path 6172" d="M4.976,9.64a.543.543,0,1,1-.384.16.548.548,0,0,1,.384-.16" transform="translate(-0.091 -0.198)" fill="#777b81"/>
    </g>
  </g>
</svg>
