<svg xmlns="http://www.w3.org/2000/svg" width="255.137" height="140.387" viewBox="0 0 255.137 140.387">
  <g id="Jadarat_LOGO-01" transform="translate(-163.094 -262.123)">
    <g id="_4688c7ff" data-name="#4688c7ff" transform="translate(163.094 262.123)">
      <path id="Path_1" data-name="Path 1" d="M354.248,262.126q22.24,0,44.476,0-.011,22.234-.007,44.469-8.973,0-17.949,0-.005-13.267,0-26.533c-8.837-.01-17.675,0-26.512,0Q354.241,271.09,354.248,262.126Z" transform="translate(-299.78 -262.123)" fill="#4688c7"/>
      <path id="Path_2" data-name="Path 2" d="M199.55,390.125q9.6-.005,19.189,0A34.728,34.728,0,0,0,253.4,424.792q0,9.6,0,19.2a53.768,53.768,0,0,1-32.758-11.14,54.338,54.338,0,0,1-13.58-15.305A53.684,53.684,0,0,1,199.55,390.125Z" transform="translate(-199.55 -345.056)" fill="#4688c7"/>
      <path id="Path_3" data-name="Path 3" d="M586.187,437.185q4.573-.005,9.151,0,.005,19.055,0,38.11-4.573.005-9.151,0Q586.187,456.24,586.187,437.185Z" transform="translate(-450.056 -375.546)" fill="#4688c7"/>
      <path id="Path_4" data-name="Path 4" d="M678.685,437.187q4.568,0,9.13,0-.005,19.06,0,38.113c-3.042,0-6.084,0-9.126,0Q678.68,456.242,678.685,437.187Z" transform="translate(-509.986 -375.548)" fill="#4688c7"/>
      <path id="Path_5" data-name="Path 5" d="M602.492,469.311c3.045,0,6.091-.011,9.137,0-.049,14.358.085,28.723-.07,43.082q-12.686,0-25.371,0-.005-4.579,0-9.154c5.436-.007,10.872.007,16.309-.007Q602.485,486.271,602.492,469.311Z" transform="translate(-450.056 -396.36)" fill="#4688c7"/>
      <path id="Path_6" data-name="Path 6" d="M421.249,473.25q8.419,0,16.83,0,.011,4.563,0,9.126c-2.567.007-5.133,0-7.7,0q-.005,3.565,0,7.126,20.9.005,41.807,0c.007,3.052,0,6.105,0,9.158q-25.467.005-50.933,0Q421.235,485.958,421.249,473.25Z" transform="translate(-343.191 -398.915)" fill="#4688c7"/>
      <path id="Path_7" data-name="Path 7" d="M733.784,473.25h16.344c.01,5.419,0,10.841.007,16.263q17.9-.005,35.8,0,.005-3.565,0-7.126-13.631-.005-27.259,0-.01-4.563,0-9.13h36.413q.005,16.282,0,32.568c-3.038.07-6.095-.141-9.115.109-.144-.109-.285-.211-.422-.3l.44.282c-.116-2.408-.025-4.824-.053-7.235q-30.5-.016-61-.007-.005-4.574,0-9.151,8.017-.005,16.034,0c.007-2.376,0-4.753,0-7.126-2.4-.011-4.8,0-7.193-.007Q733.778,477.816,733.784,473.25Z" transform="translate(-539.952 -398.915)" fill="#4688c7"/>
    </g>
    <g id="_264194ff" data-name="#264194ff" transform="translate(202.376 292.647)">
      <path id="Path_8" data-name="Path 8" d="M323.809,348.937a14.563,14.563,0,1,1-12.26,10.925A14.592,14.592,0,0,1,323.809,348.937Z" transform="translate(-311.119 -348.816)" fill="#264194"/>
      <path id="Path_9" data-name="Path 9" d="M480.358,473.372a4.575,4.575,0,1,1-3.207,5.415A4.592,4.592,0,0,1,480.358,473.372Z" transform="translate(-418.612 -429.394)" fill="#264194"/>
      <path id="Path_10" data-name="Path 10" d="M510.139,473.351a4.575,4.575,0,1,1-3.3,5.415A4.593,4.593,0,0,1,510.139,473.351Z" transform="translate(-437.848 -429.398)" fill="#264194"/>
      <path id="Path_11" data-name="Path 11" d="M878.382,564.418a4.559,4.559,0,0,1,5.728-.6c.137.091.278.194.422.3a4.572,4.572,0,1,1-6.151.292Z" transform="translate(-677.797 -487.637)" fill="#264194"/>
      <path id="Path_12" data-name="Path 12" d="M425.124,616.063l1.162,0c0,3.627.021,7.25-.011,10.872a4.785,4.785,0,0,1-2.926,4.6,5.22,5.22,0,0,1-6.38-2.641c.32-.2.641-.4.961-.6a5.656,5.656,0,0,0,1.993,2.053,3.643,3.643,0,0,0,3.958-.387,4.468,4.468,0,0,0,1.236-3.355C425.131,623.091,425.117,619.577,425.124,616.063Z" transform="translate(-379.701 -521.966)" fill="#264194"/>
      <path id="Path_13" data-name="Path 13" d="M484.37,631.393q3.607-7.822,7.232-15.643h1.12q3.628,7.822,7.235,15.643c-.32,0-.965,0-1.285,0-.676-1.451-1.313-2.915-1.993-4.359-3.046.021-6.095-.039-9.14.032-.627,1.451-1.292,2.887-1.951,4.327l-1.218,0m3.7-5.412h8.119q-2.012-4.463-4.046-8.911Q490.095,621.517,488.07,625.982Z" transform="translate(-423.371 -521.766)" fill="#264194"/>
      <path id="Path_14" data-name="Path 14" d="M571.812,616.014c3.109.155,6.45-.539,9.341.951a7.712,7.712,0,0,1,.018,13.6c-2.884,1.514-6.243.828-9.359.979q-.011-7.763,0-15.531m1.187,1.1q0,6.665,0,13.33c1.5-.007,3.007.028,4.51-.01a6.646,6.646,0,0,0,3.468-12.267C578.594,616.631,575.664,617.226,573,617.113Z" transform="translate(-480.023 -521.917)" fill="#264194"/>
      <path id="Path_15" data-name="Path 15" d="M648.36,631.393q3.612-7.827,7.235-15.643h1.116q3.628,7.816,7.235,15.643c-.32,0-.965,0-1.285,0-.676-1.451-1.313-2.915-1.989-4.359-3.017-.014-6.035.032-9.049-.025-.761,1.422-1.345,2.929-2.046,4.383l-1.218,0m3.7-5.412c2.708,0,5.415.007,8.123-.007q-2.028-4.452-4.049-8.9Q654.085,621.517,652.06,625.982Z" transform="translate(-529.622 -521.766)" fill="#264194"/>
      <path id="Path_16" data-name="Path 16" d="M735.812,616.061q3.211-.005,6.422,0a6.27,6.27,0,0,1,4.454,1.51,4.255,4.255,0,0,1-.088,6.017,6.438,6.438,0,0,1-3.229,1.4q2.567,3.3,5.109,6.609c-.563-.123-1.38.289-1.739-.317q-2.34-3.042-4.672-6.091c-1.69-.039-3.38-.014-5.07-.014-.007,2.137,0,4.278,0,6.419h-1.183q-.01-7.764,0-15.531m1.187,1.1q-.005,3.465,0,6.929c1.75,0,3.5,0,5.253,0a5.1,5.1,0,0,0,3.394-1.1,3.279,3.279,0,0,0,.06-4.792,5.148,5.148,0,0,0-3.489-1.042C740.478,617.159,738.738,617.156,737,617.159Z" transform="translate(-586.281 -521.964)" fill="#264194"/>
      <path id="Path_17" data-name="Path 17" d="M818.715,615.75h1.116q3.628,7.816,7.239,15.643c-.324,0-.968,0-1.292,0-.68-1.454-1.3-2.933-2.011-4.37-3.024.025-6.049.007-9.073.007-.683,1.444-1.324,2.912-1.993,4.362l-1.222,0q3.613-7.827,7.235-15.643m-3.535,10.232H823.3c-1.341-2.975-2.7-5.943-4.045-8.915Q817.2,621.519,815.18,625.982Z" transform="translate(-635.309 -521.766)" fill="#264194"/>
      <path id="Path_18" data-name="Path 18" d="M890.12,616.067q5.994-.016,12,0c0,.275,0,.82,0,1.1-1.8.007-3.609,0-5.408,0-.007,4.809,0,9.616,0,14.425-.278.007-.838.024-1.116.035-.123-4.817-.011-9.644-.053-14.46-1.8,0-3.605,0-5.408,0C890.124,616.887,890.12,616.338,890.12,616.067Z" transform="translate(-686.261 -521.966)" fill="#264194"/>
    </g>
  </g>
</svg>
