<svg id="linkedin" xmlns="http://www.w3.org/2000/svg" width="18.783" height="17.936" viewBox="0 0 18.783 17.936">
  <rect id="base" width="17.816" height="17.816" transform="translate(0.483 0)" fill="none"/>
  <g id="linkedin_1_" transform="translate(0 0.042)">
    <path id="linkedin-2" data-name="linkedin" d="M.234,19.907h4.2V7.987H.234Zm13.98-12.3a4.273,4.273,0,0,0-3.8,1.981V7.987H6.219V19.907h4.194V13.43c0-1.367.657-2.7,2.229-2.7S14.6,12.062,14.6,13.4v6.511h4.182V13.131c0-4.708-2.829-5.52-4.568-5.52ZM2.343,2.013A2.232,2.232,0,0,0,0,4.117a2.231,2.231,0,0,0,2.343,2.1,2.231,2.231,0,0,0,2.341-2.1,2.232,2.232,0,0,0-2.341-2.1Z" transform="translate(0 -2.013)" fill="#878a8f"/>
  </g>
</svg>
