<svg xmlns="http://www.w3.org/2000/svg" width="20" height="20" viewBox="0 0 20 20">
  <g id="logo-twitter" transform="translate(0.268 0.211)">
    <rect id="base" width="20" height="20" transform="translate(-0.268 -0.211)" fill="none"/>
    <path id="Path_95" data-name="Path 95" d="M34.879,65.789a7.937,7.937,0,0,1-2.224.6,3.835,3.835,0,0,0,1.7-2.108,7.778,7.778,0,0,1-2.461.924A3.9,3.9,0,0,0,29.07,64,3.842,3.842,0,0,0,25.2,67.811a3.666,3.666,0,0,0,.1.869A11.04,11.04,0,0,1,17.313,64.7a3.764,3.764,0,0,0-.527,1.915,3.8,3.8,0,0,0,1.731,3.174,3.835,3.835,0,0,1-1.761-.476v.047a3.829,3.829,0,0,0,3.107,3.737,3.962,3.962,0,0,1-1.02.134,3.712,3.712,0,0,1-.728-.071,3.871,3.871,0,0,0,3.62,2.647,7.85,7.85,0,0,1-4.811,1.632A7.983,7.983,0,0,1,16,77.381a11.039,11.039,0,0,0,16.959-9.125c0-.165,0-.33-.012-.492A7.807,7.807,0,0,0,34.879,65.789Z" transform="translate(-15.372 -61.748)" fill="#243c96"/>
  </g>
</svg>
