<?xml version="1.0" encoding="utf-8"?>
<!-- Generator: Adobe Illustrator 25.0.1, SVG Export Plug-In . SVG Version: 6.00 Build 0)  -->
<svg version="1.1" id="Layer_1" xmlns="http://www.w3.org/2000/svg" xmlns:xlink="http://www.w3.org/1999/xlink" x="0px" y="0px"
	 viewBox="0 0 20 20" style="enable-background:new 0 0 20 20;" xml:space="preserve">
<style type="text/css">
	.st0{fill:none;}
	.st1{fill:#243C96;}
</style>
<g id="logo-youtube" transform="translate(0 -0.127)">
	<rect id="base" x="0.1" y="0.1" class="st0" width="20" height="20"/>
	<path id="Path_96" class="st1" d="M19.9,6.1C19.9,4.5,18.6,3,17,3c-2.2-0.1-4.4-0.1-6.7-0.1H9.6c-2.3,0-4.5,0-6.7,0.1
		C1.3,3,0,4.5,0,6.1c-0.1,1.4-0.1,2.8-0.1,4.2s0,2.8,0.1,4.2c-0.1,1.7,1.2,3.1,2.9,3.2c2.3,0.1,4.6,0.2,7,0.1s4.7,0,7-0.1
		c1.7-0.1,3-1.5,2.9-3.2c0.1-1.4,0.1-2.8,0.1-4.2S20,7.5,19.9,6.1z M8,14.2V6.5l5.7,3.9L8,14.2z"/>
</g>
</svg>
