<?xml version="1.0" encoding="utf-8"?>
<!-- Generator: Adobe Illustrator 25.0.1, SVG Export Plug-In . SVG Version: 6.00 Build 0)  -->
<svg version="1.1" id="Layer_1" xmlns="http://www.w3.org/2000/svg" xmlns:xlink="http://www.w3.org/1999/xlink" x="0px" y="0px"
	 viewBox="0 0 20 20" style="enable-background:new 0 0 20 20;" xml:space="preserve">
<style type="text/css">
	.st0{fill:none;}
	.st1{fill:#243C96;}
</style>
<g id="logo-twitter" transform="translate(0.268 0.211)">
	<rect id="base" x="-0.3" y="-0.2" class="st0" width="20" height="20"/>
	<path id="Path_95" class="st1" d="M19.2,4c-0.7,0.3-1.5,0.5-2.2,0.6c0.8-0.5,1.4-1.2,1.7-2.1c-0.8,0.4-1.6,0.8-2.5,0.9
		c-0.7-0.8-1.8-1.2-2.8-1.2c-2.1,0-3.9,1.7-3.9,3.8c0,0.3,0,0.6,0.1,0.9c-3.1-0.1-6-1.6-8-4C1.3,3.5,1.1,4.2,1.1,4.9
		c0,1.3,0.7,2.5,1.7,3.2C2.2,8,1.6,7.8,1,7.5v0c0,1.8,1.3,3.4,3.1,3.7c-0.3,0.1-0.7,0.1-1,0.1c-0.2,0-0.5,0-0.7-0.1
		C2.9,13,4.4,14,6,14c-1.4,1.1-3.1,1.6-4.8,1.6c-0.3,0-0.6,0-0.9-0.1c5.1,3.3,12,1.8,15.2-3.4c1.1-1.7,1.7-3.7,1.7-5.7
		c0-0.2,0-0.3,0-0.5C18,5.5,18.7,4.8,19.2,4z"/>
</g>
</svg>
