<svg xmlns="http://www.w3.org/2000/svg" width="20" height="19.099" viewBox="0 0 20 19.099">
  <g id="linkedin" transform="translate(0 -0.65)">
    <rect id="base" width="18.971" height="18.971" transform="translate(0.515 0.65)" fill="none"/>
    <g id="linkedin_1_" transform="translate(0 0.694)">
      <path id="linkedin-2" data-name="linkedin" d="M.249,21.067H4.723V8.374H.249ZM15.136,7.974a4.55,4.55,0,0,0-4.048,2.109V8.374H6.622V21.067h4.466v-6.9c0-1.456.7-2.879,2.374-2.879s2.085,1.423,2.085,2.845v6.932H20V13.852c0-5.013-3.012-5.878-4.864-5.878ZM2.494,2.013A2.377,2.377,0,0,0,0,4.254,2.376,2.376,0,0,0,2.494,6.492,2.376,2.376,0,0,0,4.988,4.254,2.377,2.377,0,0,0,2.494,2.013Z" transform="translate(0 -2.013)" fill="#243c96"/>
    </g>
  </g>
</svg>
