<?xml version="1.0" encoding="utf-8"?>
<!-- Generator: Adobe Illustrator 25.0.1, SVG Export Plug-In . SVG Version: 6.00 Build 0)  -->
<svg version="1.1" id="Layer_1" xmlns="http://www.w3.org/2000/svg" xmlns:xlink="http://www.w3.org/1999/xlink" x="0px" y="0px"
	 viewBox="0 0 20 20" style="enable-background:new 0 0 20 20;" xml:space="preserve">
<style type="text/css">
	.st0{fill:none;}
	.st1{fill:#243C96;}
</style>
<g id="linkedin" transform="translate(0 -0.65)">
	<rect id="base" x="0.5" y="1.1" class="st0" width="19" height="19"/>
	<g id="linkedin_1_" transform="translate(0 0.694)">
		<path id="linkedin-2" class="st1" d="M0.2,19.5h4.5V6.8H0.2V19.5z M15.1,6.4c-1.6-0.1-3.2,0.7-4,2.1V6.8H6.6v12.7h4.5v-6.9
			c0-1.5,0.7-2.9,2.4-2.9s2.1,1.4,2.1,2.8v6.9H20v-7.2C20,7.3,17,6.4,15.1,6.4z M2.5,0.5C1.2,0.4,0.1,1.4,0,2.7C0.1,4,1.2,5,2.5,4.9
			C3.8,5,4.9,4,5,2.7C4.9,1.4,3.8,0.4,2.5,0.5z"/>
	</g>
</g>
</svg>
