<svg xmlns="http://www.w3.org/2000/svg" width="20.177" height="20" viewBox="0 0 20.177 20">
  <g id="logo-youtube" transform="translate(0 -0.127)">
    <rect id="base" width="20" height="20" transform="translate(0.177 0.127)" fill="none"/>
    <path id="Path_96" data-name="Path 96" d="M19.941,67.325a3.048,3.048,0,0,0-2.9-3.184c-2.173-.1-4.388-.141-6.653-.141H9.681c-2.259,0-4.478.039-6.651.141a3.055,3.055,0,0,0-2.9,3.192c-.1,1.4-.14,2.792-.137,4.188s.041,2.794.133,4.192a3.059,3.059,0,0,0,2.9,3.2c2.282.106,4.624.153,7,.149s4.719-.042,7-.149a3.059,3.059,0,0,0,2.9-3.2c.094-1.4.137-2.8.133-4.2S20.035,68.724,19.941,67.325ZM8.112,75.368V67.662L13.8,71.513Z" transform="translate(0.006 -61.185)" fill="#243c96"/>
  </g>
</svg>
