<svg xmlns="http://www.w3.org/2000/svg" xmlns:xlink="http://www.w3.org/1999/xlink" width="53" height="60.859" viewBox="0 0 53 60.859">
  <defs>
    <filter id="Path_10842" x="5.804" y="0.301" width="47.196" height="60.558" filterUnits="userSpaceOnUse">
      <feOffset dx="3" dy="3" input="SourceAlpha"/>
      <feGaussianBlur result="blur"/>
      <feFlood flood-opacity="0.102"/>
      <feComposite operator="in" in2="blur"/>
      <feComposite in="SourceGraphic"/>
    </filter>
    <filter id="Rectangle_11262" x="0" y="36.71" width="46" height="20" filterUnits="userSpaceOnUse">
      <feOffset dx="3" dy="3" input="SourceAlpha"/>
      <feGaussianBlur result="blur-2"/>
      <feFlood flood-opacity="0.161"/>
      <feComposite operator="in" in2="blur-2"/>
      <feComposite in="SourceGraphic"/>
    </filter>
  </defs>
  <g id="icon" transform="translate(-0.989 0.286)">
    <g transform="matrix(1, 0, 0, 1, 0.99, -0.29)" filter="url(#Path_10842)">
      <path id="Path_10842-2" data-name="Path 10842" d="M37.833,0H8c-.83,0-1.5.673-1.5,1.98V56.53A1.548,1.548,0,0,0,8,57.558H49.193a1.548,1.548,0,0,0,1.5-1.028V13.339c0-.715-.1-.946-.264-1.115L38.472.264A.908.908,0,0,0,37.833,0Z" transform="translate(-0.7 0.3)" fill="#f15642"/>
    </g>
    <path id="Path_10844" data-name="Path 10844" d="M19.35,31.253h0a1.48,1.48,0,0,1-.891-.3,2.209,2.209,0,0,1-1.028-2.066c.168-1.5,2.023-3.071,5.516-4.671a61.864,61.864,0,0,0,3.491-9.907c-.92-2-1.814-4.6-1.162-6.122a1.768,1.768,0,0,1,1.045-1.12,4.525,4.525,0,0,1,.936-.159c.464,0,.873.6,1.162.967.272.347.888,1.081-.344,6.269a29.449,29.449,0,0,0,4.689,6.969,17.93,17.93,0,0,1,3.095-.33c1.443,0,2.318.336,2.675,1.029a1.866,1.866,0,0,1-.359,1.991,2.449,2.449,0,0,1-2.046,1.1c-1.121,0-2.426-.708-3.881-2.106a44.16,44.16,0,0,0-8.136,2.6,26.149,26.149,0,0,1-2.2,3.918C20.971,30.636,20.156,31.253,19.35,31.253ZM21.8,26.529c-1.969,1.107-2.772,2.016-2.83,2.529-.009.085-.034.308.4.638C19.507,29.652,20.309,29.287,21.8,26.529Zm12.568-4.094c.751.578.935.87,1.426.87a1.389,1.389,0,0,0,1.115-.406,1.459,1.459,0,0,0,.212-.382c-.113-.06-.264-.182-1.083-.182A13.475,13.475,0,0,0,34.371,22.435Zm-6.884-6.066a65.7,65.7,0,0,1-2.464,6.971,46.049,46.049,0,0,1,5.987-1.862A31.547,31.547,0,0,1,27.487,16.369Zm-.559-7.8a2.21,2.21,0,0,0,.088,2.964C27.89,9.585,26.967,8.558,26.927,8.571Z" transform="translate(-0.456 2.314)" fill="#fff"/>
    <g transform="matrix(1, 0, 0, 1, 0.99, -0.29)" filter="url(#Rectangle_11262)">
      <rect id="Rectangle_11262-2" data-name="Rectangle 11262" width="43" height="17" rx="1" transform="translate(0 36.71)" fill="#ebedef"/>
    </g>
    <g id="Group_22969" data-name="Group 22969" transform="translate(10.468 40.856)">
      <path id="Path_10861" data-name="Path 10861" d="M101.744,295.167a.844.844,0,0,1,.833-.847h2.833a3.067,3.067,0,0,1,0,6.133h-2.048v1.62a.77.77,0,0,1-.785.845.826.826,0,0,1-.833-.845Zm1.618.7v3.056h2.048a1.529,1.529,0,0,0,0-3.056Z" transform="translate(-101.744 -294.32)" fill="#f15642"/>
      <path id="Path_10862" data-name="Path 10862" d="M188.671,303.96a.768.768,0,0,1-.847-.759v-6.967a.834.834,0,0,1,.847-.761h2.809c5.605,0,5.483,8.488.11,8.488Zm.773-6.99v5.495h2.036c3.312,0,3.459-5.495,0-5.495Z" transform="translate(-179.571 -295.362)" fill="#f15642"/>
      <path id="Path_10863" data-name="Path 10863" d="M288.741,297.053V299h3.128a.949.949,0,0,1,.884.87.852.852,0,0,1-.884.736h-3.128v2.576a.727.727,0,0,1-.735.759.779.779,0,0,1-.87-.759v-6.967a.775.775,0,0,1,.87-.761h4.306a.765.765,0,0,1,.859.761.847.847,0,0,1-.859.834h-3.571Z" transform="translate(-269.362 -295.347)" fill="#f15642"/>
    </g>
    <path id="Path_10873" data-name="Path 10873" d="M393.379,137.793,384,128h9.379Z" transform="translate(-342.598 -115.657)" fill="rgba(0,0,0,0.13)"/>
    <path id="Path_10872" data-name="Path 10872" d="M3.149,12.743h8.4L0,0V9.557A3.235,3.235,0,0,0,3.149,12.743Z" transform="translate(38.585 0.318) rotate(-3)" fill="#d4d7d9"/>
  </g>
</svg>
