<svg xmlns="http://www.w3.org/2000/svg" width="19.994" height="20" viewBox="0 0 19.994 20">
  <g id="phone" transform="translate(-1.104 -0.966)">
    <path id="XMLID_707_" d="M20.54,3.531,20.5,3.487l-2.4-2.09A1.611,1.611,0,0,0,16.826.974a1.926,1.926,0,0,0-1.156.534l-.067.067-2.357,2.98a1.672,1.672,0,0,0,.044,2.335A.59.59,0,0,0,13.424,7l1.2.8c-.089.423-.712,1.623-2.913,3.825-2.179,2.179-3.4,2.8-3.8,2.891l-.8-1.2A.59.59,0,0,0,7,13.183a1.694,1.694,0,0,0-2.335-.044L1.7,15.5l-.067.067a1.788,1.788,0,0,0-.111,2.424l2.09,2.38.044.044a2.378,2.378,0,0,0,1.712.556,10.1,10.1,0,0,0,3.358-.778,20.868,20.868,0,0,0,6.961-4.67,21.307,21.307,0,0,0,4.67-6.961c.4-1.112,1.334-3.87.178-5.026ZM14.4,14.295c-4.114,4.114-8.74,5.248-9.518,4.87L2.86,16.83l2.891-2.291.778,1.179c.022.022.022.044.044.067a1.438,1.438,0,0,0,1.09.534c.423.022,1.735.089,5.271-3.447C13.8,12,16.47,9.336,16.381,7.6a1.515,1.515,0,0,0-.534-1.09c-.022-.022-.044-.044-.067-.044l-1.134-.8,2.291-2.913L19.25,4.777C19.65,5.555,18.516,10.181,14.4,14.295Z" transform="translate(0 0)" fill="#fff"/>
  </g>
</svg>
