<svg id="icon" xmlns="http://www.w3.org/2000/svg" xmlns:xlink="http://www.w3.org/1999/xlink" width="40" height="40" viewBox="0 0 40 40">
  <defs>
    <clipPath id="clip-path">
      <rect id="Rectangle_10983" data-name="Rectangle 10983" width="40" height="40" fill="#777b81"/>
    </clipPath>
  </defs>
  <g id="Group_21762" data-name="Group 21762" transform="translate(0 0)" clip-path="url(#clip-path)">
    <path id="Path_6165" data-name="Path 6165" d="M22.29,12.057H26.2V9.869H22.29Zm-.781-3.75h5.469a.781.781,0,0,1,.781.781v3.751a.781.781,0,0,1-.781.781H21.509a.78.78,0,0,1-.781-.781V9.088a.78.78,0,0,1,.781-.781" transform="translate(8.491 3.403)" fill="#777b81"/>
    <path id="Path_6166" data-name="Path 6166" d="M13.085,8.307h8.125a.781.781,0,0,1,0,1.562H13.085a.781.781,0,1,1,0-1.562" transform="translate(5.04 3.403)" fill="#777b81"/>
    <path id="Path_6167" data-name="Path 6167" d="M13.085,10.967h8.125a.781.781,0,0,1,0,1.562H13.085a.781.781,0,1,1,0-1.562" transform="translate(5.04 4.493)" fill="#777b81"/>
    <path id="Path_6168" data-name="Path 6168" d="M12.647,22.711h3.906V20.523H12.647Zm-.781-3.75h5.469a.781.781,0,0,1,.781.781v3.751a.781.781,0,0,1-.781.781H11.866a.781.781,0,0,1-.782-.781V19.742a.781.781,0,0,1,.782-.781" transform="translate(4.54 7.767)" fill="#777b81"/>
    <path id="Path_6169" data-name="Path 6169" d="M12.347,19.743a.781.781,0,0,1-.781.781H3.441a.781.781,0,0,1,0-1.562h8.125a.781.781,0,0,1,.781.781" transform="translate(1.09 7.768)" fill="#777b81"/>
    <path id="Path_6170" data-name="Path 6170" d="M3.441,21.622h8.127a.781.781,0,0,1,0,1.562H3.441a.781.781,0,1,1,0-1.562" transform="translate(1.09 8.857)" fill="#777b81"/>
    <path id="Path_6171" data-name="Path 6171" d="M1.562,34.239H24.845v-9.7H1.562ZM38.438,9.521H15.156v9.7H38.438Zm-24.454-5.3h18.2V1.563h-18.2Zm-6.171,0h4.61V1.563H7.812ZM.781,22.979H6.25V17.9a.781.781,0,1,1,1.562,0v5.083H25.624a.781.781,0,0,1,.782.781V35.02a.781.781,0,0,1-.782.781H7.812v2.637H32.188V20.781H14.377A.782.782,0,0,1,13.593,20V8.74a.782.782,0,0,1,.784-.781H32.188V5.781H7.812v5.083a.781.781,0,1,1-1.562,0V.781A.781.781,0,0,1,7.033,0H32.969a.781.781,0,0,1,.782.781V7.959H39.22A.781.781,0,0,1,40,8.74V20a.781.781,0,0,1-.78.781H33.751V39.219a.781.781,0,0,1-.782.781H7.033a.781.781,0,0,1-.782-.781V35.8H.781A.781.781,0,0,1,0,35.02V23.76a.781.781,0,0,1,.781-.781" transform="translate(0 0)" fill="#777b81"/>
    <path id="Path_6172" data-name="Path 6172" d="M5.214,9.64a.782.782,0,1,1-.553.23.788.788,0,0,1,.553-.23" transform="translate(1.816 3.949)" fill="#777b81"/>
  </g>
</svg>
