<svg xmlns="http://www.w3.org/2000/svg" width="21.043" height="23.991" viewBox="0 0 21.043 23.991">
  <g id="Group_21810" data-name="Group 21810" transform="translate(-1735.479 -185)">
    <g id="book-outline" transform="translate(1704.379 129.753)">
      <path id="Path_6273" data-name="Path 6273" d="M41.622,67.584c.687-2.358,3.283-3.563,8.934-3.585a.74.74,0,0,1,.487.174.558.558,0,0,1,.2.423V75.351a.647.647,0,0,1-.687.6c-5.5,0-7.622.964-8.934,2.39-1.3-1.419-3.436-2.39-8.934-2.39A.652.652,0,0,1,32,75.279V64.6a.558.558,0,0,1,.2-.423A.74.74,0,0,1,32.687,64C38.339,64.022,40.934,65.226,41.622,67.584Z" transform="translate(0 0)" fill="none" stroke="#777b81" stroke-linecap="round" stroke-linejoin="round" stroke-width="1.8"/>
      <path id="Path_6274" data-name="Path 6274" d="M256,160v9.975" transform="translate(-214.378 -92.877)" fill="none" stroke="#777b81" stroke-linecap="round" stroke-linejoin="round" stroke-width="1.8"/>
    </g>
    <g id="Ellipse_32" data-name="Ellipse 32" transform="translate(1742 185)" fill="none" stroke="#777b81" stroke-width="1.8">
      <circle cx="4" cy="4" r="4" stroke="none"/>
      <circle cx="4" cy="4" r="3.1" fill="none"/>
    </g>
  </g>
</svg>
