<svg xmlns="http://www.w3.org/2000/svg" width="24" height="21" viewBox="0 0 24 21">
  <g id="Group_21811" data-name="Group 21811" transform="translate(0 -1)">
    <path id="Path_6277" data-name="Path 6277" d="M16.5,2.5h-9A1.5,1.5,0,0,0,6,4V7H4.5V4a3,3,0,0,1,3-3h9a3,3,0,0,1,3,3V7H18V4A1.5,1.5,0,0,0,16.5,2.5Zm4.5,6H3A1.5,1.5,0,0,0,1.5,10v4.5A1.5,1.5,0,0,0,3,16H4.5v1.5H3a3,3,0,0,1-3-3V10A3,3,0,0,1,3,7H21a3,3,0,0,1,3,3v4.5a3,3,0,0,1-3,3H19.5V16H21a1.5,1.5,0,0,0,1.5-1.5V10A1.5,1.5,0,0,0,21,8.5Z" fill="#777b81"/>
    <path id="Path_6278" data-name="Path 6278" d="M15,9.5H6A1.5,1.5,0,0,0,4.5,11v4.5A1.5,1.5,0,0,0,6,17h9a1.5,1.5,0,0,0,1.5-1.5V11A1.5,1.5,0,0,0,15,9.5ZM6,8a3,3,0,0,0-3,3v4.5a3,3,0,0,0,3,3h9a3,3,0,0,0,3-3V11a3,3,0,0,0-3-3Z" transform="translate(1.5 3.5)" fill="#777b81" fill-rule="evenodd"/>
    <path id="Path_6279" data-name="Path 6279" d="M3.5,7.75A.75.75,0,1,1,2.75,7,.75.75,0,0,1,3.5,7.75Z" transform="translate(1 3)" fill="#777b81"/>
  </g>
</svg>
