<svg id="Group_20230" data-name="Group 20230" xmlns="http://www.w3.org/2000/svg" width="24" height="24" viewBox="0 0 24 24">
  <g id="Group_20229" data-name="Group 20229">
    <circle id="Ellipse_16" data-name="Ellipse 16" cx="1.172" cy="1.172" r="1.172" transform="translate(10.828 16.57)" fill="#777b81"/>
    <path id="Path_5017" data-name="Path 5017" d="M12,0A12,12,0,1,0,24,12,11.993,11.993,0,0,0,12,0Zm0,22.125A10.125,10.125,0,1,1,22.125,12,10.12,10.12,0,0,1,12,22.125Z" fill="#777b81"/>
    <path id="Path_5018" data-name="Path 5018" d="M179.75,128.5a3.754,3.754,0,0,0-3.75,3.75.937.937,0,0,0,1.875,0,1.875,1.875,0,1,1,1.875,1.875.937.937,0,0,0-.937.938v2.344a.937.937,0,1,0,1.875,0v-1.525a3.75,3.75,0,0,0-.937-7.381Z" transform="translate(-167.75 -122.477)" fill="#777b81"/>
  </g>
</svg>
