<svg id="cloud-download" xmlns="http://www.w3.org/2000/svg" width="24" height="21.579" viewBox="0 0 24 21.579">
  <path id="Path_6283" data-name="Path 6283" d="M15.372,17.285l-1.53,1.472V12.168a1.168,1.168,0,0,0-2.336,0V18.7L10,17.18a1.173,1.173,0,1,0-1.659,1.659l3.5,3.5a1.171,1.171,0,0,0,1.636.012l3.5-3.388a1.168,1.168,0,1,0-1.612-1.682Z" transform="translate(-0.702 -1.103)" fill="#777b81"/>
  <path id="Path_6284" data-name="Path 6284" d="M20.748,7.839a7.156,7.156,0,0,0-13.567,0A5.993,5.993,0,0,0,2.37,11.717,6.083,6.083,0,0,0,3.5,17.828a1.192,1.192,0,0,0,2.189-.26,1.215,1.215,0,0,0-.395-1.274,3.65,3.65,0,0,1-.6-3.9,3.587,3.587,0,0,1,3.29-2.136H8.1a1.2,1.2,0,0,0,1.2-.966,4.777,4.777,0,0,1,9.379,0,1.2,1.2,0,0,0,1.2.966h.072a3.587,3.587,0,0,1,3.29,2.136,3.65,3.65,0,0,1-.6,3.9,1.216,1.216,0,0,0,.108,1.715,1.185,1.185,0,0,0,1.687-.109,6.083,6.083,0,0,0,1.189-6.162A5.993,5.993,0,0,0,20.748,7.839Z" transform="translate(-1.994 -2.962)" fill="#777b81"/>
</svg>
