<svg xmlns="http://www.w3.org/2000/svg" xmlns:xlink="http://www.w3.org/1999/xlink" width="688" height="556" viewBox="0 0 688 556">
  <defs>
    <filter id="Path_10740" x="130.559" y="29.632" width="228.076" height="124.582" filterUnits="userSpaceOnUse">
      <feOffset dy="3" input="SourceAlpha"/>
      <feGaussianBlur stdDeviation="3" result="blur"/>
      <feFlood flood-opacity="0.161"/>
      <feComposite operator="in" in2="blur"/>
      <feComposite in="SourceGraphic"/>
    </filter>
    <filter id="Path_10741" x="352.407" y="28.785" width="232.699" height="125.434" filterUnits="userSpaceOnUse">
      <feOffset dy="3" input="SourceAlpha"/>
      <feGaussianBlur stdDeviation="3" result="blur-2"/>
      <feFlood flood-opacity="0.161"/>
      <feComposite operator="in" in2="blur-2"/>
      <feComposite in="SourceGraphic"/>
    </filter>
    <filter id="Ellipse_68" x="332.001" y="20" width="46.315" height="46.315" filterUnits="userSpaceOnUse">
      <feOffset dy="3" input="SourceAlpha"/>
      <feGaussianBlur stdDeviation="3" result="blur-3"/>
      <feFlood flood-opacity="0.161"/>
      <feComposite operator="in" in2="blur-3"/>
      <feComposite in="SourceGraphic"/>
    </filter>
    <filter id="cog" x="408.211" y="469.155" width="49.687" height="37.728" filterUnits="userSpaceOnUse">
      <feOffset dy="4" input="SourceAlpha"/>
      <feGaussianBlur result="blur-4"/>
      <feFlood flood-color="#2a2a63"/>
      <feComposite operator="in" in2="blur-4"/>
      <feComposite in="SourceGraphic"/>
    </filter>
    <filter id="Ellipse_59" x="509.74" y="415.369" width="77.101" height="53.461" filterUnits="userSpaceOnUse">
      <feOffset dy="4" input="SourceAlpha"/>
      <feGaussianBlur result="blur-5"/>
      <feFlood flood-color="#2a2a63"/>
      <feComposite operator="in" in2="blur-5"/>
      <feComposite in="SourceGraphic"/>
    </filter>
    <clipPath id="clip-path">
      <path id="Union_9" data-name="Union 9" d="M23.671,98.1C17.032,98.1-.177,95.5,0,89.091.19,82.3,15.856,3.02,15.856,3.02S17.726.215,24.632,0V0h.1V0C31.633.215,33.5,3.02,33.5,3.02S49.17,82.3,49.358,89.091s-18.5,8.976-25.486,9.032h-.007A.9.9,0,0,1,23.671,98.1Z" transform="translate(0)" fill="#030538"/>
    </clipPath>
    <filter id="Ellipse_59-2" x="169.269" y="456.469" width="58.044" height="41.235" filterUnits="userSpaceOnUse">
      <feOffset dy="4" input="SourceAlpha"/>
      <feGaussianBlur result="blur-6"/>
      <feFlood flood-color="#2a2a63"/>
      <feComposite operator="in" in2="blur-6"/>
      <feComposite in="SourceGraphic"/>
    </filter>
    <clipPath id="clip-path-2">
      <path id="Union_9-2" data-name="Union 9" d="M17.82,73.853c-5,0-17.953-1.959-17.819-6.783.142-5.116,11.936-64.8,11.936-64.8S13.345.162,18.543,0V0h.072V0c5.2.159,6.606,2.271,6.606,2.271s11.794,59.68,11.936,64.8-13.929,6.757-19.186,6.8h-.006A.681.681,0,0,1,17.82,73.853Z" transform="translate(0)" fill="#030538"/>
    </clipPath>
  </defs>
  <g id="Soon_Illustration_Ar" transform="translate(-619.999 -508.65)">
    <rect id="base" width="688" height="556" transform="translate(620 508.65)" fill="none"/>
    <ellipse id="shadow" cx="27.5" cy="4" rx="27.5" ry="4" transform="translate(659.625 943.909)" fill="#e1e1e1"/>
    <g id="plant" transform="translate(656 828.909)">
      <g id="Group_22808" data-name="Group 22808" transform="translate(6.732 79.414)">
        <g id="Group_22807" data-name="Group 22807" transform="translate(0)">
          <path id="Path_10742" data-name="Path 10742" d="M687.548,367.218,681.645,406H647.355L639.4,367.778Z" transform="translate(-639.396 -367.218)" fill="#e8505b"/>
        </g>
      </g>
      <g id="Group_22842" data-name="Group 22842" transform="translate(11.394 100.009)">
        <g id="Group_22811" data-name="Group 22811" transform="translate(0.133 4.062)">
          <g id="Group_22810" data-name="Group 22810" transform="translate(0)">
            <g id="Group_22809" data-name="Group 22809" transform="translate(0)">
              <path id="Path_10743" data-name="Path 10743" d="M643.505,392.076c0,.111,8.787.2,19.623.2s19.625-.091,19.625-.2-8.785-.2-19.625-.2S643.505,391.965,643.505,392.076Z" transform="translate(-643.505 -391.875)" fill="#fafafa"/>
            </g>
          </g>
        </g>
        <g id="Group_22814" data-name="Group 22814" transform="translate(0 2.155)">
          <g id="Group_22813" data-name="Group 22813" transform="translate(0)">
            <g id="Group_22812" data-name="Group 22812" transform="translate(0)">
              <path id="Path_10744" data-name="Path 10744" d="M643.372,390.169c0,.111,8.847.2,19.756.2s19.758-.09,19.758-.2-8.844-.2-19.758-.2S643.372,390.058,643.372,390.169Z" transform="translate(-643.372 -389.968)" fill="#fafafa"/>
            </g>
          </g>
        </g>
        <g id="Group_22817" data-name="Group 22817" transform="translate(0.068)">
          <g id="Group_22816" data-name="Group 22816" transform="translate(0)">
            <g id="Group_22815" data-name="Group 22815" transform="translate(0)">
              <path id="Path_10745" data-name="Path 10745" d="M643.3,388.014c0,.111,8.846.2,19.756.2s19.758-.09,19.758-.2-8.845-.2-19.758-.2S643.3,387.9,643.3,388.014Z" transform="translate(-643.304 -387.813)" fill="#fafafa"/>
            </g>
          </g>
        </g>
        <g id="Group_22820" data-name="Group 22820" transform="translate(33.626 6.143)">
          <g id="Group_22819" data-name="Group 22819" transform="translate(0)">
            <g id="Group_22818" data-name="Group 22818" transform="translate(0)">
              <path id="Path_10746" data-name="Path 10746" d="M647.53,403.792a61.954,61.954,0,0,0,1.707-9.836,61.971,61.971,0,0,0-1.707,9.836Z" transform="translate(-647.507 -393.956)" fill="#fafafa"/>
            </g>
          </g>
        </g>
        <g id="Group_22823" data-name="Group 22823" transform="translate(31.22 6.023)">
          <g id="Group_22822" data-name="Group 22822" transform="translate(0)">
            <g id="Group_22821" data-name="Group 22821" transform="translate(0)">
              <path id="Path_10747" data-name="Path 10747" d="M650.98,403.38a113.6,113.6,0,0,0,.649-9.544,38.131,38.131,0,0,0-.649,9.544Z" transform="translate(-650.883 -393.836)" fill="#fafafa"/>
            </g>
          </g>
        </g>
        <g id="Group_22826" data-name="Group 22826" transform="translate(27.04 5.72)">
          <g id="Group_22825" data-name="Group 22825" transform="translate(0)">
            <g id="Group_22824" data-name="Group 22824" transform="translate(0)">
              <path id="Path_10748" data-name="Path 10748" d="M654.64,403.378a38.815,38.815,0,0,0,1.153-9.845,144.526,144.526,0,0,0-1.153,9.845Z" transform="translate(-654.616 -393.533)" fill="#fafafa"/>
            </g>
          </g>
        </g>
        <g id="Group_22829" data-name="Group 22829" transform="translate(24.029 5.821)">
          <g id="Group_22828" data-name="Group 22828" transform="translate(0)">
            <g id="Group_22827" data-name="Group 22827" transform="translate(0)">
              <path id="Path_10749" data-name="Path 10749" d="M658.351,403.583a39.7,39.7,0,0,0,.324-9.949,139.221,139.221,0,0,0-.324,9.949Z" transform="translate(-658.3 -393.634)" fill="#fafafa"/>
            </g>
          </g>
        </g>
        <g id="Group_22832" data-name="Group 22832" transform="translate(18.7 6.13)">
          <g id="Group_22831" data-name="Group 22831" transform="translate(0)">
            <g id="Group_22830" data-name="Group 22830" transform="translate(0)">
              <path id="Path_10750" data-name="Path 10750" d="M663.769,403.38a55.521,55.521,0,0,0,.32-9.437,55.513,55.513,0,0,0-.32,9.437Z" transform="translate(-663.672 -393.943)" fill="#fafafa"/>
            </g>
          </g>
        </g>
        <g id="Group_22835" data-name="Group 22835" transform="translate(14.693 6.026)">
          <g id="Group_22834" data-name="Group 22834" transform="translate(0)">
            <g id="Group_22833" data-name="Group 22833" transform="translate(0)">
              <path id="Path_10751" data-name="Path 10751" d="M668.027,403.584a59.021,59.021,0,0,0-.079-9.745,59,59,0,0,0,.079,9.745Z" transform="translate(-667.782 -393.839)" fill="#fafafa"/>
            </g>
          </g>
        </g>
        <g id="Group_22838" data-name="Group 22838" transform="translate(10.296 5.104)">
          <g id="Group_22837" data-name="Group 22837" transform="translate(0)">
            <g id="Group_22836" data-name="Group 22836" transform="translate(0)">
              <path id="Path_10752" data-name="Path 10752" d="M672.551,403.066a64.606,64.606,0,0,0-.985-10.149,64.627,64.627,0,0,0,.985,10.149Z" transform="translate(-671.526 -392.917)" fill="#fafafa"/>
            </g>
          </g>
        </g>
        <g id="Group_22841" data-name="Group 22841" transform="translate(4.787 6.233)">
          <g id="Group_22840" data-name="Group 22840" transform="translate(0)">
            <g id="Group_22839" data-name="Group 22839" transform="translate(0)">
              <path id="Path_10753" data-name="Path 10753" d="M678.069,402.558a26.733,26.733,0,0,0-1.852-8.512,205.741,205.741,0,0,0,1.852,8.512Z" transform="translate(-676.201 -394.046)" fill="#fafafa"/>
            </g>
          </g>
        </g>
      </g>
      <g id="Group_22864" data-name="Group 22864" transform="translate(17.04 0)">
        <g id="Group_22845" data-name="Group 22845" transform="translate(4.309 2.879)">
          <g id="Group_22844" data-name="Group 22844" transform="translate(0)">
            <g id="Group_22843" data-name="Group 22843" transform="translate(0)">
              <path id="Path_10754" data-name="Path 10754" d="M663.9,290.682a.674.674,0,0,0,.041.191c.043.146.1.326.16.548l.653,2.093c.293.906.643,2.016,1.006,3.319s.829,2.77,1.237,4.422c.435,1.644.907,3.447,1.336,5.4.476,1.943.876,4.043,1.323,6.247.822,4.421,1.571,9.311,2.1,14.474.5,5.168.733,10.11.8,14.607,0,2.249.02,4.387-.062,6.386-.035,2-.141,3.86-.242,5.559-.074,1.7-.234,3.231-.339,4.579s-.222,2.506-.331,3.452c-.1.921-.17,1.65-.225,2.18-.02.231-.036.417-.049.569a.1.1,0,1,0,.041.006c.023-.151.052-.336.088-.564.073-.529.174-1.255.3-2.173.133-.944.279-2.1.4-3.449s.306-2.88.4-4.581c.12-1.7.242-3.564.292-5.568.1-2,.087-4.145.1-6.4-.048-4.508-.269-9.464-.772-14.644-.53-5.176-1.293-10.077-2.137-14.5-.457-2.207-.871-4.309-1.362-6.253-.444-1.955-.933-3.757-1.386-5.4-.427-1.65-.906-3.116-1.3-4.412s-.757-2.4-1.073-3.3q-.46-1.314-.725-2.071l-.2-.536A.692.692,0,0,0,663.9,290.682Z" transform="translate(-663.9 -290.682)" fill="#455a64"/>
            </g>
          </g>
        </g>
        <g id="Group_22847" data-name="Group 22847" transform="translate(1.231 19.465)">
          <g id="Group_22846" data-name="Group 22846" transform="translate(0)">
            <path id="Path_10755" data-name="Path 10755" d="M675.392,314.7a12.731,12.731,0,0,0-5.331-6.734,3.054,3.054,0,0,0-2.82-.518c-1.2.578-1.293,2.262-.936,3.542a9.38,9.38,0,0,0,3.88,5.289,7.914,7.914,0,0,0,5.824,1.469" transform="translate(-666.123 -307.268)" fill="#455a64"/>
          </g>
        </g>
        <g id="Group_22849" data-name="Group 22849" transform="translate(2.816 32.111)">
          <g id="Group_22848" data-name="Group 22848" transform="translate(0)">
            <path id="Path_10756" data-name="Path 10756" d="M674.07,330.916c-.886-3.347-3.556-8.106-6.33-10.178a4.073,4.073,0,0,0-1.439-.767,1.671,1.671,0,0,0-1.539.333,2.358,2.358,0,0,0-.344,2.222A13.5,13.5,0,0,0,674.423,332.6" transform="translate(-664.304 -319.914)" fill="#455a64"/>
          </g>
        </g>
        <g id="Group_22851" data-name="Group 22851" transform="translate(2.876 48.537)">
          <g id="Group_22850" data-name="Group 22850" transform="translate(0)">
            <path id="Path_10757" data-name="Path 10757" d="M674.364,345.192a19.584,19.584,0,0,0-6.386-8.03,3.044,3.044,0,0,0-2.228-.794c-1.211.219-1.761,1.7-1.654,2.925.221,2.525,2.149,4.55,4.14,6.119a25.656,25.656,0,0,0,5.907,3.036" transform="translate(-664.083 -336.341)" fill="#455a64"/>
          </g>
        </g>
        <g id="Group_22853" data-name="Group 22853" transform="translate(3.942 60.716)">
          <g id="Group_22852" data-name="Group 22852" transform="translate(0)">
            <path id="Path_10758" data-name="Path 10758" d="M673.3,355.454a18.869,18.869,0,0,0-5.433-6.186,3.934,3.934,0,0,0-1.631-.73,1.66,1.66,0,0,0-1.6.608c-.544.8-.026,1.881.558,2.654a15.5,15.5,0,0,0,7.753,5.687" transform="translate(-664.405 -348.52)" fill="#455a64"/>
          </g>
        </g>
        <g id="Group_22855" data-name="Group 22855" transform="translate(12.835 54.937)">
          <g id="Group_22854" data-name="Group 22854" transform="translate(0)">
            <path id="Path_10759" data-name="Path 10759" d="M654.371,351.286a60.533,60.533,0,0,1,7.77-7.915c.441-.373,1-.765,1.548-.586a1.158,1.158,0,0,1,.712,1.045,2.943,2.943,0,0,1-.295,1.3,15.061,15.061,0,0,1-10,8.415" transform="translate(-654.103 -342.74)" fill="#455a64"/>
          </g>
        </g>
        <g id="Group_22857" data-name="Group 22857" transform="translate(12.855 40.425)">
          <g id="Group_22856" data-name="Group 22856" transform="translate(0)">
            <path id="Path_10760" data-name="Path 10760" d="M652.813,337.931l6.1-7.441a7.367,7.367,0,0,1,1.98-1.879,2.5,2.5,0,0,1,2.6-.031,2.469,2.469,0,0,1,.836,2.457,6.485,6.485,0,0,1-1.191,2.445,18.137,18.137,0,0,1-4.448,4.725c-1.792,1.232-3.421,2.034-5.572,1.717" transform="translate(-652.813 -328.228)" fill="#455a64"/>
          </g>
        </g>
        <g id="Group_22859" data-name="Group 22859" transform="translate(12.007 24.904)">
          <g id="Group_22858" data-name="Group 22858" transform="translate(0)">
            <path id="Path_10761" data-name="Path 10761" d="M654.482,322.9a21.272,21.272,0,0,1,6.142-9.221,3.573,3.573,0,0,1,1.6-.933,2.689,2.689,0,0,1,2.8,1.966,5.041,5.041,0,0,1-.557,4.04,10.667,10.667,0,0,1-2.869,3.034,24.592,24.592,0,0,1-6.79,3.665" transform="translate(-654.482 -312.708)" fill="#455a64"/>
          </g>
        </g>
        <g id="Group_22861" data-name="Group 22861" transform="translate(9.568 8.899)">
          <g id="Group_22860" data-name="Group 22860" transform="translate(0)">
            <path id="Path_10762" data-name="Path 10762" d="M658.494,309.49c.591-4.314,2.837-7.9,5.438-11.394.549-.735,1.314-1.516,2.221-1.378a1.762,1.762,0,0,1,1.275,1.094,4.116,4.116,0,0,1,.241,1.724,13.326,13.326,0,0,1-8.647,11.9" transform="translate(-658.494 -296.702)" fill="#455a64"/>
          </g>
        </g>
        <g id="Group_22863" data-name="Group 22863" transform="translate(0)">
          <g id="Group_22862" data-name="Group 22862" transform="translate(0)">
            <path id="Path_10763" data-name="Path 10763" d="M676.934,302.644a35.6,35.6,0,0,0,.223-6.669,11.938,11.938,0,0,0-2.214-6.212A5.128,5.128,0,0,0,672.727,288a2.8,2.8,0,0,0-2.719.36,2.958,2.958,0,0,0-.931,2.394,7.494,7.494,0,0,0,.688,2.555c1.625,3.913,4.338,8.245,7.169,9.339" transform="translate(-669.075 -287.803)" fill="#455a64"/>
          </g>
        </g>
      </g>
      <g id="Group_22886" data-name="Group 22886" transform="translate(38.423 17.551)">
        <g id="Group_22867" data-name="Group 22867" transform="translate(2.131 2.431)">
          <g id="Group_22866" data-name="Group 22866" transform="translate(0)">
            <g id="Group_22865" data-name="Group 22865" transform="translate(0)">
              <path id="Path_10764" data-name="Path 10764" d="M653.585,307.785a2.708,2.708,0,0,0-.034.547c0,.4-.01.918-.017,1.565,0,.68,0,1.511-.039,2.476s-.038,2.063-.118,3.275c-.106,2.427-.341,5.31-.709,8.5-.4,3.185-.939,6.673-1.689,10.3-.771,3.624-1.675,7.038-2.593,10.114-.945,3.068-1.888,5.8-2.766,8.067-.414,1.143-.849,2.152-1.208,3.047s-.684,1.661-.959,2.283l-.613,1.44a2.757,2.757,0,0,0-.189.514,2.7,2.7,0,0,0,.263-.48l.682-1.41c.3-.613.649-1.368,1.024-2.259s.834-1.893,1.265-3.031c.914-2.257,1.888-4.99,2.855-8.062.941-3.08,1.86-6.5,2.633-10.141.753-3.64,1.287-7.143,1.663-10.34.349-3.2.555-6.1.625-8.53.062-1.216.049-2.318.059-3.284s0-1.8-.03-2.48c-.024-.648-.043-1.168-.058-1.566A2.935,2.935,0,0,0,653.585,307.785Z" transform="translate(-642.65 -307.785)" fill="#263238"/>
            </g>
          </g>
        </g>
        <g id="Group_22869" data-name="Group 22869" transform="translate(6.718 13.41)">
          <g id="Group_22868" data-name="Group 22868" transform="translate(0)">
            <path id="Path_10765" data-name="Path 10765" d="M649.139,325.469a9.1,9.1,0,0,0-2.181-5.732,2.178,2.178,0,0,0-1.808-.96c-.939.136-1.367,1.262-1.4,2.21a6.7,6.7,0,0,0,1.5,4.437,5.646,5.646,0,0,0,3.649,2.253" transform="translate(-643.746 -318.764)" fill="#263238"/>
          </g>
        </g>
        <g id="Group_22871" data-name="Group 22871" transform="translate(5.234 22.279)">
          <g id="Group_22870" data-name="Group 22870" transform="translate(0)">
            <path id="Path_10766" data-name="Path 10766" d="M650.611,336.959c.117-2.47-.676-6.285-2.119-8.293a2.924,2.924,0,0,0-.815-.832,1.193,1.193,0,0,0-1.119-.1,1.685,1.685,0,0,0-.713,1.438,9.638,9.638,0,0,0,4.644,9.011" transform="translate(-645.808 -327.634)" fill="#263238"/>
          </g>
        </g>
        <g id="Group_22873" data-name="Group 22873" transform="translate(1.538 33.576)">
          <g id="Group_22872" data-name="Group 22872" transform="translate(0)">
            <path id="Path_10767" data-name="Path 10767" d="M654.318,346.8a14,14,0,0,0-2.619-6.842,2.178,2.178,0,0,0-1.346-1.02c-.872-.112-1.565.778-1.756,1.636-.394,1.766.484,3.56,1.5,5.056a18.338,18.338,0,0,0,3.368,3.339" transform="translate(-648.501 -338.93)" fill="#263238"/>
          </g>
        </g>
        <g id="Group_22875" data-name="Group 22875" transform="translate(0 42.001)">
          <g id="Group_22874" data-name="Group 22874" transform="translate(0)">
            <path id="Path_10768" data-name="Path 10768" d="M655.856,353.719a13.473,13.473,0,0,0-2.368-5.381,2.8,2.8,0,0,0-.953-.848,1.185,1.185,0,0,0-1.22.07c-.543.427-.422,1.275-.191,1.927a11.062,11.062,0,0,0,4.054,5.54" transform="translate(-650.929 -347.356)" fill="#263238"/>
          </g>
        </g>
        <g id="Group_22877" data-name="Group 22877" transform="translate(5.338 41.676)">
          <g id="Group_22876" data-name="Group 22876" transform="translate(0)">
            <path id="Path_10769" data-name="Path 10769" d="M642.057,350.939a43.2,43.2,0,0,1,6.993-3.716,1.249,1.249,0,0,1,1.18-.066.827.827,0,0,1,.26.865,2.11,2.11,0,0,1-.48.819,10.757,10.757,0,0,1-8.622,3.577" transform="translate(-641.388 -347.03)" fill="#263238"/>
          </g>
        </g>
        <g id="Group_22879" data-name="Group 22879" transform="translate(8.496 31.788)">
          <g id="Group_22878" data-name="Group 22878" transform="translate(0)">
            <path id="Path_10770" data-name="Path 10770" d="M637.788,341.793l5.757-3.752a5.259,5.259,0,0,1,1.753-.853,1.788,1.788,0,0,1,1.779.539,1.762,1.762,0,0,1,.04,1.853,4.623,4.623,0,0,1-1.337,1.408,12.931,12.931,0,0,1-4.045,2.259,5.31,5.31,0,0,1-4.164-.03" transform="translate(-637.571 -337.143)" fill="#263238"/>
          </g>
        </g>
        <g id="Group_22881" data-name="Group 22881" transform="translate(11.044 20.763)">
          <g id="Group_22880" data-name="Group 22880" transform="translate(0)">
            <path id="Path_10771" data-name="Path 10771" d="M635.872,331.374a15.194,15.194,0,0,1,6.166-4.956,2.561,2.561,0,0,1,1.291-.291,1.92,1.92,0,0,1,1.483,1.941,3.6,3.6,0,0,1-1.249,2.631,7.6,7.6,0,0,1-2.606,1.448,17.553,17.553,0,0,1-5.412,1.034" transform="translate(-635.544 -326.118)" fill="#263238"/>
          </g>
        </g>
        <g id="Group_22883" data-name="Group 22883" transform="translate(12.536 9.217)">
          <g id="Group_22882" data-name="Group 22882" transform="translate(0)">
            <path id="Path_10772" data-name="Path 10772" d="M634.716,321.722c1.33-2.81,3.632-4.77,6.154-6.587a1.868,1.868,0,0,1,1.809-.46,1.254,1.254,0,0,1,.632,1.019,2.927,2.927,0,0,1-.206,1.226,9.516,9.516,0,0,1-8.45,6.243" transform="translate(-634.655 -314.571)" fill="#263238"/>
          </g>
        </g>
        <g id="Group_22885" data-name="Group 22885" transform="translate(9.992)">
          <g id="Group_22884" data-name="Group 22884" transform="translate(0)">
            <path id="Path_10773" data-name="Path 10773" d="M644.029,316.693a25.386,25.386,0,0,0,1.587-4.492,8.516,8.516,0,0,0-.17-4.707,3.666,3.666,0,0,0-1.128-1.68,2,2,0,0,0-1.929-.339,2.109,2.109,0,0,0-1.149,1.429,5.341,5.341,0,0,0-.082,1.888c.265,3.014,1.179,6.547,2.871,7.9" transform="translate(-641.114 -305.354)" fill="#263238"/>
          </g>
        </g>
      </g>
      <g id="Group_22908" data-name="Group 22908" transform="translate(0 17.174)">
        <g id="Group_22889" data-name="Group 22889" transform="translate(7.994 2.431)">
          <g id="Group_22888" data-name="Group 22888" transform="translate(0)">
            <g id="Group_22887" data-name="Group 22887" transform="translate(0)">
              <path id="Path_10774" data-name="Path 10774" d="M675.351,307.409a2.756,2.756,0,0,0-.048.545c-.015.4-.034.918-.058,1.566-.026.68-.045,1.513-.03,2.479s0,2.069.059,3.285c.07,2.434.276,5.328.625,8.529.376,3.2.91,6.7,1.663,10.341.773,3.637,1.692,7.061,2.633,10.14.967,3.072,1.941,5.806,2.855,8.063.432,1.138.886,2.142,1.265,3.031s.727,1.646,1.024,2.259c.282.583.509,1.051.682,1.41a2.7,2.7,0,0,0,.263.48,2.757,2.757,0,0,0-.189-.514c-.156-.366-.36-.845-.613-1.441-.275-.621-.6-1.384-.959-2.282s-.794-1.9-1.208-3.047c-.878-2.264-1.821-5-2.766-8.067-.918-3.076-1.822-6.49-2.593-10.114-.75-3.628-1.294-7.116-1.689-10.3-.367-3.188-.6-6.071-.709-8.5-.08-1.212-.086-2.311-.118-3.275s-.04-1.8-.039-2.476c-.007-.647-.013-1.167-.017-1.565A2.869,2.869,0,0,0,675.351,307.409Z" transform="translate(-675.209 -307.409)" fill="#455a64"/>
            </g>
          </g>
        </g>
        <g id="Group_22891" data-name="Group 22891" transform="translate(9.091 13.41)">
          <g id="Group_22890" data-name="Group 22890" transform="translate(0)">
            <path id="Path_10775" data-name="Path 10775" d="M679.8,325.093a9.094,9.094,0,0,1,2.181-5.732,2.178,2.178,0,0,1,1.808-.96c.939.136,1.367,1.262,1.4,2.21a6.691,6.691,0,0,1-1.5,4.436,5.648,5.648,0,0,1-3.649,2.254" transform="translate(-679.796 -318.388)" fill="#455a64"/>
          </g>
        </g>
        <g id="Group_22893" data-name="Group 22893" transform="translate(11.152 22.28)">
          <g id="Group_22892" data-name="Group 22892" transform="translate(0)">
            <path id="Path_10776" data-name="Path 10776" d="M678.324,336.582c-.117-2.469.676-6.284,2.119-8.292a2.9,2.9,0,0,1,.815-.832,1.2,1.2,0,0,1,1.119-.105,1.689,1.689,0,0,1,.713,1.439,9.639,9.639,0,0,1-4.644,9.011" transform="translate(-678.313 -327.257)" fill="#455a64"/>
          </g>
        </g>
        <g id="Group_22895" data-name="Group 22895" transform="translate(13.846 33.577)">
          <g id="Group_22894" data-name="Group 22894" transform="translate(0)">
            <path id="Path_10777" data-name="Path 10777" d="M674.617,346.426a14,14,0,0,1,2.619-6.842,2.174,2.174,0,0,1,1.346-1.02c.872-.112,1.565.777,1.756,1.636.394,1.766-.484,3.56-1.5,5.056a18.337,18.337,0,0,1-3.368,3.339" transform="translate(-674.617 -338.554)" fill="#455a64"/>
          </g>
        </g>
        <g id="Group_22897" data-name="Group 22897" transform="translate(16.274 42.002)">
          <g id="Group_22896" data-name="Group 22896" transform="translate(0)">
            <path id="Path_10778" data-name="Path 10778" d="M673.079,353.343a13.473,13.473,0,0,1,2.368-5.381,2.8,2.8,0,0,1,.953-.848,1.185,1.185,0,0,1,1.22.07c.542.427.422,1.275.191,1.926a11.061,11.061,0,0,1-4.055,5.541" transform="translate(-673.079 -346.98)" fill="#455a64"/>
          </g>
        </g>
        <g id="Group_22899" data-name="Group 22899" transform="translate(6.733 41.676)">
          <g id="Group_22898" data-name="Group 22898" transform="translate(0)">
            <path id="Path_10779" data-name="Path 10779" d="M686.878,350.563a43.245,43.245,0,0,0-6.993-3.716,1.246,1.246,0,0,0-1.18-.066.827.827,0,0,0-.26.865,2.1,2.1,0,0,0,.48.819,10.753,10.753,0,0,0,8.622,3.576" transform="translate(-678.417 -346.654)" fill="#455a64"/>
          </g>
        </g>
        <g id="Group_22901" data-name="Group 22901" transform="translate(2.916 31.789)">
          <g id="Group_22900" data-name="Group 22900" transform="translate(0)">
            <path id="Path_10780" data-name="Path 10780" d="M691.148,341.417l-5.758-3.752a5.258,5.258,0,0,0-1.753-.853,1.788,1.788,0,0,0-1.779.539,1.762,1.762,0,0,0-.04,1.852,4.615,4.615,0,0,0,1.337,1.409,12.93,12.93,0,0,0,4.045,2.259,5.311,5.311,0,0,0,4.164-.03" transform="translate(-681.575 -336.767)" fill="#455a64"/>
          </g>
        </g>
        <g id="Group_22903" data-name="Group 22903" transform="translate(0.889 20.764)">
          <g id="Group_22902" data-name="Group 22902" transform="translate(0)">
            <path id="Path_10781" data-name="Path 10781" d="M693.063,331a15.188,15.188,0,0,0-6.166-4.956,2.561,2.561,0,0,0-1.291-.291,1.92,1.92,0,0,0-1.483,1.941,3.6,3.6,0,0,0,1.249,2.631,7.6,7.6,0,0,0,2.606,1.448,17.551,17.551,0,0,0,5.412,1.034" transform="translate(-684.123 -325.742)" fill="#455a64"/>
          </g>
        </g>
        <g id="Group_22905" data-name="Group 22905" transform="translate(0 9.217)">
          <g id="Group_22904" data-name="Group 22904" transform="translate(0)">
            <path id="Path_10782" data-name="Path 10782" d="M694.22,321.346c-1.331-2.81-3.633-4.771-6.155-6.587a1.865,1.865,0,0,0-1.809-.46,1.254,1.254,0,0,0-.632,1.019,2.922,2.922,0,0,0,.206,1.225,9.516,9.516,0,0,0,8.45,6.244" transform="translate(-685.615 -314.195)" fill="#455a64"/>
          </g>
        </g>
        <g id="Group_22907" data-name="Group 22907" transform="translate(6.458)">
          <g id="Group_22906" data-name="Group 22906" transform="translate(0)">
            <path id="Path_10783" data-name="Path 10783" d="M684.906,316.317a25.368,25.368,0,0,1-1.587-4.493,8.513,8.513,0,0,1,.17-4.706,3.66,3.66,0,0,1,1.129-1.68,2,2,0,0,1,1.928-.34,2.113,2.113,0,0,1,1.149,1.43,5.341,5.341,0,0,1,.082,1.888c-.265,3.013-1.179,6.547-2.871,7.9" transform="translate(-683.071 -304.978)" fill="#455a64"/>
          </g>
        </g>
      </g>
      <g id="Group_22910" data-name="Group 22910" transform="translate(3.449 71.733)">
        <g id="Group_22909" data-name="Group 22909">
          <path id="Path_10784" data-name="Path 10784" d="M690.831,359.537v7.258a2.857,2.857,0,0,1-2.857,2.857H638.318a2.857,2.857,0,0,1-2.857-2.857v-7.258Z" transform="translate(-635.461 -359.537)" fill="#e8505b"/>
        </g>
      </g>
      <g id="Group_22912" data-name="Group 22912" transform="translate(7.123 81.849)" opacity="0.4">
        <g id="Group_22911" data-name="Group 22911" transform="translate(0)">
          <path id="Path_10785" data-name="Path 10785" d="M687.157,369.652l-.412,2.311-45.818,3.265-1.161-5.576Z" transform="translate(-639.766 -369.652)"/>
        </g>
      </g>
    </g>
    <g transform="matrix(1, 0, 0, 1, 620, 508.65)" filter="url(#Path_10740)">
      <path id="Path_10740-2" data-name="Path 10740" d="M-7577.26,13502.047l-208.739,103.9" transform="translate(7926.23 -13465.07)" fill="none" stroke="#5091cd" stroke-width="3"/>
    </g>
    <g transform="matrix(1, 0, 0, 1, 620, 508.65)" filter="url(#Path_10741)">
      <path id="Path_10741-2" data-name="Path 10741" d="M-7786,13502.045l213.377,104.74" transform="translate(8148.06 -13465.91)" fill="none" stroke="#5091cd" stroke-width="3"/>
    </g>
    <g transform="matrix(1, 0, 0, 1, 620, 508.65)" filter="url(#Ellipse_68)">
      <circle id="Ellipse_68-2" data-name="Ellipse 68" cx="10.011" cy="10.011" r="10.011" transform="translate(341 40.16) rotate(-45)" fill="#35485b"/>
    </g>
    <g id="browser" transform="translate(-416.62 85.909)">
      <path id="Rectangle_11235" data-name="Rectangle 11235" d="M0,0H529a0,0,0,0,1,0,0V210a16,16,0,0,1-16,16H16A16,16,0,0,1,0,210V0A0,0,0,0,1,0,0Z" transform="translate(1128.62 585)" fill="#243c96"/>
      <rect id="Rectangle_11256" data-name="Rectangle 11256" width="44" height="307" rx="16" transform="translate(1456.146 572.714) rotate(-34)" fill="#fff" opacity="0.15"/>
      <path id="Rectangle_11233" data-name="Rectangle 11233" d="M25,0H504a25,25,0,0,1,25,25V50a0,0,0,0,1,0,0H0a0,0,0,0,1,0,0V25A25,25,0,0,1,25,0Z" transform="translate(1128.62 535)" fill="#dcdee6"/>
      <rect id="Rectangle_11234" data-name="Rectangle 11234" width="131" height="12" rx="6" transform="translate(1168.62 554)" fill="#243c96"/>
      <circle id="Ellipse_70" data-name="Ellipse 70" cx="6" cy="6" r="6" transform="translate(1546.62 554)" fill="#243c96"/>
      <circle id="Ellipse_71" data-name="Ellipse 71" cx="6" cy="6" r="6" transform="translate(1580.62 554)" fill="#243c96"/>
      <circle id="Ellipse_72" data-name="Ellipse 72" cx="6" cy="6" r="6" transform="translate(1612.62 554)" fill="#f2f5f9"/>
    </g>
    <rect id="Rectangle_11232" data-name="Rectangle 11232" width="489" height="181" rx="8" transform="translate(732 693.909)" fill="#fff"/>
    <ellipse id="Ellipse_69" data-name="Ellipse 69" cx="198.786" cy="13.824" rx="198.786" ry="13.824" transform="translate(770.271 925.029)" opacity="0.12"/>
    <g id="gear" transform="translate(1028.21 977.805)">
      <path id="Path_10612" data-name="Path 10612" d="M2510.716,4940.764v3.548l-3.052.7v-4.247Z" transform="translate(-2461.029 -4918.831)" fill="#2a2a63"/>
      <path id="Path_10613" data-name="Path 10613" d="M2510.716,4940.764v3.548l-3.052.7v-4.247Z" transform="translate(-2461.029 -4929.057)" fill="#2a2a63"/>
      <path id="Path_10614" data-name="Path 10614" d="M2507.664,4940.764v3.548l3.052.7v-4.247Z" transform="translate(-2507.637 -4929.057)" fill="#2a2a63"/>
      <path id="Path_10615" data-name="Path 10615" d="M2507.664,4940.764v3.439l3.052.676v-4.115Z" transform="translate(-2507.637 -4918.923)" fill="#2a2a63"/>
      <g transform="matrix(1, 0, 0, 1, -408.21, -469.15)" filter="url(#cog)">
        <path id="cog-2" data-name="cog" d="M27.12,24.767c-4.937,0-8.939-2.643-8.939-5.9s4-5.9,8.939-5.9,8.939,2.643,8.939,5.9-4,5.9-8.939,5.9M46.1,20.5a8.75,8.75,0,0,0,.179-1.636,9.623,9.623,0,0,0-.179-1.686l5.389-2.749a.676.676,0,0,0,.306-1.079L46.683,7.515a1.608,1.608,0,0,0-1.558-.371L38.766,8.83A22.228,22.228,0,0,0,34.45,7.177L33.5,2.708A1.257,1.257,0,0,0,32.228,2H22.012a1.254,1.254,0,0,0-1.277.708L19.79,7.177A22.228,22.228,0,0,0,15.473,8.83L9.114,7.144a1.608,1.608,0,0,0-1.558.371L2.448,13.35c-.332.371-.179.826.306,1.079l5.389,2.749a9.622,9.622,0,0,0-.179,1.686A8.75,8.75,0,0,0,8.143,20.5L2.754,23.3c-.485.253-.639.708-.306,1.079l5.108,5.835a1.649,1.649,0,0,0,1.558.371l6.36-1.7a21.214,21.214,0,0,0,4.316,1.67l.945,4.469a1.254,1.254,0,0,0,1.277.708H32.228A1.254,1.254,0,0,0,33.5,35.02l.945-4.469a22.245,22.245,0,0,0,4.316-1.67l6.36,1.7a1.649,1.649,0,0,0,1.558-.371l5.108-5.835a.676.676,0,0,0-.306-1.079L46.1,20.5Z" transform="translate(405.94 467.15)" fill="#489fef"/>
      </g>
    </g>
    <g id="cone" transform="translate(1129.74 861.536)">
      <g transform="matrix(1, 0, 0, 1, -509.74, -352.89)" filter="url(#Ellipse_59)">
        <ellipse id="Ellipse_59-3" data-name="Ellipse 59" cx="38.551" cy="24.731" rx="38.551" ry="24.731" transform="translate(509.74 415.37)" fill="#2e81cc"/>
      </g>
      <path id="Union_8" data-name="Union 8" d="M23.671,98.1C17.032,98.1-.177,95.5,0,89.091.19,82.3,15.856,3.02,15.856,3.02S17.726.215,24.632,0V0h.1V0C31.633.215,33.5,3.02,33.5,3.02S49.17,82.3,49.358,89.091s-18.5,8.976-25.486,9.032h-.007A.9.9,0,0,1,23.671,98.1Z" transform="translate(13.587 0)" fill="#3c98ec"/>
      <g id="Mask_Group_5" data-name="Mask Group 5" transform="translate(13.587 0)" clip-path="url(#clip-path)">
        <path id="Path_10608" data-name="Path 10608" d="M2404.776,4343.156l1.719,9.622s-8.055,4.467-20.686,4.725-19.866-5.5-19.866-5.5l1.31-8.49s7.217,4.555,18.557,4.382A41.159,41.159,0,0,0,2404.776,4343.156Z" transform="translate(-2361.654 -4292.438)" fill="#ded9d7"/>
        <path id="Path_10609" data-name="Path 10609" d="M2393.638,4344.215l1.546,8.693a37.8,37.8,0,0,1-15.737,3.866,26.435,26.435,0,0,1-15.278-4.21l1.771-8.349a21.968,21.968,0,0,0,13.507,4.138A28.939,28.939,0,0,0,2393.638,4344.215Z" transform="translate(-2355.071 -4316.88)" fill="#ded9d7"/>
      </g>
      <ellipse id="Ellipse_60" data-name="Ellipse 60" cx="7.71" cy="3.404" rx="7.71" ry="3.404" transform="translate(30.608 0.395)" fill="#fdc25d"/>
    </g>
    <g id="cone-2" data-name="cone" transform="translate(789.269 918.08)">
      <g transform="matrix(1, 0, 0, 1, -169.27, -409.43)" filter="url(#Ellipse_59-2)">
        <ellipse id="Ellipse_59-4" data-name="Ellipse 59" cx="29.022" cy="18.618" rx="29.022" ry="18.618" transform="translate(169.27 456.47)" fill="#2e81cc"/>
      </g>
      <path id="Union_8-2" data-name="Union 8" d="M17.82,73.853c-5,0-17.953-1.959-17.819-6.783.142-5.116,11.936-64.8,11.936-64.8S13.345.162,18.543,0V0h.072V0c5.2.159,6.606,2.271,6.606,2.271s11.794,59.68,11.936,64.8-13.929,6.757-19.186,6.8h-.006A.681.681,0,0,1,17.82,73.853Z" transform="translate(10.228 0)" fill="#3c98ec"/>
      <g id="Mask_Group_5-2" data-name="Mask Group 5" transform="translate(10.228 0)" clip-path="url(#clip-path-2)">
        <path id="Path_10608-2" data-name="Path 10608" d="M2395.177,4343.156l1.293,7.243a36.2,36.2,0,0,1-15.572,3.558c-9.507.195-14.956-4.139-14.956-4.139l.986-6.392a27.3,27.3,0,0,0,13.97,3.3A30.991,30.991,0,0,0,2395.177,4343.156Z" transform="translate(-2362.714 -4304.974)" fill="#ded9d7"/>
        <path id="Path_10609-2" data-name="Path 10609" d="M2386.354,4344.215l1.164,6.544a28.459,28.459,0,0,1-11.847,2.911,19.906,19.906,0,0,1-11.5-3.169l1.333-6.286a16.536,16.536,0,0,0,10.168,3.115A21.785,21.785,0,0,0,2386.354,4344.215Z" transform="translate(-2357.32 -4323.637)" fill="#ded9d7"/>
      </g>
      <ellipse id="Ellipse_60-2" data-name="Ellipse 60" cx="5.804" cy="2.563" rx="5.804" ry="2.563" transform="translate(23.042 0.297)" fill="#fdc25d"/>
    </g>
    <text id="Ar-text" transform="translate(976 793.909)" fill="#454e5a" font-size="25" font-family="Cairo-SemiBold, Cairo" font-weight="600"><tspan x="-196.812" y="0">Sorry, the page will be available soon</tspan></text>
  </g>
</svg>
