<svg xmlns="http://www.w3.org/2000/svg" width="62.256" height="60.88" viewBox="0 0 62.256 60.88">
  <g id="Icon" transform="translate(2.13 2.836)">
    <rect id="base" width="62.256" height="59.412" transform="translate(-2.13 -1.836)" fill="none"/>
    <g id="Group_22388" data-name="Group 22388" transform="translate(-0.131 0.164)">
      <path id="Path_5882" data-name="Path 5882" d="M43.336,24.049c-.48-2.178-2.017-4.4-2.539-6.561a9.771,9.771,0,0,0-1.2-2.232l-.51.2c.136,3.471.218,6.945.425,10.411a16.221,16.221,0,0,0,3.209,9.469,18.941,18.941,0,0,1,1.405,2.286c.755,1.294.613,2.341-.378,2.928-1.021.6-2.109.21-2.9-1.084-1.208-1.989-2.442-3.964-3.577-5.993a7.71,7.71,0,0,1-.782-2.374c-.369-2.045-.645-4.108-.944-6.072H26.729c.934,2.508,1.815,4.831,2.66,7.164.489,1.349.1,2.4-.966,2.79-1.09.4-2.017-.117-2.55-1.512-1.161-3.043-2.309-6.092-3.422-9.153-.668-1.833.144-2.9,2.169-2.927,1.478-.018,2.957,0,4.445,0V13.3c-1.22.444-2.314.837-3.4,1.242a2.138,2.138,0,0,1-2.559-.588c-1.914-2.081-3.878-4.118-5.8-6.189-1.008-1.083-1.04-2.129-.143-2.931.878-.785,1.895-.644,2.942.45,1.4,1.461,2.813,2.905,4.137,4.428a1.744,1.744,0,0,0,2.287.577,18.631,18.631,0,0,1,5.538-1.507c6.384-.251,6.394-.148,10.7,4.517a5.07,5.07,0,0,1,1.422,1.907c.63,2.777,2.349,5.59,2.768,8.407a2.141,2.141,0,0,1-.667,1.616c-1.081.966-2.6.351-2.943-1.187" transform="translate(0.39 -1.897)" fill="none" stroke="#243c96" stroke-width="2"/>
      <path id="Path_5883" data-name="Path 5883" d="M2.2,50.818c.71-.677,1.411-1.363,2.4-2.322v2.772H51.761V7.8l-2.35-.1,4.151-4.135,4.7,4.235H55.6V54.966H4.617c-.049.869-.094,1.639-.136,2.363C2.989,55.847,1.546,54.416,0,52.88c.7-.656,1.457-1.353,2.2-2.063" transform="translate(0 0.552)" fill="#243c96"/>
      <g id="Rectangle_10966" data-name="Rectangle 10966" transform="translate(8.207 26.871)" fill="none" stroke="#243c96" stroke-width="2">
        <rect width="12.344" height="23.513" stroke="none"/>
        <rect x="1" y="1" width="10.344" height="21.513" fill="none"/>
      </g>
      <g id="Rectangle_10967" data-name="Rectangle 10967" transform="translate(23.368 36.748)" fill="none" stroke="#243c96" stroke-width="2">
        <rect width="11.009" height="13.636" stroke="none"/>
        <rect x="1" y="1" width="9.009" height="11.636" fill="none"/>
      </g>
      <g id="Rectangle_10968" data-name="Rectangle 10968" transform="translate(37.169 42.479)" fill="none" stroke="#243c96" stroke-width="2">
        <rect width="12.429" height="7.844" stroke="none"/>
        <rect x="1" y="1" width="10.429" height="5.844" fill="none"/>
      </g>
      <path id="Path_5884" data-name="Path 5884" d="M33.8,7.549a3.88,3.88,0,0,1-3.742-3.815,3.828,3.828,0,0,1,7.655.02A3.914,3.914,0,0,1,33.8,7.549" transform="translate(0.71 -2)" fill="none" stroke="#243c96" stroke-width="2"/>
    </g>
  </g>
</svg>
