<svg xmlns="http://www.w3.org/2000/svg" width="62.893" height="59.767" viewBox="0 0 62.893 59.767">
  <g id="Icon" transform="translate(-3.754 9.687)">
    <rect id="base" width="62.893" height="59.767" transform="translate(3.754 -9.687)" fill="none"/>
    <g id="Group_22373" data-name="Group 22373" transform="translate(-127.533 -16.173)">
      <path id="Path_519" data-name="Path 519" d="M177.921,64.115a1.08,1.08,0,0,1-.578-.168l-13.2-8.359V60.55a1.085,1.085,0,1,1-2.171,0V55.588l-13.193,8.359a1.085,1.085,0,0,1-1.162-1.834l14.355-9.1v-5.6H139.07V14.646h-2.7a1.085,1.085,0,0,1,0-2.171h25.6V9.57a1.085,1.085,0,1,1,2.171,0v2.905h25.608a1.085,1.085,0,0,1,0,2.171h-2.7V47.416H164.147v5.6l14.357,9.1a1.086,1.086,0,0,1-.583,2m-14.859-18.87h21.825V14.793H141.239V45.245Z" transform="translate(0 0)" fill="#243c96"/>
      <path id="Path_520" data-name="Path 520" d="M146.2,35.592l-3-3.914a1.086,1.086,0,0,1,1.725-1.32l1.274,1.665,1.589-2.077a1.087,1.087,0,0,1,1.725,1.322Zm25.069-2.473H154.36a1.085,1.085,0,1,1,0-2.171h16.912a1.085,1.085,0,1,1,0,2.171M146.2,28.458l-3-3.914a1.086,1.086,0,0,1,1.725-1.32l1.274,1.664,1.589-2.075a1.086,1.086,0,0,1,1.725,1.32Zm25.069-2.472H154.36a1.085,1.085,0,1,1,0-2.171h16.912a1.085,1.085,0,1,1,0,2.171M146.2,21.325l-3-3.912a1.087,1.087,0,0,1,1.725-1.322l1.274,1.664,1.589-2.075A1.086,1.086,0,0,1,149.517,17Zm25.069-2.472H154.36a1.085,1.085,0,1,1,0-2.171h16.912a1.085,1.085,0,1,1,0,2.171" transform="translate(5.394 4.745)" fill="#243c96"/>
    </g>
  </g>
</svg>
