<svg xmlns="http://www.w3.org/2000/svg" width="62.345" height="59.28" viewBox="0 0 62.345 59.28">
  <g id="Icon" transform="translate(-1317 -697)">
    <rect id="base" width="62.345" height="59.28" transform="translate(1317 697)" fill="none"/>
    <g id="Group_22375" data-name="Group 22375" transform="translate(1047.534 483.671)">
      <path id="Path_228" data-name="Path 228" d="M295.792,242.783c-3.726-.179-7.308-3.406-8.86-7.8a2.236,2.236,0,0,1-1.495-.44,2.292,2.292,0,0,1-.92-1.511l-.619-3.96a2.3,2.3,0,0,1,.421-1.718,2.277,2.277,0,0,1,.9-.738,7.333,7.333,0,0,1-.1-1.231V223.93a7.5,7.5,0,0,1,7.492-7.492h.028c.969-1.614,4.282-1.272,7.092-.21a16.052,16.052,0,0,1,1.822.823,7.446,7.446,0,0,1,4.537,6.88v1.456a7.51,7.51,0,0,1-.1,1.231,2.308,2.308,0,0,1,1.321,2.458l-.612,3.959a2.313,2.313,0,0,1-2.136,1.95c-1.55,4.391-5.133,7.621-8.766,7.8m-7.443-10.039.242.853c1.126,3.951,4.221,7.038,7.2,7.183,2.871-.144,5.963-3.216,7.095-7.143l.243-.846,1.23.188a.332.332,0,0,0,.353-.254l.614-3.959a.307.307,0,0,0-.254-.349l-1.6-.254.355-1.112a5.439,5.439,0,0,0,.261-1.665V223.93a5.491,5.491,0,0,0-3.39-5.071,15.2,15.2,0,0,0-1.674-.757c-2.679-1.014-4.421-.832-4.694-.586l.052,1.052-1-.127h-.773a5.5,5.5,0,0,0-5.488,5.488v1.456a5.406,5.406,0,0,0,.262,1.663l.358,1.115-1.6.251a.344.344,0,0,0-.258.352l.617,3.957a.3.3,0,0,0,.121.2.352.352,0,0,0,.225.055Z" transform="translate(4.794 0)" fill="#243c96"/>
      <path id="Path_229" data-name="Path 229" d="M304.08,245.567h-7.018a1,1,0,0,1,0-2h7.018a1,1,0,1,1,0,2" transform="translate(11.747 16.104)" fill="#243c96"/>
      <path id="Path_230" data-name="Path 230" d="M304.247,259.284,300.838,241.2l1.7-4.389H298.6l1.7,4.392-3.5,18.064-4.937-23.17c-3.2,1.517-9.274,2.792-10.6,3.059-1.407.286-3.792,1.313-3.792,3.346v1.113l1.16,10.482a1,1,0,0,1-1.991.218l-1.165-10.592-.006-1.222c0-2.911,2.71-4.764,5.4-5.309,3.205-.647,9.128-2.085,10.994-3.381l.2-.135,1.16-.162.336.892,3.156,14.81,1.517-7.828-2.55-6.581h9.793l-2.552,6.584,1.471,7.8,3.4-15.7,1.156.163.339.154c1.869,1.3,7.789,2.736,10.991,3.381,2.688.545,5.4,2.4,5.4,5.309v1.113l-1.173,10.7a1,1,0,1,1-1.99-.218l1.165-10.592-.006-1c0-2.032-2.384-3.061-3.794-3.346-1.325-.267-7.4-1.542-10.6-3.061Z" transform="translate(0 10.358)" fill="#243c96"/>
    </g>
  </g>
</svg>
