<svg xmlns="http://www.w3.org/2000/svg" width="47.216" height="46.532" viewBox="0 0 47.216 46.532">
  <g id="Icon" transform="translate(0 0)">
    <rect id="base" width="47.215" height="46.531" transform="translate(0 0)" fill="none"/>
    <path id="Path_5882" data-name="Path 5882" d="M37.251,20.314c-.389-1.765-.635-3.562-1.058-5.318a7.919,7.919,0,0,0-.976-1.809l-.413.163c.11,2.813.177,5.629.344,8.438a13.147,13.147,0,0,0,2.6,7.674,15.351,15.351,0,0,1,1.139,1.853c.612,1.049.5,1.9-.306,2.373-.827.49-1.709.17-2.347-.879-.979-1.612-1.979-3.212-2.9-4.857a6.249,6.249,0,0,1-.634-1.924c-.3-1.658-.523-3.329-.765-4.921H24.792c.757,2.033,1.471,3.915,2.156,5.807.4,1.093.083,1.943-.783,2.262-.884.325-1.634-.095-2.067-1.225-.941-2.466-1.872-4.937-2.773-7.419-.542-1.486.117-2.353,1.758-2.372,1.2-.015,2.4,0,3.6,0v-6.55c-.989.36-1.876.679-2.759,1.006a1.733,1.733,0,0,1-2.074-.476C20.3,10.45,18.709,8.8,17.148,7.12c-.817-.878-.843-1.726-.116-2.375s1.536-.522,2.384.365C20.548,6.294,21.7,7.465,22.769,8.7a1.413,1.413,0,0,0,1.853.468A15.1,15.1,0,0,1,29.11,7.946c5.174-.2,5.182-.12,8.671,3.661a4.109,4.109,0,0,1,1.152,1.546c.51,2.251.9,4.531,1.244,6.814a1.735,1.735,0,0,1-.541,1.31,1.44,1.44,0,0,1-2.385-.962" transform="translate(-2.813 -0.74)" fill="#243c96"/>
    <path id="Path_5883" data-name="Path 5883" d="M1.786,41.862c.576-.548,1.143-1.105,1.945-1.882v2.247H41.951V7l-1.9-.084L43.41,3.566,47.216,7H45.061V45.224H3.742c-.04.7-.076,1.328-.11,1.915-1.209-1.2-2.379-2.36-3.63-3.6.567-.532,1.181-1.1,1.785-1.672" transform="translate(0 -0.608)" fill="#243c96"/>
    <rect id="Rectangle_10966" data-name="Rectangle 10966" width="10.004" height="19.057" transform="translate(6.651 21.4)" fill="#243c96"/>
    <rect id="Rectangle_10967" data-name="Rectangle 10967" width="8.923" height="11.051" transform="translate(18.939 29.405)" fill="#243c96"/>
    <rect id="Rectangle_10968" data-name="Rectangle 10968" width="10.073" height="6.357" transform="translate(30.125 34.049)" fill="#243c96"/>
    <path id="Path_5884" data-name="Path 5884" d="M33.086,6.118a3.144,3.144,0,0,1-3.033-3.092,3.1,3.1,0,0,1,6.2.017,3.172,3.172,0,0,1-3.171,3.075" transform="translate(-5.12 0)" fill="#243c96"/>
  </g>
</svg>
