<svg xmlns="http://www.w3.org/2000/svg" width="62.345" height="59.28" viewBox="0 0 62.345 59.28">
  <g id="Icon" transform="translate(-1317 -697)">
    <rect id="base" width="62.345" height="59.28" transform="translate(1317 697)" fill="none"/>
    <g id="Group_22371" data-name="Group 22371" transform="translate(769.101 689.022)">
      <path id="Path_471" data-name="Path 471" d="M607.1,39.6H551.146a1.248,1.248,0,0,1,0-2.5H607.1a1.248,1.248,0,0,1,0,2.5" transform="translate(0 24.043)" fill="#243c96"/>
      <path id="Path_472" data-name="Path 472" d="M561.428,46.642H551.45v-18.3h9.978Zm-7.481-2.5h4.986v-13.3h-4.986Z" transform="translate(1.484 15.657)" fill="#243c96"/>
      <path id="Path_473" data-name="Path 473" d="M568.65,53.544h-9.978V21.131h9.978Zm-7.481-2.5h4.986V23.626h-4.986Z" transform="translate(8.394 8.758)" fill="#243c96"/>
      <path id="Path_474" data-name="Path 474" d="M575.872,47.38h-9.978V27.569h9.978Zm-7.483-2.5h4.986V30.068h-4.986Z" transform="translate(15.304 14.918)" fill="#243c96"/>
      <path id="Path_475" data-name="Path 475" d="M583.088,50.587h-9.972V24.221h9.972Zm-7.475-2.5h4.98V26.72h-4.98Z" transform="translate(22.214 11.714)" fill="#243c96"/>
      <path id="Path_476" data-name="Path 476" d="M556.718,37.452a5.561,5.561,0,1,1,5.561-5.565,5.57,5.57,0,0,1-5.561,5.565m0-8.626a3.063,3.063,0,1,0,3.066,3.06,3.067,3.067,0,0,0-3.066-3.06m28.264,7.111a5.563,5.563,0,1,1,5.559-5.563,5.567,5.567,0,0,1-5.559,5.563m0-8.628a3.064,3.064,0,1,0,3.064,3.064,3.068,3.068,0,0,0-3.064-3.064m14.132,2.1a5.563,5.563,0,1,1,5.563-5.561,5.568,5.568,0,0,1-5.563,5.561m0-8.628a3.064,3.064,0,1,0,3.068,3.066,3.069,3.069,0,0,0-3.068-3.066M570.85,23.1a5.562,5.562,0,1,1,5.561-5.565A5.572,5.572,0,0,1,570.85,23.1m0-8.628a3.064,3.064,0,1,0,3.064,3.062,3.068,3.068,0,0,0-3.064-3.062" transform="translate(1.204 0)" fill="#243c96"/>
      <path id="Path_477" data-name="Path 477" d="M556.582,25.229a1.248,1.248,0,0,1-.877-2.137l6.669-6.585a1.249,1.249,0,0,1,1.753,1.779l-6.669,6.583a1.248,1.248,0,0,1-.877.36" transform="translate(5.2 3.99)" fill="#243c96"/>
      <path id="Path_478" data-name="Path 478" d="M570.554,24.642a1.253,1.253,0,0,1-.843-.327l-6.731-6.16a1.249,1.249,0,0,1,1.685-1.843l6.733,6.16a1.249,1.249,0,0,1-.844,2.17" transform="translate(12.127 3.834)" fill="#243c96"/>
      <path id="Path_479" data-name="Path 479" d="M571.226,23.5a1.248,1.248,0,0,1-.544-2.372l5.07-2.464a1.248,1.248,0,1,1,1.09,2.246l-5.072,2.464a1.249,1.249,0,0,1-.544.125" transform="translate(19.211 6.28)" fill="#243c96"/>
    </g>
  </g>
</svg>
