<svg xmlns="http://www.w3.org/2000/svg" width="62.345" height="59.28" viewBox="0 0 62.345 59.28">
  <g id="icon" transform="translate(6 -1)">
    <rect id="base" width="62.345" height="59.28" transform="translate(-6 1)" fill="none"/>
    <g id="Group_48" data-name="Group 48" transform="translate(-26 3)">
      <g id="Group_48-2" data-name="Group 48" transform="translate(26 0)">
        <path id="Path_631" data-name="Path 631" d="M220.033,110H209.239A3.242,3.242,0,0,0,206,113.241v4.318a3.242,3.242,0,0,0,3.238,3.238h10.794a3.242,3.242,0,0,0,3.238-3.238v-4.318A3.242,3.242,0,0,0,220.033,110Zm1.079,7.556a1.081,1.081,0,0,1-1.079,1.079H209.239a1.081,1.081,0,0,1-1.079-1.079v-4.318a1.081,1.081,0,0,1,1.079-1.079h10.794a1.081,1.081,0,0,1,1.079,1.079Z" transform="translate(-186.572 -98.129)" fill="#243c96"/>
        <path id="Path_632" data-name="Path 632" d="M222.192,310.432H207.08a1.079,1.079,0,1,0,0,2.159h15.112a1.079,1.079,0,1,0,0-2.159Z" transform="translate(-186.572 -276.924)" fill="#243c96"/>
        <path id="Path_633" data-name="Path 633" d="M222.192,270.431H207.08a1.079,1.079,0,0,0,0,2.159h15.112a1.079,1.079,0,1,0,0-2.159Z" transform="translate(-186.572 -241.24)" fill="#243c96"/>
        <path id="Path_634" data-name="Path 634" d="M75.653,7.624V4.164a2.18,2.18,0,0,0-2.118-2.233h-2.4A3.015,3.015,0,0,0,68.325,0H30.942A4.947,4.947,0,0,0,26,4.942V50.324a4.947,4.947,0,0,0,4.942,4.942H68.325a3.014,3.014,0,0,0,3.011-3.011V45.342l2.574-.953a2.262,2.262,0,0,0,1.744-2.166v-3.46a2.273,2.273,0,0,0-.839-1.779,2.048,2.048,0,0,0,.839-1.681v-3.46a2.273,2.273,0,0,0-.839-1.779,2.048,2.048,0,0,0,.839-1.681v-3.46a2.274,2.274,0,0,0-.839-1.779,2.048,2.048,0,0,0,.839-1.681V18a2.273,2.273,0,0,0-.839-1.779,2.048,2.048,0,0,0,.839-1.681v-3.46a2.273,2.273,0,0,0-.839-1.779,2.048,2.048,0,0,0,.839-1.681ZM28.159,4.942A2.787,2.787,0,0,1,30.318,2.23V18.916a1.079,1.079,0,0,0,2.159,0V2.159h4.318V45.382H32.477V28.631a1.079,1.079,0,0,0-2.159,0V45.422a4.912,4.912,0,0,0-2.159.82Zm0,45.382a2.786,2.786,0,0,1,2.783-2.783H64.858v5.566H30.942A2.786,2.786,0,0,1,28.159,50.324Zm41.017,1.931a.853.853,0,0,1-.852.852H67.017V47.541h1.307a3,3,0,0,0,.852-.123Zm0-7.725a.853.853,0,0,1-.852.852H38.953V2.159H68.324a.853.853,0,0,1,.852.852V44.53ZM73.494,42.2a1.231,1.231,0,0,1-.334.166l-1.825.675V38.69h2.143a.166.166,0,0,1,.016.074Zm0-6.92a1.231,1.231,0,0,1-.334.166l-1.825.675V31.77h2.143a.166.166,0,0,1,.016.074Zm0-6.92a1.231,1.231,0,0,1-.334.166l-1.825.675V24.85h2.143a.166.166,0,0,1,.016.074Zm0-6.92a1.231,1.231,0,0,1-.334.166l-1.825.675V17.93h2.143a.166.166,0,0,1,.016.074Zm0-6.92a1.231,1.231,0,0,1-.334.166l-1.825.675V11.01h2.143a.166.166,0,0,1,.016.074Zm0-6.92a1.231,1.231,0,0,1-.334.166l-1.825.675V4.09h2.143a.166.166,0,0,1,.016.074Z" transform="translate(-26 0)" fill="#243c96"/>
        <path id="Path_635" data-name="Path 635" d="M67.08,212.4a1.079,1.079,0,0,0,1.079-1.079h0a1.079,1.079,0,1,0-1.079,1.08Z" transform="translate(-61.683 -187.55)" fill="#243c96"/>
      </g>
    </g>
  </g>
</svg>
