<svg xmlns="http://www.w3.org/2000/svg" width="62.345" height="59.28" viewBox="0 0 62.345 59.28">
  <g id="icon" transform="translate(6 -1)">
    <rect id="base" width="62.345" height="59.28" transform="translate(-6 1)" fill="none"/>
    <g id="Group_22377" data-name="Group 22377" transform="translate(-2 -11.223)">
      <g id="Group_22376" data-name="Group 22376" transform="translate(0 16.224)">
        <path id="Path_10597" data-name="Path 10597" d="M53.9,59.569a.8.8,0,0,0-.8.8v5.354a.135.135,0,0,1-.135.135H49.923V54.152a.8.8,0,1,0-1.6,0V65.86H42.436l1.593-1.752a1.281,1.281,0,0,0,.31-1.028l0-.024-1.79-10.577.329-.5.086.061a1.254,1.254,0,0,0,1.849-.462h0l1.822-3.651,4.161,1.612A3.989,3.989,0,0,1,53.1,53.158v3.473a.8.8,0,1,0,1.6,0V53.158a5.588,5.588,0,0,0-3.307-5.1l-.015-.006L44.3,45.307v-1.46a5.852,5.852,0,0,0,2.116-3.634,2.8,2.8,0,0,0,1.488-.655,2.759,2.759,0,0,0,.336-3.836V33.56a7.668,7.668,0,0,0-12.655-5.831,2.755,2.755,0,0,0-.62-1.668V23.9a7.674,7.674,0,1,0-15.349,0v2.219a2.614,2.614,0,0,0-.62,1.6,7.64,7.64,0,0,0-3.022-1.583.8.8,0,0,0-.408,1.55,6.073,6.073,0,0,1,4.521,5.871v1.2l-.15-.027a.923.923,0,0,0-.191-.542c-.205-.295-.574-.662-1.758-1.936a1.267,1.267,0,0,0-1.624-.2,11.451,11.451,0,0,1-6.783,1.867,1.281,1.281,0,0,0-1.409.82l-.227.046V33.56a6.111,6.111,0,0,1,4.318-5.813.8.8,0,1,0-.462-1.535,7.735,7.735,0,0,0-3.913,2.73A7.605,7.605,0,0,0,6.338,33.56v2.219a2.612,2.612,0,0,0-.622,1.689,2.767,2.767,0,0,0,2.451,2.747A5.919,5.919,0,0,0,10.4,43.942v1.366L3.322,48.052l-.015.006A5.587,5.587,0,0,0,0,53.158V65.725a1.74,1.74,0,0,0,1.738,1.738H26.416a1.727,1.727,0,0,0,.937-.276,1.726,1.726,0,0,0,.937.276H52.968a1.74,1.74,0,0,0,1.738-1.738V60.37A.8.8,0,0,0,53.9,59.569ZM8.088,38.559a1.157,1.157,0,0,1-.77-1.091,1.184,1.184,0,0,1,.77-1.043Zm37.041,8.79L43.557,50.5l-1.772-1.259,1.967-2.428Zm-4.5.778-2.073-2.558V44.8a6.463,6.463,0,0,0,2.082.341h0a5.925,5.925,0,0,0,2.058-.374v.807Zm.941,2.928-.295.444H39.98l-.295-.444.941-.668ZM27.351,38.465l-2.073-2.558v-.769a6.462,6.462,0,0,0,2.082.341h0a5.923,5.923,0,0,0,2.058-.374v.807Zm.941,2.928L28,41.837H26.7l-.295-.444.941-.668ZM21.04,30.476a2.866,2.866,0,0,0,.4.077,5.919,5.919,0,0,0,2.233,3.728v1.366l-1.635.634a2.746,2.746,0,0,0-.354-.558V33.56A7.656,7.656,0,0,0,21.04,30.476Zm10.569-.849a4.322,4.322,0,0,1-8.642,0V25.874a13.123,13.123,0,0,0,7.308-1.986c.723.775,1.153,1.225,1.334,1.434C31.609,27.317,31.609,28.087,31.609,29.628Zm1.529.925a2.883,2.883,0,0,0,.4-.077,7.628,7.628,0,0,0-.649,3.084v2.219a2.735,2.735,0,0,0-.317.468l-1.55-.6v-1.46A5.853,5.853,0,0,0,33.138,30.553Zm-8.915,6.6,1.967,2.428-1.342.953,0,0-.426.3-1.573-3.153Zm4.972,1.58,1.281-1.581,1.378.534L30.281,40.84l-.427-.3h0l-1.344-.955Zm.4,3.587.086.061a1.254,1.254,0,0,0,1.849-.462h0l1.352-2.711a2.813,2.813,0,0,0,1.829,1.007,5.826,5.826,0,0,0,2.236,3.726v1.365l-6.813,2.641-.869-5.132Zm7.9,4.495,1.967,2.428L37.7,50.5l-1.573-3.153Zm7.386-7.527a4.322,4.322,0,0,1-8.642,0V35.535a13.129,13.129,0,0,0,7.308-1.986c.723.775,1.153,1.225,1.334,1.434C44.884,36.978,44.884,37.748,44.884,39.289Zm2.373-1.822a1.157,1.157,0,0,1-.77,1.091v-2.18A1.155,1.155,0,0,1,47.258,37.467ZM34.492,33.56a6.072,6.072,0,1,1,12.143,0v1.2c-.036-.008-.137-.025-.15-.027a.923.923,0,0,0-.191-.542c-.211-.3-.575-.663-1.758-1.936a1.268,1.268,0,0,0-1.624-.2,11.472,11.472,0,0,1-6.843,1.864,1.26,1.26,0,0,0-1.35.823l-.227.046V33.56Zm.148,2.865v2.133a1.154,1.154,0,0,1-.77-1.09A1.183,1.183,0,0,1,34.64,36.425Zm-.658-8.618a1.153,1.153,0,0,1-.4.875,1.186,1.186,0,0,1-.369.216v-2.18A1.155,1.155,0,0,1,33.982,27.806Zm-6.694-9.98A6.079,6.079,0,0,1,33.359,23.9v1.2l-.15-.027a.971.971,0,0,0-.227-.591c-.215-.29-.61-.69-1.723-1.886a1.267,1.267,0,0,0-1.624-.2,11.447,11.447,0,0,1-6.908,1.861,1.273,1.273,0,0,0-1.285.827l-.227.046V23.9h0A6.079,6.079,0,0,1,27.288,17.827Zm-5.924,8.937V28.9a1.157,1.157,0,0,1-.77-1.091A1.184,1.184,0,0,1,21.364,26.763Zm-1.428,9.615a1.157,1.157,0,0,1,0,2.179Zm-.074,3.838a2.81,2.81,0,0,0,1.9-1.106l1.4,2.809h0a1.254,1.254,0,0,0,1.849.462l.086-.061.329.5-.868,5.13-6.817-2.64V43.848h0A5.858,5.858,0,0,0,19.862,40.216Zm-5.787,7.91L12,45.568V44.8a6.46,6.46,0,0,0,2.083.341h0a5.922,5.922,0,0,0,2.058-.374v.807Zm.941,2.928-.295.444H13.429l-.295-.444.941-.668ZM17.2,46.815l1.378.534L17.005,50.5l-.427-.3h0l-1.344-.955ZM9.691,39.289V35.535A13.135,13.135,0,0,0,17,33.549c.716.768,1.152,1.225,1.334,1.434v4.306a4.322,4.322,0,0,1-8.642,0Zm1.256,7.527,1.967,2.428-1.342.953,0,0-.426.3L9.572,47.349ZM6.385,65.86V54.152a.8.8,0,1,0-1.6,0V65.86H1.738a.135.135,0,0,1-.135-.135V53.158a3.989,3.989,0,0,1,2.309-3.616L8.07,47.93l1.822,3.651h0a1.254,1.254,0,0,0,1.849.462l.086-.061.329.5-1.79,10.577,0,.024a1.283,1.283,0,0,0,.31,1.028l1.592,1.752H6.385Zm5.589-2.7,1.7-10.056h.8l1.7,10.056-2.1,2.311Zm14.577,2.568a.135.135,0,0,1-.135.135H23.372V54.152a.8.8,0,1,0-1.6,0V65.86H15.885l1.593-1.752a1.281,1.281,0,0,0,.31-1.028l0-.024-1.79-10.577.329-.5.086.061a1.254,1.254,0,0,0,1.849-.462h0l1.822-3.651,4.161,1.612a3.98,3.98,0,0,1,2.311,3.616V65.725Zm.8-15.479a5.706,5.706,0,0,0-1.307-1.452l.906-5.354h.8l.907,5.357A5.71,5.71,0,0,0,27.353,50.246ZM32.937,65.86h0V54.152a.8.8,0,1,0-1.6,0V65.86H28.289a.135.135,0,0,1-.135-.135V53.158a3.83,3.83,0,0,1,.935-2.567,4.314,4.314,0,0,1,1.374-1.048l4.159-1.612,1.822,3.651h0a1.254,1.254,0,0,0,1.849.462l.086-.061.329.5-1.79,10.577,0,.024a1.283,1.283,0,0,0,.31,1.028l1.592,1.752h-5.88Zm5.589-2.7,1.7-10.056h.8l1.7,10.056-2.1,2.311Z" transform="translate(0 -16.224)" fill="#243c96"/>
      </g>
    </g>
  </g>
</svg>
