<svg xmlns="http://www.w3.org/2000/svg" width="62.345" height="59.28" viewBox="0 0 62.345 59.28">
  <g id="Icon" transform="translate(-1317 -697)">
    <rect id="base" width="62.345" height="59.28" transform="translate(1317 697)" fill="none"/>
    <path id="Path_5874" data-name="Path 5874" d="M59.009,46.112c0,1.817.011,3.634-.01,5.448-4.525-.033-9.045.021-13.567-.027.018-1.807.009-3.612.009-5.418q6.784-.008,13.568,0M48.181,24.389c.011,1.809-.013,3.617.017,5.425-4.53.039-9.056.006-13.585.017,0-1.817-.011-3.63.01-5.448,4.52.017,9.038.009,13.558.005M37.341,2.715c-.005,1.814,0,3.628,0,5.442q-6.794-.021-13.588,0c0-1.814,0-3.628,0-5.444q6.8,0,13.593,0M40.033,0H21.053q.01,5.421,0,10.84,4.065,0,8.125,0v4.1c-4.056-.019-8.116,0-12.173-.011C17,17.188,17,19.448,17,21.707c-2.707,0-5.417.005-8.125-.005,0,1.352,0,2.7,0,4.056q1.341,0,2.68,0c0-.459-.005-.918-.011-1.374q6.78-.013,13.56,0c.009,1.817,0,3.634.009,5.453-.451,0-.9,0-1.355-.005,0,.9,0,1.806-.01,2.71q2.039,0,4.074,0,0-5.421,0-10.837c-2.716.009-5.434,0-8.152.005q-.008-2.044,0-4.089,10.186,0,20.377,0,0,2.05,0,4.1c-2.714,0-5.429,0-8.142-.005V32.538q4.068,0,8.142,0c0,1.355,0,2.71.01,4.068H29.178v6.8c-1.359-.006-2.721,0-4.08,0q.016,1.352.02,2.707c4.076-.021,8.153-.007,12.228-.007-.013,1.816-.005,3.634-.009,5.45q-4.081-.008-8.162,0c0,.9.007,1.795.007,2.692,3.62-.014,7.237-.009,10.858,0-.013-3.611-.018-7.223,0-10.831q-4.065-.01-8.133,0V39.332q9.494,0,18.983,0,0,2.045,0,4.087c-2.71-.011-5.417-.005-8.123,0-.006,3.606.005,7.213-.006,10.82,6.31.009,12.624-.016,18.934.012.043-3.612.012-7.223.019-10.834-2.715,0-5.433,0-8.151,0,.01-2.27,0-4.541,0-6.808H42.729c0-1.358,0-2.715,0-4.073,2.711.014,5.421.005,8.13.005q0-5.413,0-10.826c-2.711.005-5.421.011-8.132,0,0-2.259.011-4.521-.007-6.78-3.6.022-7.205-.011-10.808.016-.009-1.368-.005-2.735-.005-4.1q4.065,0,8.128,0c-.01-3.611,0-7.225-.005-10.84" transform="translate(1317.624 697)" fill="#243c96"/>
    <path id="Path_5875" data-name="Path 5875" d="M13.332,28.112a9.5,9.5,0,0,1,4.75,16.87,9.437,9.437,0,0,1-10.328.964,9.5,9.5,0,0,1,5.578-17.834m6.242-.268A12.192,12.192,0,1,0,9.331,49.4a12.416,12.416,0,0,0,9.714-1.737c3.231,3.294,6.56,6.5,9.747,9.835h.119c.592-.667,1.222-1.3,1.856-1.929-3.235-3.21-6.425-6.467-9.682-9.66a12.4,12.4,0,0,0,3.285-8.1,12.189,12.189,0,0,0-4.795-9.968" transform="translate(1317 698.782)" fill="#243c96"/>
  </g>
</svg>
