<svg xmlns="http://www.w3.org/2000/svg" xmlns:xlink="http://www.w3.org/1999/xlink" width="50.504" height="59.565" viewBox="0 0 50.504 59.565">
  <defs>
    <clipPath id="clip-path">
      <rect id="Rectangle_11006" data-name="Rectangle 11006" width="50.504" height="59.565" fill="#243c96"/>
    </clipPath>
  </defs>
  <g id="icon" transform="translate(0 0)">
    <g id="Group_21790" data-name="Group 21790" transform="translate(0 0)" clip-path="url(#clip-path)">
      <path id="Path_6213" data-name="Path 6213" d="M8.386,50.258h34.2a3.492,3.492,0,0,0,3.49-3.49v-21.6a1.163,1.163,0,0,0-2.326,0v21.6a1.164,1.164,0,0,1-1.163,1.163H8.386a1.164,1.164,0,0,1-1.163-1.163V3.49A1.164,1.164,0,0,1,8.386,2.326h34.2A1.164,1.164,0,0,1,43.753,3.49V15.357a1.163,1.163,0,0,0,2.326,0V3.49A3.492,3.492,0,0,0,42.59,0H8.386A3.493,3.493,0,0,0,4.9,3.49V46.769a3.493,3.493,0,0,0,3.49,3.49" transform="translate(4.425 0)" fill="#243c96"/>
      <path id="Path_6214" data-name="Path 6214" d="M26.425,13.8a2.1,2.1,0,1,0-1.485-.615,2.113,2.113,0,0,0,1.485.615" transform="translate(21.983 8.677)" fill="#243c96"/>
      <path id="Path_6215" data-name="Path 6215" d="M24.022,31.264a1.2,1.2,0,1,0-.843-.35,1.2,1.2,0,0,0,.843.35" transform="translate(20.63 26.099)" fill="#243c96"/>
      <path id="Path_6216" data-name="Path 6216" d="M5.938,52.706H37.815a1.163,1.163,0,0,0,0-2.326H5.938a1.164,1.164,0,0,1-1.163-1.163V3.611a1.163,1.163,0,1,0-2.326,0V49.217a3.493,3.493,0,0,0,3.49,3.49" transform="translate(2.212 2.212)" fill="#243c96"/>
      <path id="Path_6217" data-name="Path 6217" d="M3.49,55.147H40.02a1.163,1.163,0,0,0,0-2.326H3.49a1.164,1.164,0,0,1-1.163-1.163V6.052A1.163,1.163,0,0,0,0,6.052V51.658a3.493,3.493,0,0,0,3.49,3.49" transform="translate(0 4.418)" fill="#243c96"/>
      <path id="Path_6218" data-name="Path 6218" d="M27.188,15.691H18.347V6.85h8.841ZM17.182,18.017H28.351a1.164,1.164,0,0,0,1.163-1.163V5.685a1.164,1.164,0,0,0-1.163-1.163H17.182a1.164,1.164,0,0,0-1.163,1.163V16.854a1.164,1.164,0,0,0,1.163,1.163" transform="translate(14.477 4.087)" fill="#243c96"/>
      <path id="Path_6219" data-name="Path 6219" d="M21.841,20.449h0a1.161,1.161,0,0,1-.822-.341l-2.262-2.26A1.164,1.164,0,0,1,20.4,16.2l1.437,1.439,3.094-3.094a1.163,1.163,0,0,1,1.645,1.645l-3.916,3.916a1.158,1.158,0,0,1-.822.341" transform="translate(16.644 12.839)" fill="#243c96"/>
      <path id="Path_6220" data-name="Path 6220" d="M9.134,18.378H22.708c.643,0,1.163-.708,1.163-1.58s-.52-1.582-1.163-1.582H9.134c-.642,0-1.161.708-1.161,1.582s.52,1.58,1.161,1.58" transform="translate(7.205 13.751)" fill="#243c96"/>
      <path id="Path_6221" data-name="Path 6221" d="M9.481,14.613h8.144c.642,0,1.163-.809,1.163-1.809s-.522-1.81-1.163-1.81H9.481c-.642,0-1.163.811-1.163,1.81s.522,1.809,1.163,1.809" transform="translate(7.517 9.936)" fill="#243c96"/>
      <path id="Path_6222" data-name="Path 6222" d="M9.481,8.141h8.144c.642,0,1.163-.809,1.163-1.809s-.522-1.81-1.163-1.81H9.481c-.642,0-1.163.811-1.163,1.81S8.84,8.141,9.481,8.141" transform="translate(7.517 4.087)" fill="#243c96"/>
      <path id="Path_6223" data-name="Path 6223" d="M9.481,11.541h8.144c.642,0,1.163-.809,1.163-1.809s-.522-1.81-1.163-1.81H9.481c-.642,0-1.163.811-1.163,1.81s.522,1.809,1.163,1.809" transform="translate(7.517 7.159)" fill="#243c96"/>
      <path id="Path_6224" data-name="Path 6224" d="M21.841,25.115h0a1.161,1.161,0,0,1-.822-.341l-2.262-2.262A1.164,1.164,0,0,1,20.4,20.868l1.437,1.439,3.094-3.094a1.163,1.163,0,0,1,1.645,1.645l-3.916,3.916a1.158,1.158,0,0,1-.822.341" transform="translate(16.644 17.056)" fill="#243c96"/>
      <path id="Path_6225" data-name="Path 6225" d="M9.134,23.775H22.708a1.352,1.352,0,0,0,1.163-1.483,1.352,1.352,0,0,0-1.163-1.483H9.134a1.352,1.352,0,0,0-1.161,1.483,1.352,1.352,0,0,0,1.161,1.483" transform="translate(7.205 18.806)" fill="#243c96"/>
    </g>
  </g>
</svg>
