<svg xmlns="http://www.w3.org/2000/svg" width="70.894" height="49.767" viewBox="0 0 70.894 49.767">
  <g id="Icon" transform="translate(0 0)">
    <rect id="base" width="70.893" height="49.767" transform="translate(0 0)" fill="none"/>
    <path id="Path_5876" data-name="Path 5876" d="M12.2,30.041a112.559,112.559,0,0,1-8.661,8.441c-.341-.331-1.022-1-1.362-1.343,2.5-3.131,5.616-5.719,8.355-8.637.418.382,1.251,1.148,1.668,1.539M25.229,9.671a11.06,11.06,0,0,1-7.241,20.838c-6.084-1.446-9.87-8.628-7.53-14.456A11.131,11.131,0,0,1,25.229,9.671M68.548,5.3q.013,19.886,0,39.762c-8.883,0-17.775.034-26.658-.017-.833.792-1.659,1.6-2.493,2.391-1.651-.026-3.3-.017-4.953-.051-.749-.773-1.506-1.548-2.264-2.314q-13.376,0-26.743-.009V40.141c1.293-1.25,2.569-2.519,3.846-3.786v5.309c6.3.026,12.6-.051,18.9.026a18.7,18.7,0,0,1,8.807,2.629,18.715,18.715,0,0,1,8.993-2.637c6.246-.069,12.483.009,18.728-.026q.013-18.174.009-36.359ZM9.275,5.289c-.17,3.226.621,6.671-.842,9.7-1.659,3.718-1.031,8,.723,11.564C7.939,27.8,6.714,29.028,5.5,30.28c-.145-8.33-.025-16.661-.059-24.983C6.722,5.289,8,5.289,9.275,5.289m27.1-.723c.093,12.254,0,24.5.051,36.75-7.8-3.488-16.55-1.455-24.8-2-.009-1.778,0-3.557-.009-5.335q1.289-1.263,2.6-2.484a13.408,13.408,0,0,0,14.8-22.285c-5.037-4.076-12.67-3.446-17.427.766.043-2.544.043-5.08.034-7.616,5.514.009,11.019-.034,16.525,0a18.37,18.37,0,0,1,8.227,2.2m25.969-2.2q0,18.469,0,36.954c-8.245.536-16.992-1.481-24.8,1.99.034-12.2.069-24.4-.017-36.6a16.8,16.8,0,0,1,7.556-2.314c5.75-.093,11.5,0,17.256-.026M64.7,0c-6.722.051-13.444-.076-20.157.06C41.83.1,39.414,1.443,36.87,2.124,34.308,1.179,31.747.056,28.965.039,22.412-.047,15.853.039,9.292,0c-.009.987-.009,1.974-.017,2.952H3.1c-.009,9.878.016,19.758-.009,29.636C1.9,33.981,0,35.164,0,37.2c.034,1.856,1.754,2.8,3.106,3.71,0,2.169-.007,4.34-.007,6.518,9.393.017,18.779-.026,28.173.017q1.134,1.175,2.28,2.322c2.331,0,4.655.017,6.977-.042.732-.775,1.481-1.541,2.221-2.3H70.887q.013-22.234,0-44.467H64.719C64.71,1.971,64.71.992,64.7,0" transform="translate(0 0)" fill="#243c96"/>
    <path id="Union_2" data-name="Union 2" d="M5.921,24.186c-1.943-.02-3.885-.039-5.826-.006L0,23.023c1.929.008,3.862,0,5.793-.012,3.135-.016,6.272-.032,9.4.037.068.256.213.749.283,1-1.994.122-3.991.156-5.989.156C8.3,24.209,7.111,24.2,5.921,24.186Zm-.155-7.667c-1.906-.02-3.811-.041-5.71,0V15.349c1.9.024,3.812.012,5.72,0,3.365-.022,6.733-.043,10.1.136-.247.231-.741.68-.987.9-1.894.123-3.792.157-5.69.157C8.051,16.544,6.908,16.532,5.766,16.519ZM5.718,8.854C3.833,8.831,1.945,8.805.061,8.848L.046,7.692c1.9.026,3.8.012,5.7,0,3.409-.028,6.818-.053,10.22.166-.282.213-.849.631-1.131.841-1.879.149-3.766.191-5.655.191C8.025,8.885,6.871,8.87,5.718,8.854ZM5.4,1.186c-1.78-.006-3.561-.014-5.343,0L.046.025C2,.055,3.959.037,5.915.021c3.037-.028,6.074-.053,9.105.1.169.256.519.751.691,1-2.233.064-4.464.081-6.695.081Q7.21,1.2,5.4,1.186Z" transform="translate(42.305 8.881)" fill="#243c96"/>
    <path id="Path_5878" data-name="Path 5878" d="M18.1,13.767l1.506,4.2c-1,0-2.009-.009-3.011-.009.51-1.4,1-2.791,1.505-4.187m1.14-3.837C18.683,9.921,17.559,9.9,17,9.9c-1.634,4.7-3.446,9.326-4.951,14.074,2.637.621,3.106-1.778,3.744-3.65q2.335-.013,4.671,0c.4,1.14.808,2.272,1.2,3.421l2.535.067c-1.634-4.636-3.336-9.248-4.953-13.886" transform="translate(2.718 2.234)" fill="#243c96"/>
  </g>
</svg>
