<svg xmlns="http://www.w3.org/2000/svg" width="62.89" height="59.77" viewBox="0 0 62.89 59.77">
  <g id="Icon" transform="translate(7.65 6.511)">
    <rect id="base" width="62.89" height="59.77" transform="translate(-7.65 -6.511)" fill="none"/>
    <g id="Group_22387" data-name="Group 22387" transform="translate(-3.544 -4.405)">
      <path id="Path_10602" data-name="Path 10602" d="M53.5,31.118h-7.46V27.281a1.066,1.066,0,0,0-.816-1.036l-4.239-1.021A13.853,13.853,0,0,0,28.347,13.469V10.657H40.069a1.066,1.066,0,0,0,.754-1.819L37.314,5.328l3.509-3.509A1.066,1.066,0,0,0,40.069,0H27.281a1.066,1.066,0,0,0-1.066,1.066v12.4A13.853,13.853,0,0,0,13.581,25.224L9.341,26.245a1.066,1.066,0,0,0-.816,1.036v3.836H1.066A1.066,1.066,0,0,0,0,32.183V53.5a1.066,1.066,0,0,0,1.066,1.066h21.42a1.066,1.066,0,0,0,0-2.131H10.657V50.3H43.906v2.131H32.077a1.066,1.066,0,1,0,0,2.131H53.5A1.066,1.066,0,0,0,54.562,53.5V32.183A1.066,1.066,0,0,0,53.5,31.118ZM28.347,2.131H37.5L35.053,4.575a1.066,1.066,0,0,0,0,1.507L37.5,8.525h-9.15ZM27.281,15.559a11.656,11.656,0,0,1,11.434,9.119L27.531,21.982a1.066,1.066,0,0,0-.5,0L15.847,24.677a11.657,11.657,0,0,1,11.434-9.119ZM10.657,28.121l16.624-4.006,16.624,4.006v3H10.657Zm6.394,5.128V48.168H14.919V33.249Zm2.131,0h4.9V48.168h-4.9Zm7.033,0h2.131V48.168H26.216Zm4.263,0h4.9V48.168h-4.9Zm7.033,0h2.131V48.168H37.512ZM2.131,52.431V33.249H12.788V48.168H10.657v-3.2a1.066,1.066,0,0,0-1.066-1.066H5.328a1.066,1.066,0,0,0-1.066,1.066v4.263A1.066,1.066,0,0,0,5.328,50.3h3.2v2.131Zm6.394-4.263H6.394V46.037H8.525Zm43.906,4.263H46.037V50.3h3.2A1.066,1.066,0,0,0,50.3,49.234V44.971a1.066,1.066,0,0,0-1.066-1.066H44.971a1.066,1.066,0,0,0-1.066,1.066v3.2H41.774V33.249H52.431Zm-6.394-4.263V46.037h2.131v2.131Z" fill="#243c96"/>
      <path id="Path_10603" data-name="Path 10603" d="M412,333.066v4.263a1.066,1.066,0,0,0,1.066,1.066h4.263a1.066,1.066,0,0,0,1.066-1.066v-4.263A1.066,1.066,0,0,0,417.328,332h-4.263A1.066,1.066,0,0,0,412,333.066Zm2.131,1.066h2.131v2.131h-2.131Z" transform="translate(-368.094 -296.62)" fill="#243c96"/>
      <path id="Path_10604" data-name="Path 10604" d="M41.066,338.394h4.263a1.066,1.066,0,0,0,1.066-1.066v-4.263A1.066,1.066,0,0,0,45.328,332H41.066A1.066,1.066,0,0,0,40,333.066v4.263A1.066,1.066,0,0,0,41.066,338.394Zm1.066-4.263h2.131v2.131H42.131Z" transform="translate(-35.737 -296.62)" fill="#243c96"/>
      <ellipse id="Ellipse_45" data-name="Ellipse 45" cx="1.338" cy="0.669" rx="1.338" ry="0.669" transform="translate(25.943 52.54)" fill="#243c96"/>
    </g>
  </g>
</svg>
