<svg xmlns="http://www.w3.org/2000/svg" width="62.893" height="59.767" viewBox="0 0 62.893 59.767">
  <g id="Icon" transform="translate(-3.754 9.687)">
    <rect id="base" width="62.893" height="59.767" transform="translate(3.754 -9.687)" fill="none"/>
    <g id="Group_22386" data-name="Group 22386" transform="translate(7.755 -7.688)">
      <g id="Group_22379" data-name="Group 22379" transform="translate(14.695 38.575)">
        <g id="Group_22378" data-name="Group 22378">
          <path id="Path_10598" data-name="Path 10598" d="M164.646,345.268a4.543,4.543,0,0,0,1.01-2.839v-1.837a4.592,4.592,0,0,0-9.185,0v1.837a4.544,4.544,0,0,0,1.01,2.839,4.582,4.582,0,0,0-2.847,1.782,4.582,4.582,0,0,0-2.847-1.782,4.543,4.543,0,0,0,1.01-2.839v-1.837a4.592,4.592,0,0,0-9.185,0v1.837a4.544,4.544,0,0,0,1.01,2.839,4.582,4.582,0,0,0-2.847,1.782,4.582,4.582,0,0,0-2.847-1.782,4.543,4.543,0,0,0,1.01-2.839v-1.837a4.592,4.592,0,1,0-9.185,0v1.837a4.543,4.543,0,0,0,1.01,2.839A4.592,4.592,0,0,0,128,349.777v2.755h1.837v-2.755a2.755,2.755,0,0,1,2.755-2.755H138.1a2.755,2.755,0,0,1,2.755,2.755v2.755H142.7v-2.755a2.755,2.755,0,0,1,2.755-2.755h5.511a2.755,2.755,0,0,1,2.755,2.755v2.755h1.837v-2.755a2.755,2.755,0,0,1,2.755-2.755h5.511a2.755,2.755,0,0,1,2.755,2.755v2.755h1.837v-2.755A4.592,4.592,0,0,0,164.646,345.268ZM138.1,342.429a2.755,2.755,0,0,1-5.511,0v-1.837a2.755,2.755,0,0,1,5.511,0Zm12.858,0a2.755,2.755,0,0,1-5.511,0v-1.837a2.755,2.755,0,0,1,5.511,0Zm12.858,0a2.755,2.755,0,0,1-5.511,0v-1.837a2.755,2.755,0,0,1,5.511,0Z" transform="translate(-128 -336)" fill="#243c96"/>
        </g>
      </g>
      <g id="Group_22381" data-name="Group 22381" transform="translate(0 9.185)">
        <g id="Group_22380" data-name="Group 22380">
          <path id="Path_10599" data-name="Path 10599" d="M22.379,89.249a.917.917,0,0,0-.336-.064H18.369a.919.919,0,0,0-.863.6l-.974,2.677-.032-.087a4.868,4.868,0,0,0-4.56-3.194h-.024a4.544,4.544,0,0,0,.942-2.755V84.592a4.592,4.592,0,0,0-9.185,0v1.837a4.544,4.544,0,0,0,.942,2.755H4.592A4.6,4.6,0,0,0,0,93.777V104.8a.918.918,0,0,0,.918.918H3.674v8.909l-1.683,2.521a.918.918,0,0,0,.764,1.428H13.777a.918.918,0,0,0,.764-1.428l-1.683-2.521V97.667l.231.459a3.756,3.756,0,0,0,6.845-.285l1.492-3.728L22.9,90.44A.918.918,0,0,0,22.379,89.249ZM5.511,84.592a2.755,2.755,0,1,1,5.511,0v1.837a2.755,2.755,0,0,1-5.511,0ZM3.674,103.88H1.837v-1.837H3.674Zm5.511,12.858V105.717H7.348v11.021H4.472l.884-1.327a.925.925,0,0,0,.154-.51V103.88h5.511V114.9a.924.924,0,0,0,.154.51l.884,1.327Zm9.045-19.574a1.919,1.919,0,0,1-3.5.145l-1.966-3.943a.918.918,0,0,0-1.745.411v8.266H5.511V93.777a.918.918,0,1,0-1.837,0v6.429H1.837V93.777a2.755,2.755,0,0,1,2.755-2.755H7.348v9.185H9.185V91.021H11.94a3.024,3.024,0,0,1,2.833,1.985l.9,2.462a.918.918,0,0,0,1.727,0l.281-.773h1.54Zm1.722-4.306H18.344l.668-1.837h1.674Z" transform="translate(0 -80)" fill="#243c96"/>
        </g>
      </g>
      <g id="Group_22383" data-name="Group 22383" transform="translate(14.695)">
        <g id="Group_22382" data-name="Group 22382">
          <path id="Path_10600" data-name="Path 10600" d="M167.493,5.511a.918.918,0,0,0,.918-.918V.918A.918.918,0,0,0,167.493,0H128.918A.918.918,0,0,0,128,.918V4.592a.918.918,0,0,0,.918.918h.918V16.532h1.837V5.511h33.064V25.717h-29.39v1.837h11.94v4.06l-5.97,3.409.911,1.594,5.059-2.889v3.01h1.837v-3.01l5.051,2.889.911-1.594-5.963-3.409v-4.06h19.288V25.717h-1.837V5.511ZM129.837,3.674V1.837h36.738V3.674Z" transform="translate(-128)" fill="#243c96"/>
        </g>
      </g>
      <g id="Group_22385" data-name="Group 22385" transform="translate(24.265 9.212)">
        <g id="Group_22384" data-name="Group 22384">
          <path id="Path_10601" data-name="Path 10601" d="M232.315,81.158l-3.674-.918-.446,1.782,1.72.43-6.971,4.88-4.055-3.244a.918.918,0,0,0-1.108-.029l-6.429,4.592,1.067,1.493,5.864-4.188,4.049,3.24a.918.918,0,0,0,1.1.035l7.738-5.417v1.909h1.837V82.049A.919.919,0,0,0,232.315,81.158Z" transform="translate(-211.352 -80.24)" fill="#243c96"/>
        </g>
      </g>
    </g>
  </g>
</svg>
