<svg xmlns="http://www.w3.org/2000/svg" width="19" height="19" viewBox="0 0 19 19">
  <g id="logo-twitter" transform="translate(0.073 0.074)">
    <rect id="base" width="19" height="19" transform="translate(-0.074 -0.074)" fill="none"/>
    <path id="Path_95" data-name="Path 95" d="M33.617,65.67a7.407,7.407,0,0,1-2.075.562,3.579,3.579,0,0,0,1.59-1.967,7.258,7.258,0,0,1-2.3.862A3.639,3.639,0,0,0,28.2,64a3.585,3.585,0,0,0-3.614,3.556,3.421,3.421,0,0,0,.093.811,10.3,10.3,0,0,1-7.45-3.718,3.512,3.512,0,0,0-.491,1.787A3.547,3.547,0,0,0,18.349,69.4a3.578,3.578,0,0,1-1.644-.444V69a3.573,3.573,0,0,0,2.9,3.487,3.7,3.7,0,0,1-.952.125,3.464,3.464,0,0,1-.679-.066,3.613,3.613,0,0,0,3.378,2.47,7.325,7.325,0,0,1-4.489,1.523A7.45,7.45,0,0,1,16,76.486a10.3,10.3,0,0,0,15.825-8.515c0-.154,0-.308-.011-.459A7.284,7.284,0,0,0,33.617,65.67Z" transform="translate(-14.84 -61.377)" fill="#878a8f"/>
  </g>
</svg>
