<svg xmlns="http://www.w3.org/2000/svg" width="19.09" height="19" viewBox="0 0 19.09 19">
  <g id="logo-youtube" transform="translate(0.074 0.074)">
    <rect id="base" width="19" height="19" transform="translate(-0.074 -0.074)" fill="none"/>
    <path id="Path_96" data-name="Path 96" d="M18.692,67.117a2.858,2.858,0,0,0-2.72-2.985c-2.037-.1-4.114-.132-6.236-.132H9.074c-2.117,0-4.2.037-6.235.132A2.864,2.864,0,0,0,.123,67.125c-.092,1.308-.131,2.617-.129,3.926s.038,2.619.125,3.93a2.867,2.867,0,0,0,2.717,3c2.14.1,4.334.143,6.566.14s4.424-.039,6.566-.14a2.868,2.868,0,0,0,2.72-3c.088-1.312.129-2.621.125-3.933S18.781,68.428,18.692,67.117ZM7.6,74.657V67.433l5.33,3.61Z" transform="translate(0.204 -61.117)" fill="#878a8f"/>
  </g>
</svg>
